<?xml version="1.0" encoding="UTF-8" standalone="no"?>
<!-- Created with Inkscape (http://www.inkscape.org/) -->

<svg
   version="1.1"
   id="svg1"
   width="223.40024"
   height="222.89241"
   viewBox="0 0 223.40024 222.89241"
   sodipodi:docname="logo_up.svg"
   inkscape:version="1.4 (e7c3feb1, 2024-10-09)"
   xmlns:inkscape="http://www.inkscape.org/namespaces/inkscape"
   xmlns:sodipodi="http://sodipodi.sourceforge.net/DTD/sodipodi-0.dtd"
   xmlns="http://www.w3.org/2000/svg"
   xmlns:svg="http://www.w3.org/2000/svg">
  <defs
     id="defs1" />
  <sodipodi:namedview
     id="namedview1"
     pagecolor="#ffffff"
     bordercolor="#000000"
     borderopacity="0.25"
     inkscape:showpageshadow="2"
     inkscape:pageopacity="0.0"
     inkscape:pagecheckerboard="0"
     inkscape:deskcolor="#d1d1d1"
     showgrid="false"
     inkscape:zoom="0.66170213"
     inkscape:cx="470"
     inkscape:cy="470"
     inkscape:window-width="1472"
     inkscape:window-height="895"
     inkscape:window-x="0"
     inkscape:window-y="33"
     inkscape:window-maximized="1"
     inkscape:current-layer="g1">
    <inkscape:page
       x="0"
       y="1.1878333e-13"
       inkscape:label="1"
       id="page1"
       width="223.40024"
       height="222.89241"
       margin="0"
       bleed="0" />
  </sodipodi:namedview>
  <g
     id="g1"
     inkscape:groupmode="layer"
     inkscape:label="1"
     transform="translate(0,-2.68e-5)">
    <path
       id="path1"
       d="M 0,111.44705 V 2.68e-5 H 223.40024 V 222.89243 H 0 Z m 36.13069,72.72066 c 0.420935,-0.21173 1.021592,-0.6203 1.334757,-0.90621 l 0.570862,-0.52237 v 1.61084 h 5.076579 l -0.131225,-21.42775 h -5.071508 l -0.127738,3.6537 c -0.113792,3.29363 -0.16324,3.60806 -0.5062,3.19347 -1.186416,-1.43651 -4.513325,-1.82765 -6.738101,-0.79148 -2.618831,1.2197 -3.803631,3.58968 -3.756687,7.51091 0.04457,3.63405 1.124258,5.98406 3.350333,7.28902 1.914462,1.12176 4.248307,1.2739 5.998928,0.38987 z m -2.380756,-3.68952 c -1.227305,-0.63045 -1.666624,-1.58358 -1.756961,-3.81726 -0.07449,-1.84127 -0.01743,-2.17441 0.515075,-2.96176 1.366772,-2.02195 4.041358,-1.85839 5.023012,0.30714 0.54487,1.19846 0.6463,3.10662 0.242798,4.5577 -0.502713,1.81117 -2.435591,2.73006 -4.023924,1.91418 z m 22.425574,4.1019 c 2.64701,-0.48908 4.524102,-1.75442 5.414468,-3.65022 0.294465,-0.62633 0.535995,-1.19719 0.535995,-1.26882 0,-0.072 -1.074842,-0.13028 -2.389631,-0.13028 -2.303098,0 -2.415622,0.0273 -3.131339,0.74298 -0.933474,0.93379 -2.294223,1.21589 -3.551006,0.73663 -1.037758,-0.39494 -2.085024,-1.73097 -2.085024,-2.65683 v -0.59686 h 11.479041 l -0.129006,-1.79911 c -0.09763,-1.37311 -0.330599,-2.19406 -0.985458,-3.47557 -1.50814,-2.95415 -4.054987,-4.27655 -7.807903,-4.05372 -2.425449,0.14359 -3.947218,0.80478 -5.559324,2.41689 -1.760764,1.76076 -2.414354,3.58682 -2.253334,6.2874 0.146123,2.44415 0.887831,4.11204 2.459998,5.53207 1.181345,1.06723 1.814015,1.37184 3.809971,1.82891 1.79151,0.41111 2.369979,0.42347 4.192552,0.0865 z m -5.205269,-10.05617 c 0.0022,-0.62157 0.869129,-1.86853 1.567413,-2.25745 0.323308,-0.17814 1.083401,-0.32806 1.688812,-0.33282 0.923648,-0.008 1.244421,0.13123 1.96616,0.85297 0.53758,0.53853 0.861839,1.10939 0.861839,1.52177 v 0.65866 h -3.043538 c -2.728788,0 -3.041954,-0.046 -3.040686,-0.44313 z m 51.518591,9.67486 c 0.65138,-0.21174 1.32113,-0.54963 1.48817,-0.75027 0.43457,-0.52395 0.70209,-0.45453 0.79496,0.20286 0.078,0.54487 0.20318,0.57467 2.71168,0.64408 2.4451,0.0669 2.61499,0.0409 2.42671,-0.38036 -0.11157,-0.25009 -0.26879,-3.07777 -0.34803,-6.28613 -0.1214,-4.85724 -0.21903,-5.96537 -0.58449,-6.63385 -1.08689,-1.99089 -3.25496,-2.7402 -7.40028,-2.55826 -4.338677,0.19081 -6.11529,1.3113 -6.836078,4.31141 l -0.167043,0.69702 h 2.523393 c 2.305317,0 2.537021,-0.0434 2.68568,-0.51001 0.570548,-1.79911 4.690198,-1.53159 4.690198,0.30588 0,1.02001 -0.75281,1.37058 -3.93011,1.83113 -4.783062,0.69226 -6.466802,1.98962 -6.466802,4.97864 0,3.85181 3.703151,5.67818 8.412042,4.14786 z m -2.517365,-3.01628 c -0.387337,-0.28084 -0.568326,-0.66976 -0.56579,-1.22192 0.0063,-1.34965 0.614285,-1.85237 2.686945,-2.22005 0.82095,-0.14612 1.70752,-0.32933 1.96997,-0.40604 0.4371,-0.12901 0.46784,-0.0187 0.35912,1.29736 -0.15753,1.89579 -0.90399,2.69804 -2.6524,2.85399 -0.86913,0.077 -1.39276,-0.0111 -1.797845,-0.30334 z m 31.516255,3.39759 c 2.34525,-0.4333 3.83596,-1.36328 5.04551,-3.14497 1.16645,-1.71987 1.00163,-1.90435 -1.69737,-1.90435 -2.10119,0 -2.38234,0.0558 -2.67585,0.52649 -0.37751,0.60541 -1.76679,1.24917 -2.69297,1.24917 -1.17374,0 -2.39566,-0.79369 -2.93324,-1.90181 -0.27861,-0.57562 -0.5062,-1.1823 -0.5062,-1.34839 0,-0.22283 1.51543,-0.29954 5.86742,-0.29954 h 5.869 l -0.15341,-1.46122 c -0.27861,-2.66825 -0.904,-4.10697 -2.47014,-5.68421 -1.79785,-1.81021 -3.37794,-2.35508 -6.33843,-2.18424 -3.47779,0.20191 -6.4928,2.34019 -7.47826,5.30797 -0.59812,1.80165 -0.41967,5.25598 0.34898,6.74067 1.71861,3.32183 5.49752,4.90193 9.81496,4.10443 z m -5.27089,-9.7617 c -0.28971,-0.28971 0.37656,-1.63049 1.12176,-2.25841 1.36962,-1.15155 3.83469,-0.68592 4.64328,0.87674 0.76643,1.48342 0.68592,1.53033 -2.61626,1.53033 -1.65046,0 -3.067,-0.0669 -3.14878,-0.14866 z m 63.84712,9.7617 c 1.92781,-0.35659 3.03213,-0.94108 4.35325,-2.30183 3.81853,-3.93707 2.72023,-10.67901 -2.12591,-13.04994 -2.02194,-0.98958 -4.92285,-1.12936 -7.0551,-0.34074 -2.1294,0.78989 -4.15261,2.85652 -4.79511,4.90066 -0.58703,1.86727 -0.45961,4.59257 0.29193,6.28867 0.95978,2.16426 3.34434,4.04262 5.73144,4.51554 1.5094,0.29859 1.92305,0.29732 3.5995,-0.0124 z m -3.39633,-4.42267 c -1.00542,-0.84694 -1.37945,-2.07266 -1.2628,-4.14152 0.11633,-2.0603 0.79718,-3.18839 2.1481,-3.56115 2.11862,-0.58544 3.57826,0.75787 3.82835,3.52628 0.33441,3.68604 -2.40801,6.11529 -4.71365,4.17639 z m -106.537479,0.66976 v -3.52248 l 3.740554,-0.0929 c 3.50251,-0.0865 3.833109,-0.13756 5.216363,-0.81587 2.48599,-1.21843 3.522479,-3.16843 3.523747,-6.63164 0.0013,-2.81437 -1.071039,-4.67149 -3.36653,-5.8354 -1.785488,-0.904 -4.072421,-1.15789 -9.748072,-1.07738 l -5.071508,0.0707 -0.06688,10.3969 c -0.03582,5.71781 -0.01109,10.53796 0.05579,10.71261 0.0878,0.22759 0.913505,0.31824 2.919604,0.31824 h 2.796936 z m 0.121399,-8.19049 c -0.07797,-0.20413 -0.109037,-1.44601 -0.06815,-2.75985 l 0.0729,-2.3909 2.44415,0.0162 c 1.841274,0.0124 2.60517,0.12139 3.094253,0.44217 1.324932,0.86786 1.336026,3.53484 0.01743,4.39795 -0.895438,0.58797 -5.357731,0.82316 -5.560592,0.29446 z m 37.85405,0.9994 -0.0669,-10.71387 h -5.07151 l -0.13122,21.42775 h 5.33522 z m 27.26062,6.27631 c 0.0507,-3.70854 0.12648,-4.42172 0.53758,-5.1013 0.76865,-1.27041 1.80388,-1.7446 3.77764,-1.7297 l 1.72083,0.0124 -0.0716,-2.29676 -0.0732,-2.29549 -1.43745,0.0273 c -1.73351,0.0345 -3.15733,0.70177 -3.93612,1.84856 l -0.55597,0.81842 -0.15595,-2.44193 h -4.81761 l -0.0669,7.80663 -0.0682,7.80664 2.54431,-0.0716 2.54463,-0.0732 z m 12.61316,0.0631 c 0.001,-4.57989 0.213,-5.98406 1.02888,-6.79994 0.68466,-0.68466 2.28567,-0.6612 2.92341,0.0418 0.4371,0.48306 0.49162,1.04505 0.56452,5.83318 l 0.0818,5.29941 h 5.28958 v -4.82649 c 0,-5.33269 0.22157,-6.43955 1.34712,-6.72323 1.09672,-0.27482 2.00325,-0.0174 2.55795,0.72681 0.49161,0.65993 0.53726,1.09956 0.61048,5.76852 l 0.078,5.05439 h 5.04171 v -5.6598 c 0,-6.45191 -0.21553,-7.67414 -1.57755,-8.95819 -1.98201,-1.86694 -5.80307,-1.85078 -7.98477,0.0349 l -0.92619,0.80225 -0.73537,-0.83838 c -0.82095,-0.93348 -1.99849,-1.35315 -3.8087,-1.35568 -1.41527,-10e-4 -2.52466,0.41364 -3.65243,1.36328 l -0.80733,0.68085 -0.0792,-0.83204 -0.0805,-0.83331 h -5.07151 l -0.13376,15.59615 h 5.33143 z M 35.583601,150.87105 c 3.413442,-0.49384 5.417004,-1.97726 6.59296,-4.88196 0.497959,-1.22826 0.542335,-1.88946 0.626648,-9.12143 l 0.08907,-7.79808 h -5.869954 v 7.25194 c 0,7.98731 -0.105233,8.62505 -1.542689,9.3693 -0.931256,0.48021 -3.353218,0.47292 -4.295187,-0.0149 -1.338561,-0.69226 -1.379545,-0.93601 -1.515493,-8.99907 l -0.127802,-7.47953 -5.737397,-0.1439 0.08904,7.93184 c 0.07924,7.17396 0.136328,8.05038 0.586773,9.16485 1.068789,2.64352 3.35195,4.30127 6.482021,4.70636 2.279294,0.29573 2.669483,0.297 4.622014,0.0146 z m 65.953059,-0.4295 c 1.44506,-0.45675 3.2613,-2.0156 3.97194,-3.40995 0.26752,-0.52364 0.48528,-1.01399 0.48528,-1.08816 0,-0.0757 -1.08942,-0.13756 -2.42038,-0.13756 -2.28091,0 -2.45397,0.0371 -2.97919,0.64757 -1.106857,1.2815 -3.764011,1.29767 -4.955181,0.0298 -0.581638,-0.61904 -1.11795,-2.05174 -0.86279,-2.3069 0.07924,-0.0805 2.710404,-0.14612 5.845231,-0.14612 h 5.70069 l -0.14485,-1.72463 c -0.3493,-4.15769 -2.88125,-7.04401 -6.730846,-7.67034 -5.972969,-0.97215 -10.97506,3.91267 -9.926209,9.69482 0.355322,1.95855 0.938546,3.10883 2.188989,4.31617 2.290737,2.21023 6.239223,2.93196 9.827316,1.79531 z m -6.69978,-9.67009 c 0,-0.25738 0.261183,-0.85677 0.57942,-1.33096 1.532863,-2.28186 4.71872,-1.62954 5.38974,1.10305 l 0.17212,0.6986 h -3.070482 c -2.819441,0 -3.070798,-0.0387 -3.070798,-0.47069 z m 37.01598,9.69101 c 4.397,-1.24537 5.40718,-6.69217 1.59975,-8.61871 -0.58544,-0.29605 -2.13447,-0.73188 -3.44324,-0.96707 -2.61626,-0.47038 -3.98177,-1.12429 -3.98177,-1.90435 0,-0.6574 0.7303,-1.02762 2.02797,-1.02762 1.29514,0 1.98106,0.3493 2.29169,1.16645 0.23297,0.61175 0.30588,0.6276 2.55319,0.58671 l 2.31292,-0.0418 -0.13249,-0.9918 c -0.16831,-1.25551 -1.19117,-2.6077 -2.4638,-3.25654 -1.43873,-0.7341 -4.19382,-1.06343 -6.34573,-0.75755 -4.00902,0.56832 -5.8316,2.31038 -5.49973,5.25598 0.25611,2.27552 1.5858,3.2128 6.00974,4.23693 1.59974,0.37022 3.11168,0.85676 3.35924,1.08086 1.57629,1.4251 -1.44475,3.09426 -3.5919,1.98486 -0.39621,-0.20571 -0.8406,-0.71952 -0.98799,-1.14172 l -0.26752,-0.76897 h -2.42292 c -2.69804,0 -2.73512,0.0323 -2.12464,1.80166 0.45802,1.32968 1.1712,2.14683 2.50596,2.87364 2.14683,1.16771 5.52953,1.36075 8.60127,0.48908 z m 23.71596,0.0409 c 0.4184,-0.17433 0.97817,-0.56072 1.24315,-0.8593 0.6612,-0.74044 0.91256,-0.67958 0.91256,0.21934 v 0.76009 h 4.81761 v -21.55391 h -5.0715 l -0.0285,2.98047 c -0.0149,1.63809 -0.007,3.2353 0.0187,3.54974 0.058,0.71666 -0.0387,0.71191 -1.20005,-0.0507 -2.7833,-1.83018 -6.79867,-1.06755 -8.57909,1.63049 -1.01905,1.54522 -1.41146,3.02737 -1.40892,5.33047 0.002,2.39692 0.38385,3.91489 1.38167,5.49498 1.66282,2.63211 5.03695,3.69808 7.9144,2.49835 z m -2.14842,-3.75386 c -2.06125,-1.04378 -2.61373,-5.53239 -0.90494,-7.37461 1.19117,-1.28531 3.17603,-1.08847 4.29651,0.42601 0.74773,1.00891 0.89893,4.28035 0.25992,5.62747 -0.66849,1.40766 -2.30785,2.00071 -3.65149,1.32113 z m 20.06954,3.72058 c 0.65138,-0.2092 1.32113,-0.54614 1.48817,-0.74805 0.43837,-0.52743 0.6723,-0.45421 0.85329,0.26752 0.15721,0.62412 0.20032,0.63394 2.72023,0.63394 h 2.56047 l -0.17465,-0.69701 c -0.0967,-0.38385 -0.2317,-3.19822 -0.29953,-6.25381 -0.14359,-6.42369 -0.30334,-7.01072 -2.22005,-8.13374 -2.11482,-1.23935 -7.45766,-1.32715 -9.72209,-0.15976 -1.72494,0.89037 -2.85779,2.4058 -2.85779,3.82614 0,0.48148 0.15595,0.51508 2.41562,0.51508 2.2993,0 2.42577,-0.0285 2.64099,-0.59432 0.29985,-0.78862 1.54903,-1.28024 2.81944,-1.10939 1.33349,0.17813 1.76077,0.56579 1.76077,1.5972 0,0.99053 -0.26879,1.09703 -4.3821,1.74207 -2.76461,0.43456 -4.113,1.00796 -5.08514,2.16426 -1.61306,1.91672 -1.01018,5.43666 1.14774,6.71214 1.55886,0.91985 3.93264,1.00892 6.33463,0.23773 z m -1.95506,-2.86382 c -1.31004,-0.56484 -1.48469,-2.02828 -0.34169,-2.87744 0.53726,-0.39875 3.14972,-1.15662 4.12186,-1.19625 0.12235,-0.005 0.16958,0.62665 0.10524,1.40164 -0.0894,1.07104 -0.27133,1.5652 -0.75407,2.04794 -0.68973,0.69099 -2.25365,1.00162 -3.13134,0.62411 z m 21.22331,2.74369 c 0.51634,-0.26372 1.11066,-0.72301 1.31859,-1.02033 0.37022,-0.5287 0.38005,-0.52236 0.46056,0.31317 l 0.0818,0.85455 h 4.81762 v -21.30002 l -2.59883,-0.0732 -2.59883,-0.0716 v 7.45987 l -0.57086,-0.52268 c -1.04981,-0.95947 -2.26221,-1.40513 -3.85308,-1.41654 -3.84199,-0.0282 -6.43733,2.80962 -6.67886,7.30297 -0.12489,2.34875 0.31221,4.35579 1.33,6.09025 1.59087,2.71674 5.46011,3.82867 8.29192,2.38361 z m -2.78204,-3.79 c -1.07231,-0.65391 -1.57027,-1.85713 -1.57027,-3.79761 0,-3.24989 1.7782,-4.95138 4.14184,-3.96434 1.28024,0.53473 1.77408,1.63303 1.78549,3.96434 0.0111,2.30183 -0.48687,3.42232 -1.75094,3.95102 -1.15155,0.48053 -1.60957,0.45453 -2.60612,-0.15341 z M 51.475171,145.55199 c 0.141368,-5.46519 0.252624,-5.89849 1.678986,-6.49407 0.953443,-0.39875 2.670783,-0.12996 3.065726,0.47926 0.110306,0.17084 0.257696,2.7066 0.326796,5.63476 l 0.127738,5.3254 2.598831,0.0716 2.598831,0.0732 -0.0013,-5.77866 c -0.0013,-7.51915 -0.336621,-8.70556 -2.758583,-9.77755 -2.299295,-1.01652 -5.339981,-0.5585 -7.055102,1.06216 -0.752802,0.71065 -0.834263,0.6761 -0.834263,-0.35912 v -0.88625 h -5.071508 v 15.73942 l 2.598831,-0.0732 2.598831,-0.0716 z m 19.018154,-2.78965 v -7.85957 h -5.071508 v 15.72072 h 5.071508 z m 15.620878,0 c 1.446014,-4.25309 2.630845,-7.76194 2.633381,-7.79649 0.0013,-0.0349 -1.191171,-0.0631 -2.650814,-0.0631 h -2.654617 l -0.619041,2.09105 c -0.341693,1.15028 -0.989261,3.38269 -1.439991,4.95898 -0.450731,1.57597 -0.897657,2.77475 -0.994333,2.66191 -0.09541,-0.11126 -0.541066,-1.57249 -0.989261,-3.2464 -0.448195,-1.67392 -1.042512,-3.81346 -1.321128,-4.75454 l -0.506517,-1.711 h -2.650813 c -1.458376,0 -2.652082,0.0951 -2.652082,0.21269 0,0.11791 0.980703,3.11295 2.179163,6.65635 1.197193,3.54372 2.361104,6.98822 2.586469,7.65449 l 0.407306,1.21209 3.021351,-0.0707 3.022301,-0.0704 z m 27.994727,3.15733 c 0.1065,-3.86544 0.19937,-4.68639 0.59051,-5.28198 0.6761,-1.03141 2.02448,-1.51035 3.79254,-1.3506 l 1.46725,0.13344 -0.072,-2.32275 -0.0729,-2.32275 -1.26787,-0.0716 c -1.58992,-0.0894 -3.30346,0.72047 -4.11807,1.94746 l -0.5734,0.86183 v -2.60992 h -5.0715 v 15.73942 l 2.59883,-0.0732 2.60041,-0.0716 z m 29.41506,-3.16589 v -7.86971 l -2.59883,0.0729 -2.60042,0.0719 -0.0666,7.47731 c -0.0374,4.11299 -0.0127,7.62216 0.0555,7.79776 0.0868,0.2279 0.85328,0.3195 2.66571,0.3195 h 2.54463 z M 70.493325,131.09914 v -2.02956 h -5.071508 v 4.05753 h 5.071508 z m 73.030665,-0.0101 v -2.03653 l -2.59883,0.0716 -2.60042,0.0732 -0.0754,1.62067 c -0.0421,0.89258 -0.0174,1.77661 0.0545,1.96489 0.0992,0.2577 0.77024,0.34423 2.67554,0.34423 h 2.54463 z M 88.751387,115.66527 c 6.837027,-1.22318 12.070823,-3.7564 15.875723,-7.68397 3.85308,-3.97574 5.99769,-8.558165 7.39553,-15.806301 0.33313,-1.726214 0.40603,-5.940637 0.48908,-28.210262 l 0.0979,-26.182294 H 92.575938 l -0.09287,25.168309 c -0.08273,22.695315 -0.133444,25.340106 -0.524901,26.937314 -0.613969,2.505959 -1.470737,4.234392 -2.803276,5.658535 -2.275522,2.432739 -5.126977,3.424536 -9.912579,3.447991 -3.895235,0.0187 -6.373934,-0.523633 -8.41585,-1.844761 -1.816234,-1.173737 -2.730056,-2.227343 -3.673674,-4.23566 C 65.67571,89.769203 65.67571,89.771738 65.67571,62.611278 V 37.782443 H 45.389678 v 24.190142 c 0,28.450208 0.07449,29.677513 2.190258,36.152878 3.152576,9.646637 10.530669,15.625637 21.587507,17.494167 4.149127,0.70177 4.552629,0.72554 10.962698,0.64123 4.385587,-0.0571 6.379006,-0.1943 8.621246,-0.59559 z m 54.710473,-13.6357 0.0669,-12.713634 10.58392,-0.126153 c 13.16532,-0.155949 15.35336,-0.444708 20.64136,-2.715476 5.7327,-2.461266 9.92399,-7.287757 11.72279,-13.497184 1.28277,-4.43123 1.70402,-9.68975 1.14172,-14.27471 -1.34965,-11.010877 -8.1534,-17.881502 -20.13262,-20.32692 -1.75442,-0.357858 -4.88196,-0.428226 -23.13875,-0.517294 l -21.1092,-0.101747 v 77.118938 l 10.07994,-0.0656 10.07835,-0.0669 z m 0.0621,-38.234412 v -9.784206 l 7.79649,0.0038 c 8.84439,0.0051 10.20134,0.185744 12.42646,1.658066 2.75352,1.821306 3.99413,4.728547 3.82455,8.959136 -0.0878,2.181699 -0.20064,2.683144 -0.93854,4.184945 -0.9731,1.975035 -2.31293,3.107883 -4.72474,3.996982 -1.43144,0.526169 -2.02449,0.56579 -9.95379,0.662466 l -8.43043,0.102698 z"
       style="fill:#000000;fill-opacity:1;fill-rule:nonzero;stroke:none;stroke-width:0.0316969" />
  </g>
</svg>
