<svg xmlns="http://www.w3.org/2000/svg" xmlns:xlink="http://www.w3.org/1999/xlink" version="1.1" class="marks" width="302" height="408" viewBox="0 0 302 408"><rect width="302" height="408" fill="white"/><g fill="none" stroke-miterlimit="10" transform="translate(56,31)"><g class="mark-group role-frame root" role="graphics-object" aria-roledescription="group mark container"><g transform="translate(0,0)"><path class="background" aria-hidden="true" d="M0.5,0.5h180v300h-180Z"/><g><g class="mark-group role-axis" aria-hidden="true"><g transform="translate(0.5,0.5)"><path class="background" aria-hidden="true" d="M0,0h0v0h0Z" pointer-events="none"/><g><g class="mark-rule role-axis-grid" pointer-events="none"><line transform="translate(0,300)" x2="180" y2="0" stroke="#e5e7eb" stroke-width="1" opacity="1"/><line transform="translate(0,270)" x2="180" y2="0" stroke="#e5e7eb" stroke-width="1" opacity="1"/><line transform="translate(0,240)" x2="180" y2="0" stroke="#e5e7eb" stroke-width="1" opacity="1"/><line transform="translate(0,210)" x2="180" y2="0" stroke="#e5e7eb" stroke-width="1" opacity="1"/><line transform="translate(0,180)" x2="180" y2="0" stroke="#e5e7eb" stroke-width="1" opacity="1"/><line transform="translate(0,150)" x2="180" y2="0" stroke="#e5e7eb" stroke-width="1" opacity="1"/><line transform="translate(0,120)" x2="180" y2="0" stroke="#e5e7eb" stroke-width="1" opacity="1"/><line transform="translate(0,90)" x2="180" y2="0" stroke="#e5e7eb" stroke-width="1" opacity="1"/><line transform="translate(0,60)" x2="180" y2="0" stroke="#e5e7eb" stroke-width="1" opacity="1"/><line transform="translate(0,30)" x2="180" y2="0" stroke="#e5e7eb" stroke-width="1" opacity="1"/><line transform="translate(0,0)" x2="180" y2="0" stroke="#e5e7eb" stroke-width="1" opacity="1"/></g></g><path class="foreground" aria-hidden="true" d="" pointer-events="none" display="none"/></g></g><g class="mark-group role-axis" role="graphics-symbol" aria-roledescription="axis" aria-label="X-axis titled 'País' for a discrete scale with 9 values: Argentina, Brasil, México, Perú, Colombia, ending with Paraguay"><g transform="translate(0.5,300.5)"><path class="background" aria-hidden="true" d="M0,0h0v0h0Z" pointer-events="none"/><g><g class="mark-rule role-axis-tick" pointer-events="none"><line transform="translate(10,0)" x2="0" y2="5" stroke="#9ca3af" stroke-width="1" opacity="1"/><line transform="translate(30,0)" x2="0" y2="5" stroke="#9ca3af" stroke-width="1" opacity="1"/><line transform="translate(50,0)" x2="0" y2="5" stroke="#9ca3af" stroke-width="1" opacity="1"/><line transform="translate(70,0)" x2="0" y2="5" stroke="#9ca3af" stroke-width="1" opacity="1"/><line transform="translate(90,0)" x2="0" y2="5" stroke="#9ca3af" stroke-width="1" opacity="1"/><line transform="translate(110,0)" x2="0" y2="5" stroke="#9ca3af" stroke-width="1" opacity="1"/><line transform="translate(130,0)" x2="0" y2="5" stroke="#9ca3af" stroke-width="1" opacity="1"/><line transform="translate(150,0)" x2="0" y2="5" stroke="#9ca3af" stroke-width="1" opacity="1"/><line transform="translate(170,0)" x2="0" y2="5" stroke="#9ca3af" stroke-width="1" opacity="1"/></g><g class="mark-text role-axis-label" pointer-events="none"><text text-anchor="end" transform="translate(9.5,7) rotate(270) translate(0,3)" font-family="Jost, Arial, sans-serif" font-size="11px" fill="#000" opacity="1">Argentina</text><text text-anchor="end" transform="translate(29.5,7) rotate(270) translate(0,3)" font-family="Jost, Arial, sans-serif" font-size="11px" fill="#000" opacity="1">Brasil</text><text text-anchor="end" transform="translate(49.5,7) rotate(270) translate(0,3)" font-family="Jost, Arial, sans-serif" font-size="11px" fill="#000" opacity="1">México</text><text text-anchor="end" transform="translate(69.5,7) rotate(270) translate(0,3)" font-family="Jost, Arial, sans-serif" font-size="11px" fill="#000" opacity="1">Perú</text><text text-anchor="end" transform="translate(89.5,7) rotate(270) translate(0,3)" font-family="Jost, Arial, sans-serif" font-size="11px" fill="#000" opacity="1">Colombia</text><text text-anchor="end" transform="translate(109.5,7) rotate(270) translate(0,3)" font-family="Jost, Arial, sans-serif" font-size="11px" fill="#000" opacity="1">Ecuador</text><text text-anchor="end" transform="translate(129.5,7) rotate(270) translate(0,3)" font-family="Jost, Arial, sans-serif" font-size="11px" fill="#000" opacity="1">Chile</text><text text-anchor="end" transform="translate(149.5,7) rotate(270) translate(0,3)" font-family="Jost, Arial, sans-serif" font-size="11px" fill="#000" opacity="1">Guatemala</text><text text-anchor="end" transform="translate(169.5,7) rotate(270) translate(0,3)" font-family="Jost, Arial, sans-serif" font-size="11px" fill="#000" opacity="1">Paraguay</text></g><g class="mark-rule role-axis-domain" pointer-events="none"><line transform="translate(0,0)" x2="180" y2="0" stroke="#9ca3af" stroke-width="1" opacity="1"/></g><g class="mark-text role-axis-title" pointer-events="none"><text text-anchor="middle" transform="translate(90,69.58799743652344)" font-family="Jost, Arial, sans-serif" font-size="12px" font-weight="bold" fill="#000" opacity="1">País</text></g></g><path class="foreground" aria-hidden="true" d="" pointer-events="none" display="none"/></g></g><g class="mark-group role-axis" role="graphics-symbol" aria-roledescription="axis" aria-label="Y-axis titled 'Proporción' for a linear scale with values from 0% to 100%"><g transform="translate(0.5,0.5)"><path class="background" aria-hidden="true" d="M0,0h0v0h0Z" pointer-events="none"/><g><g class="mark-rule role-axis-tick" pointer-events="none"><line transform="translate(0,300)" x2="-5" y2="0" stroke="#9ca3af" stroke-width="1" opacity="1"/><line transform="translate(0,270)" x2="-5" y2="0" stroke="#9ca3af" stroke-width="1" opacity="1"/><line transform="translate(0,240)" x2="-5" y2="0" stroke="#9ca3af" stroke-width="1" opacity="1"/><line transform="translate(0,210)" x2="-5" y2="0" stroke="#9ca3af" stroke-width="1" opacity="1"/><line transform="translate(0,180)" x2="-5" y2="0" stroke="#9ca3af" stroke-width="1" opacity="1"/><line transform="translate(0,150)" x2="-5" y2="0" stroke="#9ca3af" stroke-width="1" opacity="1"/><line transform="translate(0,120)" x2="-5" y2="0" stroke="#9ca3af" stroke-width="1" opacity="1"/><line transform="translate(0,90)" x2="-5" y2="0" stroke="#9ca3af" stroke-width="1" opacity="1"/><line transform="translate(0,60)" x2="-5" y2="0" stroke="#9ca3af" stroke-width="1" opacity="1"/><line transform="translate(0,30)" x2="-5" y2="0" stroke="#9ca3af" stroke-width="1" opacity="1"/><line transform="translate(0,0)" x2="-5" y2="0" stroke="#9ca3af" stroke-width="1" opacity="1"/></g><g class="mark-text role-axis-label" pointer-events="none"><text text-anchor="end" transform="translate(-7,303)" font-family="Jost, Arial, sans-serif" font-size="11px" fill="#000" opacity="1">0%</text><text text-anchor="end" transform="translate(-7,273)" font-family="Jost, Arial, sans-serif" font-size="11px" fill="#000" opacity="1">10%</text><text text-anchor="end" transform="translate(-7,243)" font-family="Jost, Arial, sans-serif" font-size="11px" fill="#000" opacity="1">20%</text><text text-anchor="end" transform="translate(-7,213)" font-family="Jost, Arial, sans-serif" font-size="11px" fill="#000" opacity="1">30%</text><text text-anchor="end" transform="translate(-7,183)" font-family="Jost, Arial, sans-serif" font-size="11px" fill="#000" opacity="1">40%</text><text text-anchor="end" transform="translate(-7,153)" font-family="Jost, Arial, sans-serif" font-size="11px" fill="#000" opacity="1">50%</text><text text-anchor="end" transform="translate(-7,123)" font-family="Jost, Arial, sans-serif" font-size="11px" fill="#000" opacity="1">60%</text><text text-anchor="end" transform="translate(-7,93.00000000000001)" font-family="Jost, Arial, sans-serif" font-size="11px" fill="#000" opacity="1">70%</text><text text-anchor="end" transform="translate(-7,62.999999999999986)" font-family="Jost, Arial, sans-serif" font-size="11px" fill="#000" opacity="1">80%</text><text text-anchor="end" transform="translate(-7,32.99999999999999)" font-family="Jost, Arial, sans-serif" font-size="11px" fill="#000" opacity="1">90%</text><text text-anchor="end" transform="translate(-7,3)" font-family="Jost, Arial, sans-serif" font-size="11px" fill="#000" opacity="1">100%</text></g><g class="mark-rule role-axis-domain" pointer-events="none"><line transform="translate(0,300)" x2="0" y2="-300" stroke="#9ca3af" stroke-width="1" opacity="1"/></g><g class="mark-text role-axis-title" pointer-events="none"><text text-anchor="middle" transform="translate(-37.4109992980957,150) rotate(-90) translate(0,-3)" font-family="Jost, Arial, sans-serif" font-size="12px" font-weight="bold" fill="#000" opacity="1">Proporción</text></g></g><path class="foreground" aria-hidden="true" d="" pointer-events="none" display="none"/></g></g><g class="mark-rect role-mark marks" role="graphics-object" aria-roledescription="rect mark container"><path aria-label="País: Argentina; Proporción: 39%; Cumple: NO; cumple: NO; count: 193" role="graphics-symbol" aria-roledescription="bar" d="M1,0h18v117.44421906693714h-18Z" fill="#1f77b4"/><path aria-label="País: Argentina; Proporción: 61%; Cumple: SI; cumple: SI; count: 300" role="graphics-symbol" aria-roledescription="bar" d="M1,117.44421906693714h18v182.55578093306286h-18Z" fill="#ff7f0e"/><path aria-label="País: Brasil; Proporción: 63%; Cumple: NO; cumple: NO; count: 288" role="graphics-symbol" aria-roledescription="bar" d="M21,0h18v189.0590809628009h-18Z" fill="#1f77b4"/><path aria-label="País: Brasil; Proporción: 37%; Cumple: SI; cumple: SI; count: 169" role="graphics-symbol" aria-roledescription="bar" d="M21,189.0590809628009h18v110.94091903719911h-18Z" fill="#ff7f0e"/><path aria-label="País: Chile; Proporción: 69%; Cumple: NO; cumple: NO; count: 24" role="graphics-symbol" aria-roledescription="bar" d="M121,0h18v205.71428571428572h-18Z" fill="#1f77b4"/><path aria-label="País: Chile; Proporción: 31%; Cumple: SI; cumple: SI; count: 11" role="graphics-symbol" aria-roledescription="bar" d="M121,205.71428571428572h18v94.28571428571428h-18Z" fill="#ff7f0e"/><path aria-label="País: Colombia; Proporción: 68%; Cumple: NO; cumple: NO; count: 55" role="graphics-symbol" aria-roledescription="bar" d="M81,0h18v203.7037037037037h-18Z" fill="#1f77b4"/><path aria-label="País: Colombia; Proporción: 32%; Cumple: SI; cumple: SI; count: 26" role="graphics-symbol" aria-roledescription="bar" d="M81,203.7037037037037h18v96.2962962962963h-18Z" fill="#ff7f0e"/><path aria-label="País: Ecuador; Proporción: 25%; Cumple: NO; cumple: NO; count: 14" role="graphics-symbol" aria-roledescription="bar" d="M101,0h18v75h-18Z" fill="#1f77b4"/><path aria-label="País: Ecuador; Proporción: 75%; Cumple: SI; cumple: SI; count: 42" role="graphics-symbol" aria-roledescription="bar" d="M101,75h18v225h-18Z" fill="#ff7f0e"/><path aria-label="País: Guatemala; Proporción: 48%; Cumple: NO; cumple: NO; count: 12" role="graphics-symbol" aria-roledescription="bar" d="M141,0h18v144h-18Z" fill="#1f77b4"/><path aria-label="País: Guatemala; Proporción: 52%; Cumple: SI; cumple: SI; count: 13" role="graphics-symbol" aria-roledescription="bar" d="M141,144h18v156h-18Z" fill="#ff7f0e"/><path aria-label="País: México; Proporción: 46%; Cumple: NO; cumple: NO; count: 127" role="graphics-symbol" aria-roledescription="bar" d="M41,0h18v139.05109489051097h-18Z" fill="#1f77b4"/><path aria-label="País: México; Proporción: 54%; Cumple: SI; cumple: SI; count: 147" role="graphics-symbol" aria-roledescription="bar" d="M41,139.05109489051097h18v160.94890510948903h-18Z" fill="#ff7f0e"/><path aria-label="País: Paraguay; Proporción: 56%; Cumple: NO; cumple: NO; count: 9" role="graphics-symbol" aria-roledescription="bar" d="M161,0h18v168.75h-18Z" fill="#1f77b4"/><path aria-label="País: Paraguay; Proporción: 44%; Cumple: SI; cumple: SI; count: 7" role="graphics-symbol" aria-roledescription="bar" d="M161,168.75h18v131.25h-18Z" fill="#ff7f0e"/><path aria-label="País: Perú; Proporción: 86%; Cumple: NO; cumple: NO; count: 120" role="graphics-symbol" aria-roledescription="bar" d="M61,0h18v258.9928057553957h-18Z" fill="#1f77b4"/><path aria-label="País: Perú; Proporción: 14%; Cumple: SI; cumple: SI; count: 19" role="graphics-symbol" aria-roledescription="bar" d="M61,258.9928057553957h18v41.00719424460431h-18Z" fill="#ff7f0e"/></g><g class="mark-group role-legend" role="graphics-symbol" aria-roledescription="legend" aria-label="Symbol legend titled 'Cumple' for fill color with 2 values: NO, SI"><g transform="translate(198,0)"><path class="background" aria-hidden="true" d="M0,0h43v41h-43Z" pointer-events="none"/><g><g class="mark-group role-legend-entry"><g transform="translate(0,17)"><path class="background" aria-hidden="true" d="M0,0h0v0h0Z" pointer-events="none"/><g><g class="mark-group role-scope" role="graphics-object" aria-roledescription="group mark container"><g transform="translate(0,0)"><path class="background" aria-hidden="true" d="M0,0h33.21500015258789v11h-33.21500015258789Z" pointer-events="none" opacity="1"/><g><g class="mark-symbol role-legend-symbol" pointer-events="none"><path transform="translate(6,6)" d="M-5,-5h10v10h-10Z" fill="#1f77b4" stroke-width="1.5" opacity="1"/></g><g class="mark-text role-legend-label" pointer-events="none"><text text-anchor="start" transform="translate(16,9)" font-family="Jost, Arial, sans-serif" font-size="11px" fill="#000" opacity="1">NO</text></g></g><path class="foreground" aria-hidden="true" d="" pointer-events="none" display="none"/></g><g transform="translate(0,13)"><path class="background" aria-hidden="true" d="M0,0h33.21500015258789v11h-33.21500015258789Z" pointer-events="none" opacity="1"/><g><g class="mark-symbol role-legend-symbol" pointer-events="none"><path transform="translate(6,6)" d="M-5,-5h10v10h-10Z" fill="#ff7f0e" stroke-width="1.5" opacity="1"/></g><g class="mark-text role-legend-label" pointer-events="none"><text text-anchor="start" transform="translate(16,9)" font-family="Jost, Arial, sans-serif" font-size="11px" fill="#000" opacity="1">SI</text></g></g><path class="foreground" aria-hidden="true" d="" pointer-events="none" display="none"/></g></g></g><path class="foreground" aria-hidden="true" d="" pointer-events="none" display="none"/></g></g><g class="mark-text role-legend-title" pointer-events="none"><text text-anchor="start" transform="translate(0,9)" font-family="Jost, Arial, sans-serif" font-size="12px" font-weight="bold" fill="#000" opacity="1">Cumple</text></g></g><path class="foreground" aria-hidden="true" d="" pointer-events="none" display="none"/></g></g><g class="mark-group role-title"><g transform="translate(-50.4109992980957,-26)"><path class="background" aria-hidden="true" d="M0,0h0v0h0Z" pointer-events="none"/><g><g class="mark-text role-title-text" role="graphics-symbol" aria-roledescription="title" aria-label="Title text 'Cumplimiento del test (proyectos)'" pointer-events="none"><text text-anchor="start" transform="translate(0,13)" font-family="Jost, Arial, sans-serif" font-size="16px" font-weight="bold" fill="#111" opacity="1">Cumplimiento del test (proyectos)</text></g></g><path class="foreground" aria-hidden="true" d="" pointer-events="none" display="none"/></g></g></g><path class="foreground" aria-hidden="true" d="" display="none"/></g></g></g></svg>