<?xml version="1.0" encoding="UTF-8" standalone="no"?>
<!-- Created with Inkscape (http://www.inkscape.org/) -->

<svg
   width="363.54483"
   height="156.75786"
   viewBox="0 0 96.187897 41.475516"
   version="1.1"
   id="svg1"
   inkscape:version="1.4 (e7c3feb1, 2024-10-09)"
   sodipodi:docname="LOGO CELE_2025_rojo.svg"
   xmlns:inkscape="http://www.inkscape.org/namespaces/inkscape"
   xmlns:sodipodi="http://sodipodi.sourceforge.net/DTD/sodipodi-0.dtd"
   xmlns="http://www.w3.org/2000/svg"
   xmlns:svg="http://www.w3.org/2000/svg">
  <sodipodi:namedview
     id="namedview1"
     pagecolor="#ffffff"
     bordercolor="#000000"
     borderopacity="0.25"
     inkscape:showpageshadow="2"
     inkscape:pageopacity="0.0"
     inkscape:pagecheckerboard="0"
     inkscape:deskcolor="#d1d1d1"
     inkscape:document-units="mm"
     inkscape:zoom="0.52410024"
     inkscape:cx="686.8915"
     inkscape:cy="520.89272"
     inkscape:window-width="1472"
     inkscape:window-height="891"
     inkscape:window-x="0"
     inkscape:window-y="37"
     inkscape:window-maximized="0"
     inkscape:current-layer="layer1" />
  <defs
     id="defs1">
    <clipPath
       clipPathUnits="userSpaceOnUse"
       id="clipPath276">
      <path
         d="M 0,841.89 H 595.28 V 0 H 0 Z"
         transform="translate(-238.06101,-215.6602)"
         id="path276" />
    </clipPath>
    <clipPath
       clipPathUnits="userSpaceOnUse"
       id="clipPath278">
      <path
         d="M 0,841.89 H 595.28 V 0 H 0 Z"
         transform="translate(-232.39501,-185.4639)"
         id="path278" />
    </clipPath>
    <clipPath
       clipPathUnits="userSpaceOnUse"
       id="clipPath280">
      <path
         d="M 0,841.89 H 595.28 V 0 H 0 Z"
         transform="translate(-255.37941,-242.4229)"
         id="path280" />
    </clipPath>
    <clipPath
       clipPathUnits="userSpaceOnUse"
       id="clipPath282">
      <path
         d="M 0,841.89 H 595.28 V 0 H 0 Z"
         transform="translate(-321.51171,-218.3965)"
         id="path282" />
    </clipPath>
    <clipPath
       clipPathUnits="userSpaceOnUse"
       id="clipPath284">
      <path
         d="M 0,841.89 H 595.28 V 0 H 0 Z"
         transform="translate(-351.92581,-218.16601)"
         id="path284" />
    </clipPath>
    <clipPath
       clipPathUnits="userSpaceOnUse"
       id="clipPath286">
      <path
         d="M 0,841.89 H 595.28 V 0 H 0 Z"
         transform="translate(-382.11331,-218.0488)"
         id="path286" />
    </clipPath>
    <clipPath
       clipPathUnits="userSpaceOnUse"
       id="clipPath290">
      <path
         d="M 0,841.89 H 595.28 V 0 H 0 Z"
         transform="translate(-297.40971,-196.75)"
         id="path290" />
    </clipPath>
    <clipPath
       clipPathUnits="userSpaceOnUse"
       id="clipPath292">
      <path
         d="M 0,841.89 H 595.28 V 0 H 0 Z"
         transform="translate(-301.21091,-198.67971)"
         id="path292" />
    </clipPath>
    <clipPath
       clipPathUnits="userSpaceOnUse"
       id="clipPath294">
      <path
         d="M 0,841.89 H 595.28 V 0 H 0 Z"
         transform="translate(-306.84961,-196.0273)"
         id="path294" />
    </clipPath>
    <clipPath
       clipPathUnits="userSpaceOnUse"
       id="clipPath296">
      <path
         d="M 0,841.89 H 595.28 V 0 H 0 Z"
         transform="translate(-310.51371,-196.65231)"
         id="path296" />
    </clipPath>
    <clipPath
       clipPathUnits="userSpaceOnUse"
       id="clipPath298">
      <path
         d="M 0,841.89 H 595.28 V 0 H 0 Z"
         transform="translate(-314.09961,-200.332)"
         id="path298" />
    </clipPath>
    <clipPath
       clipPathUnits="userSpaceOnUse"
       id="clipPath300">
      <path
         d="M 0,841.89 H 595.28 V 0 H 0 Z"
         transform="translate(-318.00201,-198.15621)"
         id="path300" />
    </clipPath>
    <clipPath
       clipPathUnits="userSpaceOnUse"
       id="clipPath302">
      <path
         d="M 0,841.89 H 595.28 V 0 H 0 Z"
         transform="translate(-327.02731,-196.9297)"
         id="path302" />
    </clipPath>
    <clipPath
       clipPathUnits="userSpaceOnUse"
       id="clipPath304">
      <path
         d="M 0,841.89 H 595.28 V 0 H 0 Z"
         transform="translate(-331.91991,-198.67971)"
         id="path304" />
    </clipPath>
    <clipPath
       clipPathUnits="userSpaceOnUse"
       id="clipPath306">
      <path
         d="M 0,841.89 H 595.28 V 0 H 0 Z"
         transform="translate(-341.67191,-196.7148)"
         id="path306" />
    </clipPath>
    <clipPath
       clipPathUnits="userSpaceOnUse"
       id="clipPath308">
      <path
         d="M 0,841.89 H 595.28 V 0 H 0 Z"
         transform="translate(-345.43951,-197.2578)"
         id="path308" />
    </clipPath>
    <clipPath
       clipPathUnits="userSpaceOnUse"
       id="clipPath310">
      <path
         d="M 0,841.89 H 595.28 V 0 H 0 Z"
         transform="translate(-348.92971,-196.65231)"
         id="path310" />
    </clipPath>
    <clipPath
       clipPathUnits="userSpaceOnUse"
       id="clipPath312">
      <path
         d="M 0,841.89 H 595.28 V 0 H 0 Z"
         transform="translate(-353.59771,-196.0332)"
         id="path312" />
    </clipPath>
    <clipPath
       clipPathUnits="userSpaceOnUse"
       id="clipPath314">
      <path
         d="M 0,841.89 H 595.28 V 0 H 0 Z"
         transform="translate(-357.92381,-196.9297)"
         id="path314" />
    </clipPath>
    <clipPath
       clipPathUnits="userSpaceOnUse"
       id="clipPath316">
      <path
         d="M 0,841.89 H 595.28 V 0 H 0 Z"
         transform="translate(-360.86911,-201.69141)"
         id="path316" />
    </clipPath>
    <clipPath
       clipPathUnits="userSpaceOnUse"
       id="clipPath318">
      <path
         d="M 0,841.89 H 595.28 V 0 H 0 Z"
         transform="translate(-365.22461,-198.15621)"
         id="path318" />
    </clipPath>
    <clipPath
       clipPathUnits="userSpaceOnUse"
       id="clipPath320">
      <path
         d="M 0,841.89 H 595.28 V 0 H 0 Z"
         transform="translate(-369.92381,-197.2578)"
         id="path320" />
    </clipPath>
    <clipPath
       clipPathUnits="userSpaceOnUse"
       id="clipPath322">
      <path
         d="M 0,841.89 H 595.28 V 0 H 0 Z"
         transform="translate(-377.91801,-198.67971)"
         id="path322" />
    </clipPath>
    <clipPath
       clipPathUnits="userSpaceOnUse"
       id="clipPath324">
      <path
         d="M 0,841.89 H 595.28 V 0 H 0 Z"
         transform="translate(-383.55271,-196.0273)"
         id="path324" />
    </clipPath>
    <clipPath
       clipPathUnits="userSpaceOnUse"
       id="clipPath326">
      <path
         d="M 0,841.89 H 595.28 V 0 H 0 Z"
         transform="translate(-392.60351,-196.6953)"
         id="path326" />
    </clipPath>
    <clipPath
       clipPathUnits="userSpaceOnUse"
       id="clipPath328">
      <path
         d="M 0,841.89 H 595.28 V 0 H 0 Z"
         transform="translate(-394.31641,-201.69141)"
         id="path328" />
    </clipPath>
    <clipPath
       clipPathUnits="userSpaceOnUse"
       id="clipPath330">
      <path
         d="M 0,841.89 H 595.28 V 0 H 0 Z"
         transform="translate(-398.62701,-198.24801)"
         id="path330" />
    </clipPath>
    <clipPath
       clipPathUnits="userSpaceOnUse"
       id="clipPath332">
      <path
         d="M 0,841.89 H 595.28 V 0 H 0 Z"
         transform="translate(-403.43751,-198.67971)"
         id="path332" />
    </clipPath>
    <clipPath
       clipPathUnits="userSpaceOnUse"
       id="clipPath334">
      <path
         d="M 0,841.89 H 595.28 V 0 H 0 Z"
         transform="translate(-407.97461,-200.332)"
         id="path334" />
    </clipPath>
    <clipPath
       clipPathUnits="userSpaceOnUse"
       id="clipPath346">
      <path
         d="M 0,841.89 H 595.28 V 0 H 0 Z"
         transform="translate(-297.09331,-185.584)"
         id="path346" />
    </clipPath>
    <clipPath
       clipPathUnits="userSpaceOnUse"
       id="clipPath348">
      <path
         d="M 0,841.89 H 595.28 V 0 H 0 Z"
         transform="translate(-301.81051,-184.8984)"
         id="path348" />
    </clipPath>
    <clipPath
       clipPathUnits="userSpaceOnUse"
       id="clipPath350">
      <path
         d="M 0,841.89 H 595.28 V 0 H 0 Z"
         transform="translate(-305.96481,-187.1191)"
         id="path350" />
    </clipPath>
    <clipPath
       clipPathUnits="userSpaceOnUse"
       id="clipPath352">
      <path
         d="M 0,841.89 H 595.28 V 0 H 0 Z"
         transform="translate(-310.55271,-189.20121)"
         id="path352" />
    </clipPath>
    <clipPath
       clipPathUnits="userSpaceOnUse"
       id="clipPath354">
      <path
         d="M 0,841.89 H 595.28 V 0 H 0 Z"
         transform="translate(-314.05661,-187.5508)"
         id="path354" />
    </clipPath>
    <clipPath
       clipPathUnits="userSpaceOnUse"
       id="clipPath356">
      <path
         d="M 0,841.89 H 595.28 V 0 H 0 Z"
         transform="translate(-318.73631,-186.13281)"
         id="path356" />
    </clipPath>
    <clipPath
       clipPathUnits="userSpaceOnUse"
       id="clipPath358">
      <path
         d="M 0,841.89 H 595.28 V 0 H 0 Z"
         transform="translate(-320.75591,-190.5645)"
         id="path358" />
    </clipPath>
    <clipPath
       clipPathUnits="userSpaceOnUse"
       id="clipPath360">
      <path
         d="M 0,841.89 H 595.28 V 0 H 0 Z"
         transform="translate(-325.42381,-191.28711)"
         id="path360" />
    </clipPath>
    <clipPath
       clipPathUnits="userSpaceOnUse"
       id="clipPath362">
      <path
         d="M 0,841.89 H 595.28 V 0 H 0 Z"
         transform="translate(-330.78711,-184.8984)"
         id="path362" />
    </clipPath>
    <clipPath
       clipPathUnits="userSpaceOnUse"
       id="clipPath364">
      <path
         d="M 0,841.89 H 595.28 V 0 H 0 Z"
         transform="translate(-337.49801,-189.20121)"
         id="path364" />
    </clipPath>
    <clipPath
       clipPathUnits="userSpaceOnUse"
       id="clipPath366">
      <path
         d="M 0,841.89 H 595.28 V 0 H 0 Z"
         transform="translate(-343.63671,-187.3984)"
         id="path366" />
    </clipPath>
    <clipPath
       clipPathUnits="userSpaceOnUse"
       id="clipPath368">
      <path
         d="M 0,841.89 H 595.28 V 0 H 0 Z"
         transform="translate(-349.31251,-185.59371)"
         id="path368" />
    </clipPath>
    <clipPath
       clipPathUnits="userSpaceOnUse"
       id="clipPath370">
      <path
         d="M 0,841.89 H 595.28 V 0 H 0 Z"
         transform="translate(-353.50201,-185.59371)"
         id="path370" />
    </clipPath>
    <clipPath
       clipPathUnits="userSpaceOnUse"
       id="clipPath372">
      <path
         d="M 0,841.89 H 595.28 V 0 H 0 Z"
         transform="translate(-357.35161,-187.5508)"
         id="path372" />
    </clipPath>
    <clipPath
       clipPathUnits="userSpaceOnUse"
       id="clipPath374">
      <path
         d="M 0,841.89 H 595.28 V 0 H 0 Z"
         transform="translate(-362.03121,-186.13281)"
         id="path374" />
    </clipPath>
    <clipPath
       clipPathUnits="userSpaceOnUse"
       id="clipPath376">
      <path
         d="M 0,841.89 H 595.28 V 0 H 0 Z"
         transform="translate(-366.39061,-187.0273)"
         id="path376" />
    </clipPath>
    <clipPath
       clipPathUnits="userSpaceOnUse"
       id="clipPath378">
      <path
         d="M 0,841.89 H 595.28 V 0 H 0 Z"
         transform="translate(-372.83201,-185.7793)"
         id="path378" />
    </clipPath>
    <clipPath
       clipPathUnits="userSpaceOnUse"
       id="clipPath380">
      <path
         d="M 0,841.89 H 595.28 V 0 H 0 Z"
         transform="translate(-377.66991,-184.8984)"
         id="path380" />
    </clipPath>
    <clipPath
       clipPathUnits="userSpaceOnUse"
       id="clipPath382">
      <path
         d="M 0,841.89 H 595.28 V 0 H 0 Z"
         transform="translate(-381.51951,-185.7793)"
         id="path382" />
    </clipPath>
    <clipPath
       clipPathUnits="userSpaceOnUse"
       id="clipPath384">
      <path
         d="M 0,841.89 H 595.28 V 0 H 0 Z"
         transform="translate(-386.59371,-184.8984)"
         id="path384" />
    </clipPath>
    <clipPath
       clipPathUnits="userSpaceOnUse"
       id="clipPath386">
      <path
         d="M 0,841.89 H 595.28 V 0 H 0 Z"
         transform="translate(-391.87111,-184.8984)"
         id="path386" />
    </clipPath>
    <clipPath
       clipPathUnits="userSpaceOnUse"
       id="clipPath388">
      <path
         d="M 0,841.89 H 595.28 V 0 H 0 Z"
         transform="translate(-395.60741,-191.3301)"
         id="path388" />
    </clipPath>
    <clipPath
       clipPathUnits="userSpaceOnUse"
       id="clipPath390">
      <path
         d="M 0,841.89 H 595.28 V 0 H 0 Z"
         transform="translate(-399.55661,-187.0273)"
         id="path390" />
    </clipPath>
    <clipPath
       clipPathUnits="userSpaceOnUse"
       id="clipPath392">
      <path
         d="M 0,841.89 H 595.28 V 0 H 0 Z"
         transform="translate(-404.12701,-189.20121)"
         id="path392" />
    </clipPath>
    <clipPath
       clipPathUnits="userSpaceOnUse"
       id="clipPath258-8">
      <path
         d="M 0,841.89 H 595.28 V 0 H 0 Z"
         id="path258-0" />
    </clipPath>
  </defs>
  <g
     inkscape:label="Layer 1"
     inkscape:groupmode="layer"
     id="layer1"
     transform="translate(1791.794,497.54108)">
    <g
       id="g2"
       transform="matrix(0.02535539,0,0,0.02535539,-1746.3624,-484.20892)">
      <path
         id="path257-6"
         d="m 391.041,40.351 h -218 v 94 h 218 z"
         style="fill:#ad2b25;fill-opacity:1;fill-rule:nonzero;stroke:none"
         transform="matrix(17.40178,0,0,-17.40178,-4803.0154,1812.1348)"
         clip-path="url(#clipPath258-8)" />
      <g
         id="g1"
         transform="translate(-143.59579,1708.3563)">
        <path
           id="path275"
           d="M 0,0 C -0.23,0.051 -0.464,0.093 -0.705,0.117 Z"
           style="fill:#ffffff;fill-opacity:1;fill-rule:nonzero;stroke:none"
           transform="matrix(16.175606,0,0,-16.175606,-460.37932,-1579.0447)"
           clip-path="url(#clipPath276)" />
        <path
           id="path330-8"
           style="fill:#f9f9f9;fill-opacity:1;fill-rule:nonzero;stroke:none;stroke-width:12.0977"
           d="m -899.36397,-1162.5624 c -184.68333,-18.4368 -319.31863,-182.2758 -300.65183,-365.9551 23.2518,-229.5779 229.14234,-396.9615 459.99049,-373.9396 47.96731,4.7665 93.75709,15.9689 136.66754,32.4097 l 32.14368,-192.8009 -718.73601,1.8389 -7.5127,1062.61264 619.87368,-3.91964 10.81529,-254.1966 c -55.28636,65.2186 -140.86547,103.1207 -232.59014,93.9506" />
        <path
           id="path332-0"
           style="fill:#f9f9f9;fill-opacity:1;fill-rule:nonzero;stroke:none;stroke-width:12.0977"
           d="m -621.31063,-1851.6105 c -40.59984,-15.594 -83.8854,-26.1795 -129.25179,-30.716 -218.32702,-21.7397 -413.06358,136.5707 -435.04498,353.7122 -17.6748,173.7108 109.6898,328.6701 284.34409,346.1029 86.76462,8.6498 167.7224,-27.1715 219.98433,-88.8335 31.90165,-37.6721 53.15737,-84.8774 58.45613,-137.5748 11.29923,-111.1415 -70.22716,-210.3305 -181.93724,-221.4846 -89.51075,-8.8796 -169.27088,55.9518 -178.29578,144.882 -7.13757,71.1707 44.97927,134.5868 116.47662,141.7245 57.23423,5.7221 108.32266,-35.7245 114.12962,-92.7168 4.58506,-45.4994 -28.82881,-86.0992 -74.57019,-90.7327 l -3.78655,-0.6175 c 34.82928,7.7547 59.16984,40.3095 55.47998,76.5664 -4.96004,48.8625 -48.8625,84.5385 -98.00343,79.5785 -61.38363,-6.0488 -106.18141,-60.5851 -100.04786,-121.739 7.7063,-76.409 76.37272,-132.131 153.12043,-124.4731 96.01942,9.6418 166.00455,94.7975 156.36276,190.3087 -12.09774,119.368 -119.17447,206.4108 -239.20774,194.4099 -150.08387,-14.8922 -259.43497,-148.0515 -244.36117,-297.1919 18.8966,-186.619 186.23186,-322.6212 373.84285,-303.9544 234.39267,23.3848 405.321,231.3684 381.69414,464.5271 -29.49412,291.4334 -291.00988,503.98974 -584.0039,474.78594 l -10.1136,106.0968 c 341.10642,34.0671 645.53275,-213.36704 679.84182,-552.62254 22.96144,-226.3115 -111.62539,-432.069 -315.10854,-510.0386" />
        <rect
           style="font-variation-settings:normal;vector-effect:none;fill:#000000;fill-opacity:0;fill-rule:evenodd;stroke:none;stroke-width:0;stroke-linecap:butt;stroke-linejoin:miter;stroke-miterlimit:4;stroke-dasharray:none;stroke-dashoffset:0;stroke-opacity:1;paint-order:markers fill stroke;stop-color:#000000"
           id="rect77"
           width="3238.2773"
           height="1449.1602"
           x="-1370.5428"
           y="-2140.8645" />
        <g
           id="g209"
           style="fill:#f9f9f9"
           transform="matrix(12.131705,0,0,12.131705,-1368.0614,-2138.3831)">
          <path
             id="path3-2"
             d="m 132.80199,66.66011 -0.45647,5.230973 c -2.87763,0.865357 -6.02062,1.297609 -9.41071,1.297609 -8.04981,0 -14.09355,-2.205814 -18.13963,-6.608922 -4.04742,-4.412602 -6.073082,-9.799994 -6.073082,-16.167288 0,-6.670759 2.254382,-12.415176 6.776292,-17.250049 4.51753,-4.831586 10.58441,-7.247501 18.21182,-7.247501 2.10587,0 4.32617,0.318559 6.67064,0.951418 l -0.98843,5.577529 c -2.67677,-0.846855 -5.08818,-1.264256 -7.18919,-1.264256 -5.66883,0 -9.9524,1.758833 -12.88237,5.267977 -2.92899,3.504398 -4.38825,7.802942 -4.38825,12.881147 0,5.168649 1.68847,9.604623 5.0541,13.300131 3.37671,3.69417 8.02668,5.548072 13.9706,5.548072 2.26778,0 5.216,-0.513566 8.84468,-1.51684"
             style="fill:#f9f9f9;fill-opacity:1;fill-rule:nonzero;stroke:none;stroke-width:0.121727" />
          <path
             id="path4-4"
             d="m 169.82403,66.941665 -0.21424,5.30133 H 141.3314 c 0.3238,-7.256631 0.48569,-15.25397 0.48569,-24.00833 0,-8.229838 -0.16189,-15.463097 -0.48569,-21.691622 h 26.52309 l -0.27023,5.235233 c -6.44301,-0.281068 -13.25729,-0.418984 -20.46109,-0.418984 0.14242,3.619064 0.2045,8.520887 0.2045,14.707173 6.2239,0 11.76857,-0.146925 16.63277,-0.423732 v 5.22233 c -5.188,-0.204379 -10.73144,-0.309065 -16.63277,-0.309065 0,6.009417 0.10469,11.649271 0.31893,16.912501 7.76496,0 15.16352,-0.175044 22.17743,-0.526834"
             style="fill:#f9f9f9;fill-opacity:1;fill-rule:nonzero;stroke:none;stroke-width:0.121727" />
          <path
             id="path5-8"
             d="m 206.56488,67.083842 -0.2045,5.159153 h -27.61133 c 0.27511,-5.777283 0.40901,-13.779978 0.40901,-24.00833 0,-8.796233 -0.1339,-16.019389 -0.40901,-21.686875 h 6.51361 c -0.2751,4.731162 -0.41387,11.958213 -0.41387,21.686875 0,8.006835 -0.13268,14.412351 -0.38953,19.233834 7.01878,0 14.38813,-0.127935 22.10562,-0.384657"
             style="fill:#f9f9f9;fill-opacity:1;fill-rule:nonzero;stroke:none;stroke-width:0.121727" />
          <path
             id="path6-3"
             d="m 242.44147,66.941665 -0.21911,5.30133 h -28.28204 c 0.32744,-7.256631 0.48934,-15.25397 0.48934,-24.00833 0,-8.229838 -0.1619,-15.463097 -0.48934,-21.691622 h 26.53282 l -0.28606,5.235233 c -6.4284,-0.281068 -13.25119,-0.418984 -20.45986,-0.418984 0.14242,3.619064 0.21789,8.520887 0.21789,14.707173 6.22025,0 11.76369,-0.146925 16.62912,-0.423732 v 5.22233 c -5.18801,-0.204379 -10.74241,-0.309065 -16.62912,-0.309065 0,6.009417 0.0949,11.649271 0.30432,16.912501 7.76983,0 15.16839,-0.175044 22.19204,-0.526834"
             style="fill:#f9f9f9;fill-opacity:1;fill-rule:nonzero;stroke:none;stroke-width:0.121727" />
          <g
             id="g69"
             transform="matrix(0.60296598,0,0,0.60296598,29.060359,35.032825)"
             style="fill:#f9f9f9">
            <path
               id="path7-9"
               d="m 128.38546,82.097335 -0.0787,0.8948 c -0.4948,0.1516 -1.036,0.224 -1.6136,0.224 -1.3812,0 -2.42814,-0.380134 -3.12494,-1.134934 -0.69893,-0.761466 -1.04693,-1.688 -1.04693,-2.781199 0,-1.150534 0.39067,-2.1412 1.16667,-2.969334 0.776,-0.833333 1.8224,-1.249466 3.1292,-1.249466 0.3708,0 0.75626,0.05733 1.15626,0.166666 l -0.17613,0.962534 c -0.4692,-0.145334 -0.88013,-0.224 -1.22907,-0.224 -0.9896,0 -1.72453,0.3032 -2.22973,0.9068 -0.48907,0.609466 -0.75467,1.338533 -0.75467,2.2188 0,0.885333 0.2964,1.646799 0.8692,2.292133 0.58814,0.636 1.38547,0.9532 2.41627,0.9532 0.39053,0 0.89573,-0.09333 1.51613,-0.26"
               style="fill:#f9f9f9;fill-opacity:1;fill-rule:nonzero;stroke:none;stroke-width:0.133333" />
            <path
               id="path8-0"
               d="m 133.45866,79.524002 c 0,-1.136 -0.48,-1.698534 -1.41746,-1.698534 -0.96254,0 -1.536,0.589067 -1.70787,1.760934 z m 1.01467,-0.01613 c 0,0.1724 -0.009,0.401467 -0.0307,0.708267 l -4.14533,0.06253 c 0.036,0.5896 0.26,1.0896 0.68653,1.485333 0.4068,0.3948 0.9588,0.593334 1.65214,0.593334 0.60413,0 1.17066,-0.07867 1.708,-0.2292 l -0.104,0.854666 c -0.396,0.155734 -0.964,0.233334 -1.704,0.233334 -1.05214,0 -1.8428,-0.285467 -2.39587,-0.8536 -0.54693,-0.567734 -0.8172,-1.2652 -0.8172,-2.094267 0,-0.880266 0.2344,-1.629733 0.7396,-2.2656 0.51093,-0.6292 1.1828,-0.9532 2.02547,-0.9532 0.776,0 1.37066,0.2292 1.772,0.6932 0.40533,0.4532 0.61333,1.046934 0.61333,1.7652"
               style="fill:#f9f9f9;fill-opacity:1;fill-rule:nonzero;stroke:none;stroke-width:0.133333" />
            <path
               id="path9-5"
               d="M 140.97333,83.059868 H 139.88 c 0.084,-1.067733 0.13066,-2.218667 0.13066,-3.473466 0,-0.614534 -0.13066,-1.042667 -0.38533,-1.266667 -0.24533,-0.233333 -0.604,-0.342667 -1.07333,-0.342667 -0.568,0 -1.09334,0.2084 -1.58267,0.620267 0,1.369333 0.004,2.864133 0.0253,4.462533 H 135.896 c 0.068,-1.364 0.0987,-2.364 0.0987,-2.973467 0,-0.942666 -0.088,-1.854666 -0.26,-2.745199 l 1.052,-0.150534 0.12,0.74 h 0.0573 c 0.59333,-0.537466 1.22933,-0.813466 1.90533,-0.813466 0.672,0 1.188,0.151066 1.54667,0.447866 0.376,0.292267 0.55733,0.822934 0.55733,1.578667 0,0.0776 0,0.224533 -0.009,0.4536 -0.016,0.2224 -0.016,0.369333 -0.016,0.452133 0,0.666667 0.0107,1.677067 0.0253,3.0104"
               style="fill:#f9f9f9;fill-opacity:1;fill-rule:nonzero;stroke:none;stroke-width:0.133333" />
            <path
               id="path10-2"
               d="m 145.86,82.226535 -0.0733,0.781333 c -0.31333,0.115067 -0.604,0.1828 -0.896,0.1828 -0.724,0 -1.21866,-0.193333 -1.484,-0.567733 -0.27066,-0.364134 -0.396,-1.016134 -0.396,-1.969867 0,-0.618133 0.0107,-1.421333 0.0107,-2.4104 -0.224,0 -0.56267,0.0052 -0.99467,0.0308 l 0.036,-0.875066 c 0.38,0.02707 0.724,0.04173 1.02534,0.04173 0,-0.244267 0.0267,-0.8172 0.0573,-1.724 l 0.95333,-0.0932 c -0.0773,0.848933 -0.0987,1.453067 -0.0987,1.8172 0.39066,0 0.96933,-0.0204 1.72933,-0.06307 l -0.0413,0.8964 c -0.71867,-0.0256 -1.29734,-0.0308 -1.74534,-0.0308 -0.016,0.614667 -0.016,1.292267 -0.016,2.052133 0,0.828134 0.0947,1.379734 0.276,1.645334 0.16667,0.266666 0.49467,0.4068 0.96934,0.4068 0.156,0 0.38533,-0.04173 0.688,-0.1204"
               style="fill:#f9f9f9;fill-opacity:1;fill-rule:nonzero;stroke:none;stroke-width:0.133333" />
            <path
               id="path11-2"
               d="m 150.64,77.319735 -0.27067,0.953733 c -0.32267,-0.1204 -0.60933,-0.181333 -0.88,-0.181333 -0.74933,0 -1.244,0.3584 -1.468,1.0772 0,1.854666 0.009,3.1468 0.036,3.890533 h -1.068 c 0.0627,-1.2864 0.0933,-2.276 0.0933,-2.973467 0,-0.963466 -0.0933,-1.865066 -0.28,-2.745199 l 1.052,-0.150534 c 0.072,0.447867 0.11867,0.74 0.11867,0.885334 h 0.048 c 0.432,-0.635867 0.94267,-0.9588 1.52,-0.9588 0.308,0 0.67733,0.07347 1.09867,0.202533"
               style="fill:#f9f9f9;fill-opacity:1;fill-rule:nonzero;stroke:none;stroke-width:0.133333" />
            <path
               id="path12-7"
               d="m 155.844,80.221335 c 0,-0.624 -0.15067,-1.1812 -0.46934,-1.6776 -0.32266,-0.489067 -0.77066,-0.738533 -1.348,-0.738533 -0.584,0 -1.032,0.238533 -1.33333,0.702666 -0.32933,0.464 -0.47467,1 -0.47467,1.615067 0,0.624933 0.16134,1.182266 0.47467,1.677066 0.30667,0.4896 0.76533,0.724 1.35333,0.724 0.58934,0 1.02134,-0.224 1.33334,-0.693333 0.31333,-0.468133 0.464,-1.0052 0.464,-1.609333 m 1.04666,-0.213467 c 0,1.032267 -0.292,1.844267 -0.88533,2.4176 -0.584,0.571867 -1.28667,0.864133 -2.088,0.864133 -0.74533,0 -1.39067,-0.2604 -1.93333,-0.7656 -0.54134,-0.5104 -0.80134,-1.2344 -0.80134,-2.161466 0,-1.0428 0.296,-1.843733 0.89067,-2.431867 0.588,-0.583733 1.29067,-0.876 2.088,-0.876 0.75067,0 1.39067,0.261467 1.92133,0.776 0.532,0.510534 0.808,1.240134 0.808,2.1772"
               style="fill:#f9f9f9;fill-opacity:1;fill-rule:nonzero;stroke:none;stroke-width:0.133333" />
          </g>
          <g
             id="g68"
             transform="matrix(0.60296598,0,0,0.60296598,27.987833,35.032825)"
             style="fill:#f9f9f9">
            <path
               id="path13-3"
               d="m 167.87466,81.857335 c 0,-1.245334 -0.0253,-2.458933 -0.0987,-3.614667 -0.328,-0.2656 -0.73467,-0.406666 -1.21867,-0.406666 -0.68267,0 -1.19333,0.2348 -1.52667,0.6828 -0.33333,0.453066 -0.504,1.016133 -0.504,1.697333 0,0.614533 0.156,1.1308 0.47867,1.557333 0.312,0.4172 0.76,0.619733 1.33867,0.619733 0.69733,0 1.224,-0.177066 1.53066,-0.535866 m 0.98,1.192133 -0.896,0.03693 c -0.0373,-0.182266 -0.0467,-0.370266 -0.0467,-0.5624 h -0.0733 c -0.42266,0.4588 -1.04133,0.692134 -1.88,0.692134 -0.77066,0 -1.38,-0.2812 -1.83333,-0.833334 -0.45333,-0.557333 -0.672,-1.224 -0.672,-2.009333 0,-0.887066 0.244,-1.657333 0.744,-2.297466 0.5,-0.650534 1.21867,-0.9744 2.136,-0.9744 0.64,0 1.11467,0.141066 1.39067,0.401066 h 0.052 c 0,-0.9948 -0.0307,-1.967733 -0.0827,-2.9376 l 1.15067,-0.04627 c -0.084,1.030666 -0.11467,2.364 -0.11467,4.021333 0,1.676 0.0413,3.1864 0.12533,4.509333"
               style="fill:#f9f9f9;fill-opacity:1;fill-rule:nonzero;stroke:none;stroke-width:0.133333" />
            <path
               id="path14-7"
               d="m 174.40133,79.524002 c 0,-1.136 -0.48,-1.698534 -1.42267,-1.698534 -0.968,0 -1.54133,0.589067 -1.708,1.760934 z m 1.00533,-0.01613 c 0,0.1724 -0.016,0.401467 -0.032,0.708267 l -4.14,0.06253 c 0.036,0.5896 0.26534,1.0896 0.68267,1.485333 0.41067,0.3948 0.96267,0.593334 1.65067,0.593334 0.604,0 1.17733,-0.07867 1.71333,-0.2292 l -0.0987,0.854666 c -0.39066,0.155734 -0.97466,0.233334 -1.70933,0.233334 -1.052,0 -1.84267,-0.285467 -2.39067,-0.8536 -0.556,-0.567734 -0.828,-1.2652 -0.828,-2.094267 0,-0.880266 0.25067,-1.629733 0.75067,-2.2656 0.50533,-0.6292 1.18267,-0.9532 2.016,-0.9532 0.78133,0 1.36933,0.2292 1.776,0.6932 0.4,0.4532 0.60933,1.046934 0.60933,1.7652"
               style="fill:#f9f9f9;fill-opacity:1;fill-rule:nonzero;stroke:none;stroke-width:0.133333" />
          </g>
          <g
             id="g67"
             transform="matrix(0.60296598,0,0,0.60296598,26.595306,35.032825)"
             style="fill:#f9f9f9">
            <path
               id="path15-9"
               d="m 187.40133,82.143735 -0.032,0.910933 H 182.5 c 0.0573,-1.249467 0.084,-2.624 0.084,-4.1292 0,-1.4228 -0.0267,-2.661466 -0.084,-3.7296 h 4.56266 l -0.052,0.901467 c -1.09333,-0.0536 -2.27066,-0.07333 -3.52133,-0.07333 0.0267,0.629066 0.0373,1.4588 0.0373,2.525466 1.07734,0 2.02534,-0.02547 2.864,-0.06667 v 0.890666 c -0.89066,-0.02653 -1.844,-0.05373 -2.864,-0.05373 0,1.0428 0.0253,2.010933 0.0613,2.917733 1.33333,0 2.60933,-0.03587 3.81333,-0.09373"
               style="fill:#f9f9f9;fill-opacity:1;fill-rule:nonzero;stroke:none;stroke-width:0.133333" />
            <path
               id="path16-0"
               d="m 192.42666,81.419735 c 0,1.1724 -0.74933,1.770933 -2.244,1.770933 -0.66133,0 -1.28666,-0.07867 -1.86533,-0.207867 l 0.188,-0.885466 c 0.52133,0.202666 1.09333,0.295866 1.708,0.295866 0.87467,0 1.31333,-0.249466 1.31333,-0.743733 0,-0.245333 -0.1,-0.433333 -0.29733,-0.578667 -0.19333,-0.145333 -0.516,-0.302533 -0.964,-0.478666 -0.572,-0.2296 -0.98933,-0.442667 -1.24933,-0.652 -0.376,-0.3068 -0.56267,-0.681333 -0.56267,-1.124 0,-0.4536 0.172,-0.844267 0.516,-1.1776 0.35333,-0.333333 0.86933,-0.489067 1.588,-0.489067 0.688,0 1.24533,0.05733 1.66133,0.170267 l -0.18266,0.865733 c -0.43734,-0.166666 -0.93734,-0.2548 -1.51467,-0.2548 -0.772,0 -1.16133,0.2188 -1.16133,0.666667 0,0.228133 0.088,0.405333 0.26533,0.552133 0.172,0.1344 0.5,0.301067 1.02,0.494267 0.54267,0.2188 0.94267,0.427066 1.19867,0.634933 0.39066,0.318667 0.58266,0.6984 0.58266,1.141067"
               style="fill:#f9f9f9;fill-opacity:1;fill-rule:nonzero;stroke:none;stroke-width:0.133333" />
            <path
               id="path17-2"
               d="m 197.08266,82.226535 -0.072,0.781333 c -0.31733,0.115067 -0.61466,0.1828 -0.90133,0.1828 -0.724,0 -1.208,-0.193333 -1.484,-0.567733 -0.256,-0.364134 -0.396,-1.016134 -0.396,-1.969867 0,-0.618133 0.005,-1.421333 0.0107,-2.4104 -0.224,0 -0.552,0.0052 -0.99467,0.0308 l 0.036,-0.875066 c 0.38533,0.02707 0.72933,0.04173 1.036,0.04173 0,-0.244267 0.0107,-0.8172 0.0573,-1.724 l 0.94267,-0.0932 c -0.0667,0.848933 -0.0987,1.453067 -0.0987,1.8172 0.38534,0 0.96934,-0.0204 1.74,-0.06307 l -0.0467,0.8964 c -0.724,-0.0256 -1.31334,-0.0308 -1.74534,-0.0308 -0.016,0.614667 -0.016,1.292267 -0.016,2.052133 0,0.828134 0.0947,1.379734 0.26534,1.645334 0.172,0.266666 0.50533,0.4068 0.98,0.4068 0.156,0 0.38,-0.04173 0.68666,-0.1204"
               style="fill:#f9f9f9;fill-opacity:1;fill-rule:nonzero;stroke:none;stroke-width:0.133333" />
            <path
               id="path18-3"
               d="m 203.30266,83.049468 -0.93333,0.03693 c -0.0573,-0.229066 -0.088,-0.406133 -0.088,-0.5624 h -0.052 c -0.536,0.4588 -1.19334,0.6776 -1.95334,0.6776 -0.70266,0 -1.20266,-0.166666 -1.52133,-0.4948 -0.312,-0.338533 -0.47333,-1.016133 -0.47333,-2.037466 0,-0.145334 0.005,-0.364134 0.016,-0.640134 0.005,-0.286533 0.0147,-0.485466 0.0147,-0.594266 0,-0.588 -0.036,-1.285467 -0.0987,-2.088 l 1.11467,-0.04173 c -0.0467,0.776 -0.0733,1.437466 -0.0733,1.9948 0,1.270799 0.084,2.098399 0.24,2.473466 0.16134,0.395867 0.536,0.583867 1.104,0.583867 0.652,0 1.172,-0.161467 1.59867,-0.483867 0,-2.240133 -0.0253,-3.745333 -0.0613,-4.526533 l 1.09334,-0.04173 c -0.0413,0.754666 -0.0627,1.8068 -0.0627,3.134933 0,0.859866 0.0467,1.7344 0.136,2.609333"
               style="fill:#f9f9f9;fill-opacity:1;fill-rule:nonzero;stroke:none;stroke-width:0.133333" />
            <path
               id="path19-9"
               d="m 209.07333,81.857335 c 0,-1.245334 -0.0373,-2.458933 -0.1,-3.614667 -0.32267,-0.2656 -0.728,-0.406666 -1.224,-0.406666 -0.676,0 -1.18667,0.2348 -1.52534,0.6828 -0.33866,0.453066 -0.50533,1.016133 -0.50533,1.697333 0,0.614533 0.156,1.1308 0.47467,1.557333 0.32266,0.4172 0.76533,0.619733 1.33333,0.619733 0.71867,0 1.228,-0.177066 1.54667,-0.535866 m 0.968,1.192133 -0.896,0.03693 c -0.036,-0.182266 -0.052,-0.370266 -0.052,-0.5624 h -0.0627 c -0.42667,0.4588 -1.052,0.692134 -1.88533,0.692134 -0.77067,0 -1.36934,-0.2812 -1.83334,-0.833334 -0.44266,-0.557333 -0.672,-1.224 -0.672,-2.009333 0,-0.887066 0.26134,-1.657333 0.75067,-2.297466 0.50533,-0.650534 1.21333,-0.9744 2.136,-0.9744 0.65067,0 1.11333,0.141066 1.39467,0.401066 h 0.052 c 0,-0.9948 -0.036,-1.967733 -0.088,-2.9376 l 1.14533,-0.04627 c -0.0827,1.030666 -0.11333,2.364 -0.11333,4.021333 0,1.676 0.0413,3.1864 0.124,4.509333"
               style="fill:#f9f9f9;fill-opacity:1;fill-rule:nonzero;stroke:none;stroke-width:0.133333" />
            <path
               id="path20-9"
               d="m 212.99999,75.507868 c 0,0.208267 -0.0787,0.380134 -0.20266,0.527067 -0.14134,0.155733 -0.328,0.233333 -0.55734,0.233333 -0.21333,0 -0.376,-0.06667 -0.49066,-0.192266 -0.11334,-0.141067 -0.17067,-0.2864 -0.17067,-0.478667 0,-0.198933 0.0667,-0.3812 0.208,-0.521333 0.14,-0.150534 0.32267,-0.223867 0.568,-0.223867 0.19733,0 0.35333,0.0624 0.46267,0.188 0.11466,0.1344 0.18266,0.295867 0.18266,0.467733 m -0.26,7.552 h -1.09466 c 0.0573,-0.8068 0.0893,-1.7292 0.0893,-2.765067 0,-1.161466 -0.0787,-2.141733 -0.21333,-2.932266 l 1.19733,-0.160933 c -0.0467,0.842133 -0.0627,1.8796 -0.0627,3.093199 0,0.964 0.0213,1.885467 0.084,2.765067"
               style="fill:#f9f9f9;fill-opacity:1;fill-rule:nonzero;stroke:none;stroke-width:0.133333" />
            <path
               id="path21-7"
               d="m 218.80666,80.221335 c 0,-0.624 -0.156,-1.1812 -0.47333,-1.6776 -0.32267,-0.489067 -0.77067,-0.738533 -1.35467,-0.738533 -0.57733,0 -1.02,0.238533 -1.33333,0.702666 -0.312,0.464 -0.468,1 -0.468,1.615067 0,0.624933 0.156,1.182266 0.47333,1.677066 0.32267,0.4896 0.77067,0.724 1.35467,0.724 0.58266,0 1.02533,-0.224 1.33333,-0.693333 0.31733,-0.468133 0.468,-1.0052 0.468,-1.609333 m 1.048,-0.213467 c 0,1.032267 -0.29733,1.844267 -0.89067,2.4176 -0.58933,0.571867 -1.292,0.864133 -2.09466,0.864133 -0.73867,0 -1.38534,-0.2604 -1.916,-0.7656 -0.54134,-0.5104 -0.82267,-1.2344 -0.82267,-2.161466 0,-1.0428 0.30667,-1.843733 0.90533,-2.431867 0.584,-0.583733 1.28667,-0.876 2.084,-0.876 0.744,0 1.39067,0.261467 1.92667,0.776 0.53733,0.510534 0.808,1.240134 0.808,2.1772"
               style="fill:#f9f9f9;fill-opacity:1;fill-rule:nonzero;stroke:none;stroke-width:0.133333" />
            <path
               id="path22-0"
               d="m 225.07333,81.419735 c 0,1.1724 -0.75067,1.770933 -2.25067,1.770933 -0.65067,0 -1.28133,-0.07867 -1.85333,-0.207867 l 0.18666,-0.885466 c 0.52134,0.202666 1.08934,0.295866 1.704,0.295866 0.87467,0 1.31734,-0.249466 1.31734,-0.743733 0,-0.245333 -0.0987,-0.433333 -0.29734,-0.578667 -0.19733,-0.145333 -0.516,-0.302533 -0.968,-0.478666 -0.57333,-0.2296 -0.98,-0.442667 -1.24,-0.652 -0.38533,-0.3068 -0.568,-0.681333 -0.568,-1.124 0,-0.4536 0.16667,-0.844267 0.51067,-1.1776 0.35467,-0.333333 0.87467,-0.489067 1.588,-0.489067 0.69333,0 1.25067,0.05733 1.66133,0.170267 l -0.18133,0.865733 c -0.44267,-0.166666 -0.93333,-0.2548 -1.51067,-0.2548 -0.776,0 -1.16133,0.2188 -1.16133,0.666667 0,0.228133 0.0827,0.405333 0.25467,0.552133 0.17733,0.1344 0.51066,0.301067 1.02666,0.494267 0.536,0.2188 0.94267,0.427066 1.20267,0.634933 0.38533,0.318667 0.57867,0.6984 0.57867,1.141067"
               style="fill:#f9f9f9;fill-opacity:1;fill-rule:nonzero;stroke:none;stroke-width:0.133333" />
          </g>
          <g
             id="g66"
             transform="matrix(0.60296598,0,0,0.60296598,25.548508,34.869135)"
             style="fill:#f9f9f9">
            <path
               id="path23-3"
               d="m 235.72933,79.524002 c 0,-1.136 -0.46934,-1.698534 -1.412,-1.698534 -0.97867,0 -1.54134,0.589067 -1.708,1.760934 z m 1.01066,-0.01613 c 0,0.1724 -0.005,0.401467 -0.0267,0.708267 l -4.14534,0.06253 c 0.0413,0.5896 0.26,1.0896 0.68267,1.485333 0.416,0.3948 0.95733,0.593334 1.64533,0.593334 0.61467,0 1.192,-0.07867 1.724,-0.2292 l -0.104,0.854666 c -0.396,0.155734 -0.964,0.233334 -1.70933,0.233334 -1.04667,0 -1.848,-0.285467 -2.4,-0.8536 -0.54667,-0.567734 -0.81333,-1.2652 -0.81333,-2.094267 0,-0.880266 0.24533,-1.629733 0.74533,-2.2656 0.51067,-0.6292 1.18267,-0.9532 2.02533,-0.9532 0.772,0 1.36,0.2292 1.772,0.6932 0.4,0.4532 0.604,1.046934 0.604,1.7652"
               style="fill:#f9f9f9;fill-opacity:1;fill-rule:nonzero;stroke:none;stroke-width:0.133333" />
            <path
               id="path24-9"
               d="m 243.24533,83.059868 h -1.1 c 0.084,-1.067733 0.14133,-2.218667 0.14133,-3.473466 0,-0.614534 -0.13067,-1.042667 -0.38,-1.266667 -0.256,-0.233333 -0.60933,-0.342667 -1.07867,-0.342667 -0.57733,0 -1.104,0.2084 -1.57733,0.620267 0,1.369333 0.004,2.864133 0.0147,4.462533 h -1.088 c 0.0627,-1.364 0.0933,-2.364 0.0933,-2.973467 0,-0.942666 -0.0773,-1.854666 -0.26533,-2.745199 l 1.068,-0.150534 0.104,0.74 h 0.0627 c 0.588,-0.537466 1.22934,-0.813466 1.90534,-0.813466 0.672,0 1.188,0.151066 1.552,0.447866 0.36,0.292267 0.548,0.822934 0.548,1.578667 0,0.0776 0,0.224533 -0.005,0.4536 -0.016,0.2224 -0.016,0.369333 -0.016,0.452133 0,0.666667 0.0107,1.677067 0.0213,3.0104"
               style="fill:#f9f9f9;fill-opacity:1;fill-rule:nonzero;stroke:none;stroke-width:0.133333" />
          </g>
          <g
             id="g75"
             transform="translate(5.0718884,16)"
             style="fill:#f9f9f9">
            <path
               id="path25-8"
               d="M 172.913,68.688339 172.8945,69.2253 H 170.03 c 0.0257,-0.602966 0.041,-1.434818 0.041,-2.492903 0,-0.911041 -0.0153,-1.661854 -0.041,-2.248822 h 0.68176 c -0.0345,0.486473 -0.0499,1.237286 -0.0499,2.248822 0,0.831932 -0.0128,1.494552 -0.041,1.997023 0.7316,0 1.49455,-0.01286 2.29207,-0.04108"
               style="fill:#f9f9f9;fill-opacity:1;fill-rule:nonzero;stroke:none;stroke-width:0.0803953" />
            <path
               id="path26-6"
               d="m 174.29179,64.671701 c 0,0.125578 -0.0466,0.229207 -0.12221,0.317803 -0.0852,0.0939 -0.19777,0.140692 -0.33926,0.140692 -0.1222,0 -0.21948,-0.0402 -0.29184,-0.11593 -0.0627,-0.08506 -0.10049,-0.172689 -0.10049,-0.28862 0,-0.11995 0.0378,-0.22985 0.12541,-0.314346 0.082,-0.09077 0.19778,-0.134984 0.34249,-0.134984 0.11255,0 0.20983,0.03763 0.28219,0.113358 0.0691,0.08104 0.10371,0.178397 0.10371,0.282027 m -0.15677,4.553599 h -0.65924 c 0.0314,-0.486473 0.0499,-1.042649 0.0499,-1.667242 0,-0.700324 -0.0442,-1.291392 -0.12542,-1.768056 l 0.73161,-0.09704 c -0.0314,0.507777 -0.0475,1.133334 -0.0475,1.865093 0,0.58126 0.0161,1.136873 0.0506,1.667242"
               style="fill:#f9f9f9;fill-opacity:1;fill-rule:nonzero;stroke:none;stroke-width:0.0803953" />
            <path
               id="path27-5"
               d="m 177.75603,67.438993 c 0,-0.368372 -0.0973,-0.678618 -0.28943,-0.92704 -0.19455,-0.250914 -0.45503,-0.379386 -0.7943,-0.379386 -0.43655,0 -0.75009,0.131929 -0.93259,0.395385 0,0.863688 0.0161,1.564013 0.0531,2.100974 0.19536,0.166499 0.45263,0.248422 0.76938,0.248422 0.39314,0 0.69784,-0.138521 0.89561,-0.417976 0.20099,-0.283313 0.29827,-0.621537 0.29827,-1.020379 m 0.65281,-0.08852 c 0,0.533906 -0.16321,0.992964 -0.46469,1.378942 -0.29826,0.39225 -0.71551,0.590103 -1.2405,0.590103 -0.44861,0 -0.75009,-0.07823 -0.91088,-0.239015 h -0.0282 l -0.0941,0.144792 h -0.53061 c 0.0249,-0.844796 0.0442,-1.74611 0.0442,-2.719618 0,-0.873014 -0.0378,-1.679541 -0.11979,-2.402458 l 0.72276,-0.04397 c -0.0258,0.421192 -0.0378,1.083811 -0.0378,1.98826 h 0.0249 c 0.24199,-0.273505 0.61824,-0.411705 1.14,-0.411705 0.4462,0 0.80396,0.169554 1.08052,0.499336 0.27334,0.339108 0.41403,0.741086 0.41403,1.215338"
               style="fill:#f9f9f9;fill-opacity:1;fill-rule:nonzero;stroke:none;stroke-width:0.0803953" />
            <path
               id="path28-7"
               d="m 181.62466,67.093293 c 0,-0.68497 -0.28541,-1.024158 -0.8538,-1.024158 -0.59332,0 -0.92937,0.355187 -1.0363,1.061783 z m 0.60618,-0.0097 c 0,0.103951 -0.006,0.242071 -0.0185,0.427061 l -2.5003,0.0377 c 0.0257,0.355509 0.16642,0.656992 0.41163,0.895606 0.25485,0.238051 0.58447,0.35776 0.99529,0.35776 0.36741,0 0.71633,-0.04744 1.0363,-0.1382 l -0.0627,0.515335 c -0.23878,0.0939 -0.57724,0.140692 -1.02665,0.140692 -0.6311,0 -1.11187,-0.172127 -1.4447,-0.514692 -0.32641,-0.342324 -0.49605,-0.762872 -0.49605,-1.262772 0,-0.53077 0.15034,-0.982673 0.45505,-1.366079 0.30148,-0.379386 0.70345,-0.574747 1.21557,-0.574747 0.46469,0 0.82245,0.138199 1.07087,0.417976 0.24199,0.273264 0.36419,0.631265 0.36419,1.064355"
               style="fill:#f9f9f9;fill-opacity:1;fill-rule:nonzero;stroke:none;stroke-width:0.0803953" />
            <path
               id="path29-6"
               d="m 185.27059,65.764195 -0.16883,0.575068 c -0.18571,-0.0726 -0.36178,-0.109337 -0.52176,-0.109337 -0.45504,0 -0.7509,0.216103 -0.89159,0.649515 0,1.1183 0.009,1.897413 0.0217,2.345859 h -0.63754 c 0.0346,-0.775656 0.0539,-1.372351 0.0539,-1.7929 0,-0.580937 -0.0539,-1.124571 -0.17286,-1.655261 l 0.63754,-0.09077 c 0.0499,0.270048 0.0659,0.446195 0.0659,0.533826 h 0.0314 c 0.26692,-0.383406 0.57161,-0.578124 0.91651,-0.578124 0.18893,0 0.40841,0.0443 0.66567,0.122121"
               style="fill:#f9f9f9;fill-opacity:1;fill-rule:nonzero;stroke:none;stroke-width:0.0803953" />
            <path
               id="path30-2"
               d="m 187.7114,68.722828 -0.0475,0.471117 c -0.18812,0.06938 -0.37383,0.110223 -0.54025,0.110223 -0.43655,0 -0.73803,-0.116574 -0.89802,-0.342324 -0.15998,-0.21956 -0.24199,-0.612694 -0.24199,-1.187763 0,-0.372713 0.003,-0.857015 0.01,-1.453389 -0.13506,0 -0.33927,0.0031 -0.59975,0.01857 l 0.0249,-0.527635 c 0.22913,0.01632 0.43655,0.02516 0.61261,0.02516 0,-0.147285 0.0153,-0.492744 0.041,-1.039513 l 0.57081,-0.0562 c -0.0434,0.511878 -0.0595,0.87615 -0.0595,1.09571 0.23556,0 0.58126,-0.0123 1.04595,-0.03803 l -0.0249,0.540499 c -0.43977,-0.01544 -0.78547,-0.01857 -1.0556,-0.01857 -0.003,0.370624 -0.003,0.779193 -0.003,1.237367 0,0.499336 0.0507,0.831932 0.15757,0.99208 0.10371,0.160791 0.30148,0.245287 0.58689,0.245287 0.0941,0 0.22912,-0.02516 0.42127,-0.0726"
               style="fill:#f9f9f9;fill-opacity:1;fill-rule:nonzero;stroke:none;stroke-width:0.0803953" />
            <path
               id="path31-7"
               d="m 190.47781,68.515568 c -0.01,-0.367407 -0.0161,-0.70346 -0.0161,-0.992079 -0.45826,0 -0.80396,0.03457 -1.04193,0.103629 -0.39635,0.122201 -0.59412,0.345781 -0.59412,0.690597 0,0.329782 0.23234,0.499336 0.69462,0.499336 0.40198,0 0.71873,-0.100494 0.95751,-0.301483 m 0.64718,0.709732 -0.57161,0.01946 c -0.0282,-0.123085 -0.0475,-0.232343 -0.0475,-0.342565 h -0.0345 c -0.30148,0.276641 -0.70667,0.40857 -1.21799,0.40857 -0.28299,0 -0.51855,-0.07573 -0.71953,-0.242151 -0.20421,-0.166419 -0.3047,-0.401977 -0.3047,-0.70346 0,-0.373679 0.15998,-0.672026 0.47433,-0.894722 0.31113,-0.235558 0.90123,-0.352373 1.75825,-0.365236 0.006,-0.0562 0.01,-0.118664 0.01,-0.200989 0,-0.298026 -0.078,-0.495879 -0.23555,-0.590102 -0.1632,-0.106766 -0.40198,-0.153556 -0.72517,-0.153556 -0.38349,0 -0.75652,0.04679 -1.12714,0.140692 l 0.0627,-0.502472 c 0.36419,-0.102664 0.78465,-0.15669 1.25899,-0.15669 0.4269,0 0.76295,0.09109 1.00494,0.270048 0.22913,0.176227 0.34892,0.480846 0.34892,0.911042 0,0.113357 -0.003,0.32319 -0.0193,0.621537 -0.0121,0.298347 -0.0153,0.499336 -0.0153,0.59983 0,0.439603 0.0346,0.832817 0.10049,1.180769"
               style="fill:#f9f9f9;fill-opacity:1;fill-rule:nonzero;stroke:none;stroke-width:0.0803953" />
            <path
               id="path32-0"
               d="m 194.60129,68.500213 c 0,-0.750894 -0.0185,-1.482653 -0.0595,-2.179521 -0.19777,-0.160148 -0.44298,-0.245206 -0.73803,-0.245206 -0.40519,0 -0.71633,0.141577 -0.92053,0.411705 -0.2042,0.273184 -0.3047,0.612694 -0.3047,1.023434 0,0.370543 0.0941,0.681834 0.28621,0.939019 0.19455,0.251558 0.46147,0.373678 0.80717,0.373678 0.4269,0 0.73481,-0.106765 0.92937,-0.323109 m 0.58689,0.718816 -0.54267,0.02227 c -0.0225,-0.1099 -0.0314,-0.223257 -0.0314,-0.339108 h -0.0378 c -0.25807,0.276641 -0.63432,0.417334 -1.13358,0.417334 -0.46549,0 -0.83289,-0.169554 -1.10543,-0.502472 -0.27013,-0.336053 -0.41163,-0.738031 -0.41163,-1.21156 0,-0.534871 0.15034,-0.999315 0.45504,-1.385294 0.31113,-0.39225 0.73482,-0.58753 1.2815,-0.58753 0.39233,0 0.68176,0.08506 0.84818,0.241829 h 0.0314 c 0,-0.59983 -0.0225,-1.186476 -0.0538,-1.771273 l 0.69139,-0.0279 c -0.0474,0.621457 -0.0691,1.425412 -0.0691,2.424727 0,1.010571 0.0249,1.921291 0.078,2.718975"
               style="fill:#f9f9f9;fill-opacity:1;fill-rule:nonzero;stroke:none;stroke-width:0.0803953" />
          </g>
          <g
             id="g74"
             transform="translate(5.4972947,16)"
             style="fill:#f9f9f9">
            <path
               id="path33-3"
               d="m 200.3166,68.500213 c 0,-0.750894 -0.0152,-1.482653 -0.0595,-2.179521 -0.19456,-0.160148 -0.43977,-0.245206 -0.73803,-0.245206 -0.40841,0 -0.71552,0.141577 -0.9141,0.411705 -0.20983,0.273184 -0.31033,0.612694 -0.31033,1.023434 0,0.370543 0.0973,0.681834 0.28862,0.939019 0.19456,0.251558 0.46469,0.373678 0.80717,0.373678 0.4269,0 0.73803,-0.106765 0.92616,-0.323109 m 0.5909,0.718816 -0.54347,0.02227 c -0.0193,-0.1099 -0.0282,-0.223257 -0.0282,-0.339108 h -0.0378 c -0.25727,0.276641 -0.64397,0.417334 -1.14001,0.417334 -0.46147,0 -0.82566,-0.169554 -1.09901,-0.502472 -0.27334,-0.336053 -0.41162,-0.738031 -0.41162,-1.21156 0,-0.534871 0.15355,-0.999315 0.45182,-1.385294 0.3047,-0.39225 0.7324,-0.58753 1.28472,-0.58753 0.38992,0 0.67532,0.08506 0.84496,0.241829 h 0.0281 c 0,-0.59983 -0.0153,-1.186476 -0.0499,-1.771273 l 0.69059,-0.0279 c -0.0442,0.621457 -0.0659,1.425412 -0.0659,2.424727 0,1.010571 0.0282,1.921291 0.0756,2.718975"
               style="fill:#f9f9f9;fill-opacity:1;fill-rule:nonzero;stroke:none;stroke-width:0.0803953" />
            <path
               id="path34-9"
               d="m 204.24875,67.093293 c 0,-0.68497 -0.28621,-1.024158 -0.85702,-1.024158 -0.58126,0 -0.92375,0.355187 -1.02424,1.061783 z m 0.60939,-0.0097 c 0,0.103951 -0.006,0.242071 -0.0161,0.427061 l -2.4995,0.0377 c 0.0249,0.355509 0.15999,0.656992 0.41404,0.895606 0.24521,0.238051 0.57483,0.35776 0.99289,0.35776 0.36097,0 0.7131,-0.04744 1.03951,-0.1382 l -0.0659,0.515335 c -0.23555,0.0939 -0.58447,0.140692 -1.02745,0.140692 -0.63432,0 -1.11428,-0.172127 -1.44712,-0.514692 -0.33284,-0.342324 -0.49684,-0.762872 -0.49684,-1.262772 0,-0.53077 0.15114,-0.982673 0.45262,-1.366079 0.30149,-0.379386 0.71311,-0.574747 1.22202,-0.574747 0.46468,0 0.82244,0.138199 1.06443,0.417976 0.2444,0.273264 0.36741,0.631265 0.36741,1.064355"
               style="fill:#f9f9f9;fill-opacity:1;fill-rule:nonzero;stroke:none;stroke-width:0.0803953" />
          </g>
          <g
             id="g65"
             transform="matrix(0.60296598,0,0,0.60296598,139.03746,26.330575)"
             style="fill:#f9f9f9">
            <path
               id="path35-9"
               d="m 127.964,96.982801 -0.0427,0.9156 h -4.8588 c 0.0572,-1.254667 0.0776,-2.630133 0.0776,-4.1344 0,-1.417066 -0.0204,-2.6572 -0.0776,-3.729066 h 4.5572 l -0.0463,0.9 c -1.1,-0.04693 -2.27613,-0.0724 -3.52133,-0.0724 0.0265,0.623866 0.0359,1.468133 0.0359,2.525466 1.07866,0 2.02133,-0.01453 2.85986,-0.07187 v 0.899999 c -0.89053,-0.03587 -1.84373,-0.05733 -2.85986,-0.05733 0,1.037067 0.0161,2 0.0683,2.9172 1.3276,0 2.6036,-0.03587 3.80774,-0.0932"
               style="fill:#f9f9f9;fill-opacity:1;fill-rule:nonzero;stroke:none;stroke-width:0.133333" />
            <path
               id="path36-9"
               d="m 134.25466,97.898401 h -1.3068 c 0,-0.1036 -0.188,-0.447867 -0.57853,-1.030133 -0.39067,-0.5844 -0.7188,-1.073467 -1.01987,-1.464134 h -0.0427 c -0.2084,0.281334 -0.4948,0.7396 -0.85894,1.364134 -0.35466,0.630133 -0.54106,1.0052 -0.54106,1.130133 h -1.2136 c 0,-0.119733 0.28546,-0.5624 0.85893,-1.333333 0.57853,-0.770267 1.052,-1.343734 1.40093,-1.712934 v -0.05213 c -0.27026,-0.2864 -0.66666,-0.7864 -1.1984,-1.483866 -0.52546,-0.6932 -0.79586,-1.0896 -0.79586,-1.157334 h 1.29173 c 0,0.09427 0.16147,0.412 0.4844,0.9276 0.3276,0.5256 0.5984,0.9272 0.8172,1.2032 h 0.0411 c 0.20413,-0.240133 0.46933,-0.6256 0.77613,-1.166666 0.31867,-0.541734 0.48013,-0.854667 0.48013,-0.964134 h 1.1452 c 0,0.06773 -0.27066,0.464134 -0.8228,1.171867 -0.5412,0.713066 -0.93173,1.198533 -1.16666,1.428133 v 0.07187 c 0.34426,0.390666 0.79746,0.979733 1.38013,1.755733 0.584,0.776133 0.86933,1.2136 0.86933,1.312"
               style="fill:#f9f9f9;fill-opacity:1;fill-rule:nonzero;stroke:none;stroke-width:0.133333" />
            <path
               id="path37-1"
               d="m 139.79733,94.934934 c 0,-0.598933 -0.16133,-1.104266 -0.47467,-1.5308 -0.31733,-0.421333 -0.76533,-0.630666 -1.32266,-0.630666 -0.73467,0 -1.24,0.212933 -1.56267,0.6572 0.0627,1.348 0.104,2.504266 0.104,3.473466 0.32267,0.281334 0.74533,0.4156 1.27067,0.4156 0.66133,0 1.16133,-0.238533 1.48533,-0.6968 0.328,-0.473466 0.5,-1.0308 0.5,-1.688 m 1.072,-0.151066 c 0,0.874933 -0.24933,1.635866 -0.74933,2.292133 -0.49467,0.650533 -1.19867,0.978667 -2.07334,0.978667 -0.73466,0 -1.22933,-0.1292 -1.45866,-0.395867 h -0.0613 c 0,1.114667 0.0147,2.114667 0.036,2.994269 h -1.14133 c 0.0893,-1.066669 0.14133,-2.394269 0.14133,-3.967602 0,-1.9428 -0.0933,-3.4428 -0.29733,-4.5052 l 1.05733,-0.151067 0.0933,0.598934 h 0.0573 c 0.396,-0.4536 1.02667,-0.6776 1.89067,-0.6776 0.772,0 1.38533,0.276 1.83333,0.833333 0.448,0.568266 0.672,1.234933 0.672,2"
               style="fill:#f9f9f9;fill-opacity:1;fill-rule:nonzero;stroke:none;stroke-width:0.133333" />
            <path
               id="path38-7"
               d="m 145.912,92.158801 -0.272,0.9532 c -0.31734,-0.114666 -0.604,-0.186533 -0.88,-0.186533 -0.75467,0 -1.244,0.364133 -1.468,1.088133 0,1.843733 0.005,3.1452 0.036,3.8848 h -1.07334 c 0.0627,-1.275467 0.0947,-2.270267 0.0947,-2.972933 0,-0.9536 -0.0947,-1.8656 -0.28667,-2.7452 l 1.068,-0.151067 c 0.0627,0.442667 0.10934,0.744267 0.10934,0.890534 h 0.052 c 0.42666,-0.641067 0.932,-0.958267 1.52,-0.958267 0.29733,0 0.66666,0.06773 1.1,0.197333"
               style="fill:#f9f9f9;fill-opacity:1;fill-rule:nonzero;stroke:none;stroke-width:0.133333" />
            <path
               id="path39-2"
               d="m 150.584,94.362534 c 0,-1.130799 -0.464,-1.698533 -1.41734,-1.698533 -0.964,0 -1.53066,0.5948 -1.71333,1.761467 z m 1.00933,-0.0156 c 0,0.171867 -0.005,0.411867 -0.0253,0.702534 l -4.14134,0.07347 c 0.0373,0.587467 0.26134,1.078667 0.68267,1.4744 0.41733,0.4 0.96933,0.598534 1.64533,0.598534 0.60934,0 1.18267,-0.07867 1.724,-0.224 l -0.104,0.847866 c -0.40133,0.163067 -0.96266,0.234934 -1.708,0.234934 -1.052,0 -1.84933,-0.2864 -2.396,-0.8588 -0.552,-0.572934 -0.82266,-1.2652 -0.82266,-2.083867 0,-0.880267 0.25466,-1.640133 0.74533,-2.2708 0.50933,-0.6344 1.176,-0.948 2.02533,-0.948 0.776,0 1.36534,0.229734 1.76534,0.688 0.40666,0.453734 0.60933,1.057333 0.60933,1.765733"
               style="fill:#f9f9f9;fill-opacity:1;fill-rule:nonzero;stroke:none;stroke-width:0.133333" />
            <path
               id="path40-3"
               d="m 156.82266,96.253068 c 0,1.1776 -0.74933,1.770933 -2.244,1.770933 -0.672,0 -1.29733,-0.07347 -1.87066,-0.204267 l 0.19333,-0.889066 c 0.52533,0.202666 1.088,0.312 1.692,0.312 0.88533,0 1.324,-0.259867 1.324,-0.756267 0,-0.238533 -0.1,-0.431733 -0.292,-0.577067 -0.19867,-0.141066 -0.52133,-0.302533 -0.96933,-0.478666 -0.57334,-0.223867 -0.984,-0.444267 -1.24,-0.652 -0.38,-0.312 -0.572,-0.681334 -0.572,-1.1256 0,-0.4624 0.172,-0.842667 0.52,-1.1812 0.34933,-0.3224 0.876,-0.485467 1.58933,-0.485467 0.68267,0 1.24,0.05733 1.66133,0.1724 l -0.188,0.876134 c -0.43733,-0.1776 -0.94266,-0.261467 -1.50533,-0.261467 -0.776,0 -1.16133,0.223867 -1.16133,0.666666 0,0.223867 0.084,0.401067 0.256,0.546267 0.17733,0.136533 0.51066,0.3032 1.02,0.505733 0.53733,0.214667 0.94266,0.4172 1.20933,0.619867 0.38533,0.318667 0.57733,0.704133 0.57733,1.141067"
               style="fill:#f9f9f9;fill-opacity:1;fill-rule:nonzero;stroke:none;stroke-width:0.133333" />
            <path
               id="path41-6"
               d="m 159.516,90.341201 c 0,0.208267 -0.068,0.390534 -0.19334,0.535867 -0.12933,0.146933 -0.31733,0.229733 -0.568,0.229733 -0.19733,0 -0.35866,-0.06667 -0.47866,-0.192266 -0.10934,-0.130667 -0.16667,-0.2864 -0.16667,-0.4744 0,-0.2084 0.068,-0.380267 0.20267,-0.5308 0.13066,-0.150534 0.328,-0.218667 0.568,-0.218667 0.20266,0 0.35466,0.0624 0.464,0.192133 0.12,0.125067 0.172,0.291734 0.172,0.4584 m -0.25067,7.5572 h -1.088 c 0.052,-0.806267 0.0827,-1.729067 0.0827,-2.770267 0,-1.156266 -0.0667,-2.130799 -0.21867,-2.926533 l 1.21333,-0.161466 c -0.052,0.847866 -0.072,1.874399 -0.072,3.087999 0,0.9692 0.0253,1.890667 0.0827,2.770267"
               style="fill:#f9f9f9;fill-opacity:1;fill-rule:nonzero;stroke:none;stroke-width:0.133333" />
            <path
               id="path42-5"
               d="m 165.74,89.377068 c 0,0.0536 -0.28134,0.376 -0.828,0.964133 -0.552,0.604134 -0.83867,0.927067 -0.83867,1 h -0.71867 c 0,-0.07293 0.176,-0.395866 0.54134,-1 0.364,-0.598533 0.54133,-0.915733 0.54133,-0.964133 z m -0.40667,5.6828 c 0,-0.624934 -0.16667,-1.1828 -0.47867,-1.671867 -0.308,-0.4896 -0.76133,-0.738533 -1.34933,-0.738533 -0.57333,0 -1.02667,0.238533 -1.33333,0.702666 -0.312,0.453067 -0.464,0.9948 -0.464,1.604134 0,0.635866 0.152,1.1932 0.46933,1.677066 0.312,0.4948 0.76533,0.740134 1.35333,0.740134 0.584,0 1.02667,-0.245334 1.33867,-0.698934 0.30267,-0.472933 0.464,-1.0052 0.464,-1.614666 m 1.036,-0.207734 c 0,1.030667 -0.29067,1.833334 -0.88,2.411867 -0.59333,0.572 -1.28667,0.864133 -2.088,0.864133 -0.74533,0 -1.39067,-0.254666 -1.932,-0.7656 -0.532,-0.5104 -0.808,-1.2344 -0.808,-2.155733 0,-1.048 0.30267,-1.854667 0.896,-2.433333 0.588,-0.588 1.28667,-0.880267 2.088,-0.880267 0.756,0 1.40133,0.259867 1.928,0.776134 0.54133,0.510933 0.796,1.245199 0.796,2.182799"
               style="fill:#f9f9f9;fill-opacity:1;fill-rule:nonzero;stroke:none;stroke-width:0.133333" />
            <path
               id="path43-5"
               d="m 172.89066,97.898401 h -1.104 c 0.088,-1.0572 0.13067,-2.218133 0.13067,-3.472933 0,-0.620267 -0.12,-1.037467 -0.376,-1.266667 -0.24933,-0.233333 -0.61467,-0.3484 -1.08267,-0.3484 -0.568,0 -1.08933,0.2136 -1.584,0.629733 0,1.376 0.016,2.854667 0.0267,4.458267 h -1.09867 c 0.072,-1.3692 0.11467,-2.363467 0.11467,-2.972933 0,-0.9484 -0.1,-1.8604 -0.272,-2.7452 l 1.05733,-0.151067 0.12534,0.744267 h 0.0413 c 0.6,-0.546933 1.22933,-0.812 1.91733,-0.812 0.66134,0 1.18667,0.145333 1.552,0.442667 0.35867,0.291733 0.552,0.8172 0.552,1.572933 0,0.0776 -0.0107,0.229733 -0.016,0.457866 -0.005,0.229067 -0.0147,0.3812 -0.0147,0.453067 0,0.671867 0.009,1.677067 0.0307,3.0104"
               style="fill:#f9f9f9;fill-opacity:1;fill-rule:nonzero;stroke:none;stroke-width:0.133333" />
          </g>
        </g>
      </g>
    </g>
  </g>
</svg>
