<svg xmlns="http://www.w3.org/2000/svg" xmlns:xlink="http://www.w3.org/1999/xlink" version="1.1" class="marks" width="432" height="363" viewBox="0 0 432 363"><rect width="432" height="363" fill="white"/><g fill="none" stroke-miterlimit="10" transform="translate(49,25)"><g class="mark-group role-frame root" role="graphics-object" aria-roledescription="group mark container"><g transform="translate(0,0)"><path class="background" aria-hidden="true" d="M0.5,0.5h300v300h-300Z"/><g><g class="mark-group role-axis" aria-hidden="true"><g transform="translate(0.5,300.5)"><path class="background" aria-hidden="true" d="M0,0h0v0h0Z" pointer-events="none"/><g><g class="mark-rule role-axis-grid" pointer-events="none"><line transform="translate(0,-300)" x2="0" y2="300" stroke="#e5e7eb" stroke-width="1" opacity="1"/><line transform="translate(33,-300)" x2="0" y2="300" stroke="#e5e7eb" stroke-width="1" opacity="1"/><line transform="translate(67,-300)" x2="0" y2="300" stroke="#e5e7eb" stroke-width="1" opacity="1"/><line transform="translate(100,-300)" x2="0" y2="300" stroke="#e5e7eb" stroke-width="1" opacity="1"/><line transform="translate(133,-300)" x2="0" y2="300" stroke="#e5e7eb" stroke-width="1" opacity="1"/><line transform="translate(167,-300)" x2="0" y2="300" stroke="#e5e7eb" stroke-width="1" opacity="1"/><line transform="translate(200,-300)" x2="0" y2="300" stroke="#e5e7eb" stroke-width="1" opacity="1"/><line transform="translate(233,-300)" x2="0" y2="300" stroke="#e5e7eb" stroke-width="1" opacity="1"/><line transform="translate(267,-300)" x2="0" y2="300" stroke="#e5e7eb" stroke-width="1" opacity="1"/><line transform="translate(300,-300)" x2="0" y2="300" stroke="#e5e7eb" stroke-width="1" opacity="1"/></g></g><path class="foreground" aria-hidden="true" d="" pointer-events="none" display="none"/></g></g><g class="mark-group role-axis" aria-hidden="true"><g transform="translate(0.5,0.5)"><path class="background" aria-hidden="true" d="M0,0h0v0h0Z" pointer-events="none"/><g><g class="mark-rule role-axis-grid" pointer-events="none"><line transform="translate(0,300)" x2="300" y2="0" stroke="#e5e7eb" stroke-width="1" opacity="1"/><line transform="translate(0,242)" x2="300" y2="0" stroke="#e5e7eb" stroke-width="1" opacity="1"/><line transform="translate(0,185)" x2="300" y2="0" stroke="#e5e7eb" stroke-width="1" opacity="1"/><line transform="translate(0,127)" x2="300" y2="0" stroke="#e5e7eb" stroke-width="1" opacity="1"/><line transform="translate(0,69)" x2="300" y2="0" stroke="#e5e7eb" stroke-width="1" opacity="1"/><line transform="translate(0,12)" x2="300" y2="0" stroke="#e5e7eb" stroke-width="1" opacity="1"/></g></g><path class="foreground" aria-hidden="true" d="" pointer-events="none" display="none"/></g></g><g class="mark-group role-axis" role="graphics-symbol" aria-roledescription="axis" aria-label="X-axis titled 'Año' for a linear scale with values from 1,860 to 2,040"><g transform="translate(0.5,300.5)"><path class="background" aria-hidden="true" d="M0,0h0v0h0Z" pointer-events="none"/><g><g class="mark-rule role-axis-tick" pointer-events="none"><line transform="translate(0,0)" x2="0" y2="5" stroke="#9ca3af" stroke-width="1" opacity="1"/><line transform="translate(33,0)" x2="0" y2="5" stroke="#9ca3af" stroke-width="1" opacity="1"/><line transform="translate(67,0)" x2="0" y2="5" stroke="#9ca3af" stroke-width="1" opacity="1"/><line transform="translate(100,0)" x2="0" y2="5" stroke="#9ca3af" stroke-width="1" opacity="1"/><line transform="translate(133,0)" x2="0" y2="5" stroke="#9ca3af" stroke-width="1" opacity="1"/><line transform="translate(167,0)" x2="0" y2="5" stroke="#9ca3af" stroke-width="1" opacity="1"/><line transform="translate(200,0)" x2="0" y2="5" stroke="#9ca3af" stroke-width="1" opacity="1"/><line transform="translate(233,0)" x2="0" y2="5" stroke="#9ca3af" stroke-width="1" opacity="1"/><line transform="translate(267,0)" x2="0" y2="5" stroke="#9ca3af" stroke-width="1" opacity="1"/><line transform="translate(300,0)" x2="0" y2="5" stroke="#9ca3af" stroke-width="1" opacity="1"/></g><g class="mark-text role-axis-label" pointer-events="none"><text text-anchor="start" transform="translate(0,16)" font-family="Jost, Arial, sans-serif" font-size="11px" fill="#000" opacity="1">1,860</text><text text-anchor="middle" transform="translate(33.33333333333333,16)" font-family="Jost, Arial, sans-serif" font-size="11px" fill="#000" opacity="0">1,880</text><text text-anchor="middle" transform="translate(66.66666666666666,16)" font-family="Jost, Arial, sans-serif" font-size="11px" fill="#000" opacity="1">1,900</text><text text-anchor="middle" transform="translate(100,16)" font-family="Jost, Arial, sans-serif" font-size="11px" fill="#000" opacity="0">1,920</text><text text-anchor="middle" transform="translate(133.33333333333331,16)" font-family="Jost, Arial, sans-serif" font-size="11px" fill="#000" opacity="1">1,940</text><text text-anchor="middle" transform="translate(166.66666666666669,16)" font-family="Jost, Arial, sans-serif" font-size="11px" fill="#000" opacity="0">1,960</text><text text-anchor="middle" transform="translate(200,16)" font-family="Jost, Arial, sans-serif" font-size="11px" fill="#000" opacity="1">1,980</text><text text-anchor="middle" transform="translate(233.33333333333334,16)" font-family="Jost, Arial, sans-serif" font-size="11px" fill="#000" opacity="0">2,000</text><text text-anchor="middle" transform="translate(266.66666666666663,16)" font-family="Jost, Arial, sans-serif" font-size="11px" fill="#000" opacity="1">2,020</text><text text-anchor="end" transform="translate(300,16)" font-family="Jost, Arial, sans-serif" font-size="11px" fill="#000" opacity="0">2,040</text></g><g class="mark-rule role-axis-domain" pointer-events="none"><line transform="translate(0,0)" x2="300" y2="0" stroke="#9ca3af" stroke-width="1" opacity="1"/></g><g class="mark-text role-axis-title" pointer-events="none"><text text-anchor="middle" transform="translate(150,31)" font-family="Jost, Arial, sans-serif" font-size="12px" font-weight="bold" fill="#000" opacity="1">Año</text></g></g><path class="foreground" aria-hidden="true" d="" pointer-events="none" display="none"/></g></g><g class="mark-group role-axis" role="graphics-symbol" aria-roledescription="axis" aria-label="Y-axis titled 'Cantidad' for a linear scale with values from 0 to 260"><g transform="translate(0.5,0.5)"><path class="background" aria-hidden="true" d="M0,0h0v0h0Z" pointer-events="none"/><g><g class="mark-rule role-axis-tick" pointer-events="none"><line transform="translate(0,300)" x2="-5" y2="0" stroke="#9ca3af" stroke-width="1" opacity="1"/><line transform="translate(0,242)" x2="-5" y2="0" stroke="#9ca3af" stroke-width="1" opacity="1"/><line transform="translate(0,185)" x2="-5" y2="0" stroke="#9ca3af" stroke-width="1" opacity="1"/><line transform="translate(0,127)" x2="-5" y2="0" stroke="#9ca3af" stroke-width="1" opacity="1"/><line transform="translate(0,69)" x2="-5" y2="0" stroke="#9ca3af" stroke-width="1" opacity="1"/><line transform="translate(0,12)" x2="-5" y2="0" stroke="#9ca3af" stroke-width="1" opacity="1"/></g><g class="mark-text role-axis-label" pointer-events="none"><text text-anchor="end" transform="translate(-7,303)" font-family="Jost, Arial, sans-serif" font-size="11px" fill="#000" opacity="1">0</text><text text-anchor="end" transform="translate(-7,245.30769230769232)" font-family="Jost, Arial, sans-serif" font-size="11px" fill="#000" opacity="1">50</text><text text-anchor="end" transform="translate(-7,187.6153846153846)" font-family="Jost, Arial, sans-serif" font-size="11px" fill="#000" opacity="1">100</text><text text-anchor="end" transform="translate(-7,129.92307692307693)" font-family="Jost, Arial, sans-serif" font-size="11px" fill="#000" opacity="1">150</text><text text-anchor="end" transform="translate(-7,72.23076923076921)" font-family="Jost, Arial, sans-serif" font-size="11px" fill="#000" opacity="1">200</text><text text-anchor="end" transform="translate(-7,14.538461538461531)" font-family="Jost, Arial, sans-serif" font-size="11px" fill="#000" opacity="1">250</text></g><g class="mark-rule role-axis-domain" pointer-events="none"><line transform="translate(0,300)" x2="0" y2="-300" stroke="#9ca3af" stroke-width="1" opacity="1"/></g><g class="mark-text role-axis-title" pointer-events="none"><text text-anchor="middle" transform="translate(-30.458999633789062,150) rotate(-90) translate(0,-3)" font-family="Jost, Arial, sans-serif" font-size="12px" font-weight="bold" fill="#000" opacity="1">Cantidad</text></g></g><path class="foreground" aria-hidden="true" d="" pointer-events="none" display="none"/></g></g><g class="mark-group role-scope layer_0_pathgroup" role="graphics-object" aria-roledescription="group mark container"><g transform="translate(0,0)"><path class="background" aria-hidden="true" d="M0,0h300v300h-300Z"/><g><g class="mark-line role-mark layer_0_marks" role="graphics-object" aria-roledescription="line mark container"><path aria-label="Año: 1874; Cantidad: 1; Dataset: Leyes; dataset: Leyes; count: 1" role="graphics-symbol" aria-roledescription="line mark" d="M23.333,298.846L176.667,297.692L208.333,298.846L228.333,285L230,290.769L231.667,279.231L233.333,261.923L235,280.385L236.667,288.462L238.333,282.692L240,295.385L241.667,296.538L243.333,286.154L245,282.692L246.667,288.462L248.333,276.923L250,281.538L251.667,280.385L253.333,283.846L255,283.846L256.667,276.923L258.333,290.769L260,285L261.667,290.769L263.333,275.769L265,291.923L266.667,294.231L268.333,294.231L270,287.308L271.667,289.615L273.333,289.615L275,290.769" stroke="#1f77b4" stroke-width="2"/></g></g><path class="foreground" aria-hidden="true" d="" display="none"/></g><g transform="translate(0,0)"><path class="background" aria-hidden="true" d="M0,0h300v300h-300Z"/><g><g class="mark-line role-mark layer_0_marks" role="graphics-object" aria-roledescription="line mark container"><path aria-label="Año: 2009; Cantidad: 1; Dataset: Proyectos; dataset: Proyectos; count: 1" role="graphics-symbol" aria-roledescription="line mark" d="M248.333,298.846L253.333,246.923L255,237.692L256.667,236.538L258.333,219.231L260,196.154L261.667,204.231L263.333,118.846L265,130.385L266.667,69.231L268.333,87.692L270,85.385L271.667,48.462L273.333,15L275,233.077" stroke="#ff7f0e" stroke-width="2"/></g></g><path class="foreground" aria-hidden="true" d="" display="none"/></g></g><g class="mark-symbol role-mark layer_1_marks" role="graphics-object" aria-roledescription="symbol mark container"><path aria-label="Año: 1874; Cantidad: 1; Dataset: Leyes; dataset: Leyes; count: 1" role="graphics-symbol" aria-roledescription="point" transform="translate(23.333333333333332,298.84615384615387)" d="M2.739,0A2.739,2.739,0,1,1,-2.739,0A2.739,2.739,0,1,1,2.739,0" fill="#1f77b4" stroke-width="2" opacity="1"/><path aria-label="Año: 1966; Cantidad: 2; Dataset: Leyes; dataset: Leyes; count: 2" role="graphics-symbol" aria-roledescription="point" transform="translate(176.66666666666669,297.6923076923077)" d="M2.739,0A2.739,2.739,0,1,1,-2.739,0A2.739,2.739,0,1,1,2.739,0" fill="#1f77b4" stroke-width="2" opacity="1"/><path aria-label="Año: 1985; Cantidad: 1; Dataset: Leyes; dataset: Leyes; count: 1" role="graphics-symbol" aria-roledescription="point" transform="translate(208.33333333333331,298.84615384615387)" d="M2.739,0A2.739,2.739,0,1,1,-2.739,0A2.739,2.739,0,1,1,2.739,0" fill="#1f77b4" stroke-width="2" opacity="1"/><path aria-label="Año: 1997; Cantidad: 13; Dataset: Leyes; dataset: Leyes; count: 13" role="graphics-symbol" aria-roledescription="point" transform="translate(228.33333333333331,285)" d="M2.739,0A2.739,2.739,0,1,1,-2.739,0A2.739,2.739,0,1,1,2.739,0" fill="#1f77b4" stroke-width="2" opacity="1"/><path aria-label="Año: 1998; Cantidad: 8; Dataset: Leyes; dataset: Leyes; count: 8" role="graphics-symbol" aria-roledescription="point" transform="translate(230.00000000000003,290.7692307692308)" d="M2.739,0A2.739,2.739,0,1,1,-2.739,0A2.739,2.739,0,1,1,2.739,0" fill="#1f77b4" stroke-width="2" opacity="1"/><path aria-label="Año: 1999; Cantidad: 18; Dataset: Leyes; dataset: Leyes; count: 18" role="graphics-symbol" aria-roledescription="point" transform="translate(231.66666666666669,279.2307692307692)" d="M2.739,0A2.739,2.739,0,1,1,-2.739,0A2.739,2.739,0,1,1,2.739,0" fill="#1f77b4" stroke-width="2" opacity="1"/><path aria-label="Año: 2000; Cantidad: 33; Dataset: Leyes; dataset: Leyes; count: 33" role="graphics-symbol" aria-roledescription="point" transform="translate(233.33333333333334,261.9230769230769)" d="M2.739,0A2.739,2.739,0,1,1,-2.739,0A2.739,2.739,0,1,1,2.739,0" fill="#1f77b4" stroke-width="2" opacity="1"/><path aria-label="Año: 2001; Cantidad: 17; Dataset: Leyes; dataset: Leyes; count: 17" role="graphics-symbol" aria-roledescription="point" transform="translate(235,280.3846153846154)" d="M2.739,0A2.739,2.739,0,1,1,-2.739,0A2.739,2.739,0,1,1,2.739,0" fill="#1f77b4" stroke-width="2" opacity="1"/><path aria-label="Año: 2002; Cantidad: 10; Dataset: Leyes; dataset: Leyes; count: 10" role="graphics-symbol" aria-roledescription="point" transform="translate(236.66666666666666,288.46153846153845)" d="M2.739,0A2.739,2.739,0,1,1,-2.739,0A2.739,2.739,0,1,1,2.739,0" fill="#1f77b4" stroke-width="2" opacity="1"/><path aria-label="Año: 2003; Cantidad: 15; Dataset: Leyes; dataset: Leyes; count: 15" role="graphics-symbol" aria-roledescription="point" transform="translate(238.33333333333331,282.6923076923077)" d="M2.739,0A2.739,2.739,0,1,1,-2.739,0A2.739,2.739,0,1,1,2.739,0" fill="#1f77b4" stroke-width="2" opacity="1"/><path aria-label="Año: 2004; Cantidad: 4; Dataset: Leyes; dataset: Leyes; count: 4" role="graphics-symbol" aria-roledescription="point" transform="translate(240,295.3846153846154)" d="M2.739,0A2.739,2.739,0,1,1,-2.739,0A2.739,2.739,0,1,1,2.739,0" fill="#1f77b4" stroke-width="2" opacity="1"/><path aria-label="Año: 2005; Cantidad: 3; Dataset: Leyes; dataset: Leyes; count: 3" role="graphics-symbol" aria-roledescription="point" transform="translate(241.66666666666669,296.53846153846155)" d="M2.739,0A2.739,2.739,0,1,1,-2.739,0A2.739,2.739,0,1,1,2.739,0" fill="#1f77b4" stroke-width="2" opacity="1"/><path aria-label="Año: 2006; Cantidad: 12; Dataset: Leyes; dataset: Leyes; count: 12" role="graphics-symbol" aria-roledescription="point" transform="translate(243.33333333333334,286.15384615384613)" d="M2.739,0A2.739,2.739,0,1,1,-2.739,0A2.739,2.739,0,1,1,2.739,0" fill="#1f77b4" stroke-width="2" opacity="1"/><path aria-label="Año: 2007; Cantidad: 15; Dataset: Leyes; dataset: Leyes; count: 15" role="graphics-symbol" aria-roledescription="point" transform="translate(245,282.6923076923077)" d="M2.739,0A2.739,2.739,0,1,1,-2.739,0A2.739,2.739,0,1,1,2.739,0" fill="#1f77b4" stroke-width="2" opacity="1"/><path aria-label="Año: 2008; Cantidad: 10; Dataset: Leyes; dataset: Leyes; count: 10" role="graphics-symbol" aria-roledescription="point" transform="translate(246.66666666666666,288.46153846153845)" d="M2.739,0A2.739,2.739,0,1,1,-2.739,0A2.739,2.739,0,1,1,2.739,0" fill="#1f77b4" stroke-width="2" opacity="1"/><path aria-label="Año: 2009; Cantidad: 20; Dataset: Leyes; dataset: Leyes; count: 20" role="graphics-symbol" aria-roledescription="point" transform="translate(248.33333333333331,276.92307692307696)" d="M2.739,0A2.739,2.739,0,1,1,-2.739,0A2.739,2.739,0,1,1,2.739,0" fill="#1f77b4" stroke-width="2" opacity="1"/><path aria-label="Año: 2010; Cantidad: 16; Dataset: Leyes; dataset: Leyes; count: 16" role="graphics-symbol" aria-roledescription="point" transform="translate(250,281.53846153846155)" d="M2.739,0A2.739,2.739,0,1,1,-2.739,0A2.739,2.739,0,1,1,2.739,0" fill="#1f77b4" stroke-width="2" opacity="1"/><path aria-label="Año: 2011; Cantidad: 17; Dataset: Leyes; dataset: Leyes; count: 17" role="graphics-symbol" aria-roledescription="point" transform="translate(251.66666666666669,280.3846153846154)" d="M2.739,0A2.739,2.739,0,1,1,-2.739,0A2.739,2.739,0,1,1,2.739,0" fill="#1f77b4" stroke-width="2" opacity="1"/><path aria-label="Año: 2012; Cantidad: 14; Dataset: Leyes; dataset: Leyes; count: 14" role="graphics-symbol" aria-roledescription="point" transform="translate(253.33333333333334,283.8461538461538)" d="M2.739,0A2.739,2.739,0,1,1,-2.739,0A2.739,2.739,0,1,1,2.739,0" fill="#1f77b4" stroke-width="2" opacity="1"/><path aria-label="Año: 2013; Cantidad: 14; Dataset: Leyes; dataset: Leyes; count: 14" role="graphics-symbol" aria-roledescription="point" transform="translate(255,283.8461538461538)" d="M2.739,0A2.739,2.739,0,1,1,-2.739,0A2.739,2.739,0,1,1,2.739,0" fill="#1f77b4" stroke-width="2" opacity="1"/><path aria-label="Año: 2014; Cantidad: 20; Dataset: Leyes; dataset: Leyes; count: 20" role="graphics-symbol" aria-roledescription="point" transform="translate(256.66666666666663,276.92307692307696)" d="M2.739,0A2.739,2.739,0,1,1,-2.739,0A2.739,2.739,0,1,1,2.739,0" fill="#1f77b4" stroke-width="2" opacity="1"/><path aria-label="Año: 2015; Cantidad: 8; Dataset: Leyes; dataset: Leyes; count: 8" role="graphics-symbol" aria-roledescription="point" transform="translate(258.33333333333337,290.7692307692308)" d="M2.739,0A2.739,2.739,0,1,1,-2.739,0A2.739,2.739,0,1,1,2.739,0" fill="#1f77b4" stroke-width="2" opacity="1"/><path aria-label="Año: 2016; Cantidad: 13; Dataset: Leyes; dataset: Leyes; count: 13" role="graphics-symbol" aria-roledescription="point" transform="translate(260,285)" d="M2.739,0A2.739,2.739,0,1,1,-2.739,0A2.739,2.739,0,1,1,2.739,0" fill="#1f77b4" stroke-width="2" opacity="1"/><path aria-label="Año: 2017; Cantidad: 8; Dataset: Leyes; dataset: Leyes; count: 8" role="graphics-symbol" aria-roledescription="point" transform="translate(261.6666666666667,290.7692307692308)" d="M2.739,0A2.739,2.739,0,1,1,-2.739,0A2.739,2.739,0,1,1,2.739,0" fill="#1f77b4" stroke-width="2" opacity="1"/><path aria-label="Año: 2018; Cantidad: 21; Dataset: Leyes; dataset: Leyes; count: 21" role="graphics-symbol" aria-roledescription="point" transform="translate(263.3333333333333,275.7692307692308)" d="M2.739,0A2.739,2.739,0,1,1,-2.739,0A2.739,2.739,0,1,1,2.739,0" fill="#1f77b4" stroke-width="2" opacity="1"/><path aria-label="Año: 2019; Cantidad: 7; Dataset: Leyes; dataset: Leyes; count: 7" role="graphics-symbol" aria-roledescription="point" transform="translate(265,291.9230769230769)" d="M2.739,0A2.739,2.739,0,1,1,-2.739,0A2.739,2.739,0,1,1,2.739,0" fill="#1f77b4" stroke-width="2" opacity="1"/><path aria-label="Año: 2020; Cantidad: 5; Dataset: Leyes; dataset: Leyes; count: 5" role="graphics-symbol" aria-roledescription="point" transform="translate(266.66666666666663,294.2307692307692)" d="M2.739,0A2.739,2.739,0,1,1,-2.739,0A2.739,2.739,0,1,1,2.739,0" fill="#1f77b4" stroke-width="2" opacity="1"/><path aria-label="Año: 2021; Cantidad: 5; Dataset: Leyes; dataset: Leyes; count: 5" role="graphics-symbol" aria-roledescription="point" transform="translate(268.33333333333337,294.2307692307692)" d="M2.739,0A2.739,2.739,0,1,1,-2.739,0A2.739,2.739,0,1,1,2.739,0" fill="#1f77b4" stroke-width="2" opacity="1"/><path aria-label="Año: 2022; Cantidad: 11; Dataset: Leyes; dataset: Leyes; count: 11" role="graphics-symbol" aria-roledescription="point" transform="translate(270,287.3076923076923)" d="M2.739,0A2.739,2.739,0,1,1,-2.739,0A2.739,2.739,0,1,1,2.739,0" fill="#1f77b4" stroke-width="2" opacity="1"/><path aria-label="Año: 2023; Cantidad: 9; Dataset: Leyes; dataset: Leyes; count: 9" role="graphics-symbol" aria-roledescription="point" transform="translate(271.6666666666667,289.61538461538464)" d="M2.739,0A2.739,2.739,0,1,1,-2.739,0A2.739,2.739,0,1,1,2.739,0" fill="#1f77b4" stroke-width="2" opacity="1"/><path aria-label="Año: 2024; Cantidad: 9; Dataset: Leyes; dataset: Leyes; count: 9" role="graphics-symbol" aria-roledescription="point" transform="translate(273.3333333333333,289.61538461538464)" d="M2.739,0A2.739,2.739,0,1,1,-2.739,0A2.739,2.739,0,1,1,2.739,0" fill="#1f77b4" stroke-width="2" opacity="1"/><path aria-label="Año: 2025; Cantidad: 8; Dataset: Leyes; dataset: Leyes; count: 8" role="graphics-symbol" aria-roledescription="point" transform="translate(275,290.7692307692308)" d="M2.739,0A2.739,2.739,0,1,1,-2.739,0A2.739,2.739,0,1,1,2.739,0" fill="#1f77b4" stroke-width="2" opacity="1"/><path aria-label="Año: 2009; Cantidad: 1; Dataset: Proyectos; dataset: Proyectos; count: 1" role="graphics-symbol" aria-roledescription="point" transform="translate(248.33333333333331,298.84615384615387)" d="M2.739,0A2.739,2.739,0,1,1,-2.739,0A2.739,2.739,0,1,1,2.739,0" fill="#ff7f0e" stroke-width="2" opacity="1"/><path aria-label="Año: 2012; Cantidad: 46; Dataset: Proyectos; dataset: Proyectos; count: 46" role="graphics-symbol" aria-roledescription="point" transform="translate(253.33333333333334,246.9230769230769)" d="M2.739,0A2.739,2.739,0,1,1,-2.739,0A2.739,2.739,0,1,1,2.739,0" fill="#ff7f0e" stroke-width="2" opacity="1"/><path aria-label="Año: 2013; Cantidad: 54; Dataset: Proyectos; dataset: Proyectos; count: 54" role="graphics-symbol" aria-roledescription="point" transform="translate(255,237.69230769230768)" d="M2.739,0A2.739,2.739,0,1,1,-2.739,0A2.739,2.739,0,1,1,2.739,0" fill="#ff7f0e" stroke-width="2" opacity="1"/><path aria-label="Año: 2014; Cantidad: 55; Dataset: Proyectos; dataset: Proyectos; count: 55" role="graphics-symbol" aria-roledescription="point" transform="translate(256.66666666666663,236.53846153846152)" d="M2.739,0A2.739,2.739,0,1,1,-2.739,0A2.739,2.739,0,1,1,2.739,0" fill="#ff7f0e" stroke-width="2" opacity="1"/><path aria-label="Año: 2015; Cantidad: 70; Dataset: Proyectos; dataset: Proyectos; count: 70" role="graphics-symbol" aria-roledescription="point" transform="translate(258.33333333333337,219.23076923076925)" d="M2.739,0A2.739,2.739,0,1,1,-2.739,0A2.739,2.739,0,1,1,2.739,0" fill="#ff7f0e" stroke-width="2" opacity="1"/><path aria-label="Año: 2016; Cantidad: 90; Dataset: Proyectos; dataset: Proyectos; count: 90" role="graphics-symbol" aria-roledescription="point" transform="translate(260,196.15384615384616)" d="M2.739,0A2.739,2.739,0,1,1,-2.739,0A2.739,2.739,0,1,1,2.739,0" fill="#ff7f0e" stroke-width="2" opacity="1"/><path aria-label="Año: 2017; Cantidad: 83; Dataset: Proyectos; dataset: Proyectos; count: 83" role="graphics-symbol" aria-roledescription="point" transform="translate(261.6666666666667,204.23076923076923)" d="M2.739,0A2.739,2.739,0,1,1,-2.739,0A2.739,2.739,0,1,1,2.739,0" fill="#ff7f0e" stroke-width="2" opacity="1"/><path aria-label="Año: 2018; Cantidad: 157; Dataset: Proyectos; dataset: Proyectos; count: 157" role="graphics-symbol" aria-roledescription="point" transform="translate(263.3333333333333,118.84615384615385)" d="M2.739,0A2.739,2.739,0,1,1,-2.739,0A2.739,2.739,0,1,1,2.739,0" fill="#ff7f0e" stroke-width="2" opacity="1"/><path aria-label="Año: 2019; Cantidad: 147; Dataset: Proyectos; dataset: Proyectos; count: 147" role="graphics-symbol" aria-roledescription="point" transform="translate(265,130.3846153846154)" d="M2.739,0A2.739,2.739,0,1,1,-2.739,0A2.739,2.739,0,1,1,2.739,0" fill="#ff7f0e" stroke-width="2" opacity="1"/><path aria-label="Año: 2020; Cantidad: 200; Dataset: Proyectos; dataset: Proyectos; count: 200" role="graphics-symbol" aria-roledescription="point" transform="translate(266.66666666666663,69.23076923076921)" d="M2.739,0A2.739,2.739,0,1,1,-2.739,0A2.739,2.739,0,1,1,2.739,0" fill="#ff7f0e" stroke-width="2" opacity="1"/><path aria-label="Año: 2021; Cantidad: 184; Dataset: Proyectos; dataset: Proyectos; count: 184" role="graphics-symbol" aria-roledescription="point" transform="translate(268.33333333333337,87.69230769230768)" d="M2.739,0A2.739,2.739,0,1,1,-2.739,0A2.739,2.739,0,1,1,2.739,0" fill="#ff7f0e" stroke-width="2" opacity="1"/><path aria-label="Año: 2022; Cantidad: 186; Dataset: Proyectos; dataset: Proyectos; count: 186" role="graphics-symbol" aria-roledescription="point" transform="translate(270,85.38461538461539)" d="M2.739,0A2.739,2.739,0,1,1,-2.739,0A2.739,2.739,0,1,1,2.739,0" fill="#ff7f0e" stroke-width="2" opacity="1"/><path aria-label="Año: 2023; Cantidad: 218; Dataset: Proyectos; dataset: Proyectos; count: 218" role="graphics-symbol" aria-roledescription="point" transform="translate(271.6666666666667,48.46153846153845)" d="M2.739,0A2.739,2.739,0,1,1,-2.739,0A2.739,2.739,0,1,1,2.739,0" fill="#ff7f0e" stroke-width="2" opacity="1"/><path aria-label="Año: 2024; Cantidad: 247; Dataset: Proyectos; dataset: Proyectos; count: 247" role="graphics-symbol" aria-roledescription="point" transform="translate(273.3333333333333,15.000000000000014)" d="M2.739,0A2.739,2.739,0,1,1,-2.739,0A2.739,2.739,0,1,1,2.739,0" fill="#ff7f0e" stroke-width="2" opacity="1"/><path aria-label="Año: 2025; Cantidad: 58; Dataset: Proyectos; dataset: Proyectos; count: 58" role="graphics-symbol" aria-roledescription="point" transform="translate(275,233.0769230769231)" d="M2.739,0A2.739,2.739,0,1,1,-2.739,0A2.739,2.739,0,1,1,2.739,0" fill="#ff7f0e" stroke-width="2" opacity="1"/></g><g class="mark-group role-legend" role="graphics-symbol" aria-roledescription="legend" aria-label="Symbol legend titled 'Dataset' for fill color and stroke color with 2 values: Leyes, Proyectos"><g transform="translate(318,0)"><path class="background" aria-hidden="true" d="M0,0h60v46h-60Z" pointer-events="none"/><g><g class="mark-group role-legend-entry"><g transform="translate(0,17)"><path class="background" aria-hidden="true" d="M0,0h0v0h0Z" pointer-events="none"/><g><g class="mark-group role-scope" role="graphics-object" aria-roledescription="group mark container"><g transform="translate(0,0)"><path class="background" aria-hidden="true" d="M0,0h59.933998107910156v12.5h-59.933998107910156Z" pointer-events="none" opacity="1"/><g><g class="mark-symbol role-legend-symbol" pointer-events="none"><path transform="translate(6,6)" d="M5,0A5,5,0,1,1,-5,0A5,5,0,1,1,5,0" fill="#1f77b4" stroke="#1f77b4" stroke-width="1.5" opacity="1"/></g><g class="mark-text role-legend-label" pointer-events="none"><text text-anchor="start" transform="translate(16,9)" font-family="Jost, Arial, sans-serif" font-size="11px" fill="#000" opacity="1">Leyes</text></g></g><path class="foreground" aria-hidden="true" d="" pointer-events="none" display="none"/></g><g transform="translate(0,16)"><path class="background" aria-hidden="true" d="M0,0h59.933998107910156v12.5h-59.933998107910156Z" pointer-events="none" opacity="1"/><g><g class="mark-symbol role-legend-symbol" pointer-events="none"><path transform="translate(6,6)" d="M5,0A5,5,0,1,1,-5,0A5,5,0,1,1,5,0" fill="#ff7f0e" stroke="#ff7f0e" stroke-width="1.5" opacity="1"/></g><g class="mark-text role-legend-label" pointer-events="none"><text text-anchor="start" transform="translate(16,9)" font-family="Jost, Arial, sans-serif" font-size="11px" fill="#000" opacity="1">Proyectos</text></g></g><path class="foreground" aria-hidden="true" d="" pointer-events="none" display="none"/></g></g></g><path class="foreground" aria-hidden="true" d="" pointer-events="none" display="none"/></g></g><g class="mark-text role-legend-title" pointer-events="none"><text text-anchor="start" transform="translate(0,9)" font-family="Jost, Arial, sans-serif" font-size="12px" font-weight="bold" fill="#000" opacity="1">Dataset</text></g></g><path class="foreground" aria-hidden="true" d="" pointer-events="none" display="none"/></g></g><g class="mark-group role-title"><g transform="translate(-43.45899963378906,-20)"><path class="background" aria-hidden="true" d="M0,0h0v0h0Z" pointer-events="none"/><g><g class="mark-text role-title-text" role="graphics-symbol" aria-roledescription="title" aria-label="Title text 'Tendencia anual (leyes y proyectos)'" pointer-events="none"><text text-anchor="start" transform="translate(0,13)" font-family="Jost, Arial, sans-serif" font-size="16px" font-weight="bold" fill="#111" opacity="1">Tendencia anual (leyes y proyectos)</text></g></g><path class="foreground" aria-hidden="true" d="" pointer-events="none" display="none"/></g></g></g><path class="foreground" aria-hidden="true" d="" display="none"/></g></g></g></svg>