<svg xmlns="http://www.w3.org/2000/svg" xmlns:xlink="http://www.w3.org/1999/xlink" version="1.1" class="marks" width="302" height="408" viewBox="0 0 302 408"><rect width="302" height="408" fill="white"/><g fill="none" stroke-miterlimit="10" transform="translate(56,31)"><g class="mark-group role-frame root" role="graphics-object" aria-roledescription="group mark container"><g transform="translate(0,0)"><path class="background" aria-hidden="true" d="M0.5,0.5h180v300h-180Z"/><g><g class="mark-group role-axis" aria-hidden="true"><g transform="translate(0.5,0.5)"><path class="background" aria-hidden="true" d="M0,0h0v0h0Z" pointer-events="none"/><g><g class="mark-rule role-axis-grid" pointer-events="none"><line transform="translate(0,300)" x2="180" y2="0" stroke="#e5e7eb" stroke-width="1" opacity="1"/><line transform="translate(0,270)" x2="180" y2="0" stroke="#e5e7eb" stroke-width="1" opacity="1"/><line transform="translate(0,240)" x2="180" y2="0" stroke="#e5e7eb" stroke-width="1" opacity="1"/><line transform="translate(0,210)" x2="180" y2="0" stroke="#e5e7eb" stroke-width="1" opacity="1"/><line transform="translate(0,180)" x2="180" y2="0" stroke="#e5e7eb" stroke-width="1" opacity="1"/><line transform="translate(0,150)" x2="180" y2="0" stroke="#e5e7eb" stroke-width="1" opacity="1"/><line transform="translate(0,120)" x2="180" y2="0" stroke="#e5e7eb" stroke-width="1" opacity="1"/><line transform="translate(0,90)" x2="180" y2="0" stroke="#e5e7eb" stroke-width="1" opacity="1"/><line transform="translate(0,60)" x2="180" y2="0" stroke="#e5e7eb" stroke-width="1" opacity="1"/><line transform="translate(0,30)" x2="180" y2="0" stroke="#e5e7eb" stroke-width="1" opacity="1"/><line transform="translate(0,0)" x2="180" y2="0" stroke="#e5e7eb" stroke-width="1" opacity="1"/></g></g><path class="foreground" aria-hidden="true" d="" pointer-events="none" display="none"/></g></g><g class="mark-group role-axis" role="graphics-symbol" aria-roledescription="axis" aria-label="X-axis titled 'País' for a discrete scale with 9 values: Colombia, Perú, Paraguay, Brasil, México, ending with Ecuador"><g transform="translate(0.5,300.5)"><path class="background" aria-hidden="true" d="M0,0h0v0h0Z" pointer-events="none"/><g><g class="mark-rule role-axis-tick" pointer-events="none"><line transform="translate(10,0)" x2="0" y2="5" stroke="#9ca3af" stroke-width="1" opacity="1"/><line transform="translate(30,0)" x2="0" y2="5" stroke="#9ca3af" stroke-width="1" opacity="1"/><line transform="translate(50,0)" x2="0" y2="5" stroke="#9ca3af" stroke-width="1" opacity="1"/><line transform="translate(70,0)" x2="0" y2="5" stroke="#9ca3af" stroke-width="1" opacity="1"/><line transform="translate(90,0)" x2="0" y2="5" stroke="#9ca3af" stroke-width="1" opacity="1"/><line transform="translate(110,0)" x2="0" y2="5" stroke="#9ca3af" stroke-width="1" opacity="1"/><line transform="translate(130,0)" x2="0" y2="5" stroke="#9ca3af" stroke-width="1" opacity="1"/><line transform="translate(150,0)" x2="0" y2="5" stroke="#9ca3af" stroke-width="1" opacity="1"/><line transform="translate(170,0)" x2="0" y2="5" stroke="#9ca3af" stroke-width="1" opacity="1"/></g><g class="mark-text role-axis-label" pointer-events="none"><text text-anchor="end" transform="translate(9.5,7) rotate(270) translate(0,3)" font-family="Jost, Arial, sans-serif" font-size="11px" fill="#000" opacity="1">Colombia</text><text text-anchor="end" transform="translate(29.5,7) rotate(270) translate(0,3)" font-family="Jost, Arial, sans-serif" font-size="11px" fill="#000" opacity="1">Perú</text><text text-anchor="end" transform="translate(49.5,7) rotate(270) translate(0,3)" font-family="Jost, Arial, sans-serif" font-size="11px" fill="#000" opacity="1">Paraguay</text><text text-anchor="end" transform="translate(69.5,7) rotate(270) translate(0,3)" font-family="Jost, Arial, sans-serif" font-size="11px" fill="#000" opacity="1">Brasil</text><text text-anchor="end" transform="translate(89.5,7) rotate(270) translate(0,3)" font-family="Jost, Arial, sans-serif" font-size="11px" fill="#000" opacity="1">México</text><text text-anchor="end" transform="translate(109.5,7) rotate(270) translate(0,3)" font-family="Jost, Arial, sans-serif" font-size="11px" fill="#000" opacity="1">Argentina</text><text text-anchor="end" transform="translate(129.5,7) rotate(270) translate(0,3)" font-family="Jost, Arial, sans-serif" font-size="11px" fill="#000" opacity="1">Chile</text><text text-anchor="end" transform="translate(149.5,7) rotate(270) translate(0,3)" font-family="Jost, Arial, sans-serif" font-size="11px" fill="#000" opacity="1">Guatemala</text><text text-anchor="end" transform="translate(169.5,7) rotate(270) translate(0,3)" font-family="Jost, Arial, sans-serif" font-size="11px" fill="#000" opacity="1">Ecuador</text></g><g class="mark-rule role-axis-domain" pointer-events="none"><line transform="translate(0,0)" x2="180" y2="0" stroke="#9ca3af" stroke-width="1" opacity="1"/></g><g class="mark-text role-axis-title" pointer-events="none"><text text-anchor="middle" transform="translate(90,69.58799743652344)" font-family="Jost, Arial, sans-serif" font-size="12px" font-weight="bold" fill="#000" opacity="1">País</text></g></g><path class="foreground" aria-hidden="true" d="" pointer-events="none" display="none"/></g></g><g class="mark-group role-axis" role="graphics-symbol" aria-roledescription="axis" aria-label="Y-axis titled 'Proporción' for a linear scale with values from 0% to 100%"><g transform="translate(0.5,0.5)"><path class="background" aria-hidden="true" d="M0,0h0v0h0Z" pointer-events="none"/><g><g class="mark-rule role-axis-tick" pointer-events="none"><line transform="translate(0,300)" x2="-5" y2="0" stroke="#9ca3af" stroke-width="1" opacity="1"/><line transform="translate(0,270)" x2="-5" y2="0" stroke="#9ca3af" stroke-width="1" opacity="1"/><line transform="translate(0,240)" x2="-5" y2="0" stroke="#9ca3af" stroke-width="1" opacity="1"/><line transform="translate(0,210)" x2="-5" y2="0" stroke="#9ca3af" stroke-width="1" opacity="1"/><line transform="translate(0,180)" x2="-5" y2="0" stroke="#9ca3af" stroke-width="1" opacity="1"/><line transform="translate(0,150)" x2="-5" y2="0" stroke="#9ca3af" stroke-width="1" opacity="1"/><line transform="translate(0,120)" x2="-5" y2="0" stroke="#9ca3af" stroke-width="1" opacity="1"/><line transform="translate(0,90)" x2="-5" y2="0" stroke="#9ca3af" stroke-width="1" opacity="1"/><line transform="translate(0,60)" x2="-5" y2="0" stroke="#9ca3af" stroke-width="1" opacity="1"/><line transform="translate(0,30)" x2="-5" y2="0" stroke="#9ca3af" stroke-width="1" opacity="1"/><line transform="translate(0,0)" x2="-5" y2="0" stroke="#9ca3af" stroke-width="1" opacity="1"/></g><g class="mark-text role-axis-label" pointer-events="none"><text text-anchor="end" transform="translate(-7,303)" font-family="Jost, Arial, sans-serif" font-size="11px" fill="#000" opacity="1">0%</text><text text-anchor="end" transform="translate(-7,273)" font-family="Jost, Arial, sans-serif" font-size="11px" fill="#000" opacity="1">10%</text><text text-anchor="end" transform="translate(-7,243)" font-family="Jost, Arial, sans-serif" font-size="11px" fill="#000" opacity="1">20%</text><text text-anchor="end" transform="translate(-7,213)" font-family="Jost, Arial, sans-serif" font-size="11px" fill="#000" opacity="1">30%</text><text text-anchor="end" transform="translate(-7,183)" font-family="Jost, Arial, sans-serif" font-size="11px" fill="#000" opacity="1">40%</text><text text-anchor="end" transform="translate(-7,153)" font-family="Jost, Arial, sans-serif" font-size="11px" fill="#000" opacity="1">50%</text><text text-anchor="end" transform="translate(-7,123)" font-family="Jost, Arial, sans-serif" font-size="11px" fill="#000" opacity="1">60%</text><text text-anchor="end" transform="translate(-7,93.00000000000001)" font-family="Jost, Arial, sans-serif" font-size="11px" fill="#000" opacity="1">70%</text><text text-anchor="end" transform="translate(-7,62.999999999999986)" font-family="Jost, Arial, sans-serif" font-size="11px" fill="#000" opacity="1">80%</text><text text-anchor="end" transform="translate(-7,32.99999999999999)" font-family="Jost, Arial, sans-serif" font-size="11px" fill="#000" opacity="1">90%</text><text text-anchor="end" transform="translate(-7,3)" font-family="Jost, Arial, sans-serif" font-size="11px" fill="#000" opacity="1">100%</text></g><g class="mark-rule role-axis-domain" pointer-events="none"><line transform="translate(0,300)" x2="0" y2="-300" stroke="#9ca3af" stroke-width="1" opacity="1"/></g><g class="mark-text role-axis-title" pointer-events="none"><text text-anchor="middle" transform="translate(-37.4109992980957,150) rotate(-90) translate(0,-3)" font-family="Jost, Arial, sans-serif" font-size="12px" font-weight="bold" fill="#000" opacity="1">Proporción</text></g></g><path class="foreground" aria-hidden="true" d="" pointer-events="none" display="none"/></g></g><g class="mark-rect role-mark marks" role="graphics-object" aria-roledescription="rect mark container"><path aria-label="País: Argentina; Proporción: 41%; Cumple: NO; cumple: NO; count: 9" role="graphics-symbol" aria-roledescription="bar" d="M101,0h18v122.72727272727272h-18Z" fill="#1f77b4"/><path aria-label="País: Argentina; Proporción: 59%; Cumple: SI; cumple: SI; count: 13" role="graphics-symbol" aria-roledescription="bar" d="M101,122.72727272727272h18v177.27272727272728h-18Z" fill="#ff7f0e"/><path aria-label="País: Brasil; Proporción: 22%; Cumple: NO; cumple: NO; count: 6" role="graphics-symbol" aria-roledescription="bar" d="M61,0h18v66.6666666666667h-18Z" fill="#1f77b4"/><path aria-label="País: Brasil; Proporción: 78%; Cumple: SI; cumple: SI; count: 21" role="graphics-symbol" aria-roledescription="bar" d="M61,66.6666666666667h18v233.33333333333331h-18Z" fill="#ff7f0e"/><path aria-label="País: Chile; Proporción: 30%; Cumple: NO; cumple: NO; count: 6" role="graphics-symbol" aria-roledescription="bar" d="M121,0h18v89.99999999999999h-18Z" fill="#1f77b4"/><path aria-label="País: Chile; Proporción: 70%; Cumple: SI; cumple: SI; count: 14" role="graphics-symbol" aria-roledescription="bar" d="M121,89.99999999999999h18v210h-18Z" fill="#ff7f0e"/><path aria-label="País: Colombia; Proporción: 28%; Cumple: NO; cumple: NO; count: 30" role="graphics-symbol" aria-roledescription="bar" d="M1,0h18v83.33333333333334h-18Z" fill="#1f77b4"/><path aria-label="País: Colombia; Proporción: 72%; Cumple: SI; cumple: SI; count: 78" role="graphics-symbol" aria-roledescription="bar" d="M1,83.33333333333334h18v216.66666666666666h-18Z" fill="#ff7f0e"/><path aria-label="País: Ecuador; Proporción: 56%; Cumple: NO; cumple: NO; count: 9" role="graphics-symbol" aria-roledescription="bar" d="M161,0h18v168.75h-18Z" fill="#1f77b4"/><path aria-label="País: Ecuador; Proporción: 44%; Cumple: SI; cumple: SI; count: 7" role="graphics-symbol" aria-roledescription="bar" d="M161,168.75h18v131.25h-18Z" fill="#ff7f0e"/><path aria-label="País: Guatemala; Proporción: 42%; Cumple: NO; cumple: NO; count: 8" role="graphics-symbol" aria-roledescription="bar" d="M141,0h18v126.3157894736842h-18Z" fill="#1f77b4"/><path aria-label="País: Guatemala; Proporción: 58%; Cumple: SI; cumple: SI; count: 11" role="graphics-symbol" aria-roledescription="bar" d="M141,126.3157894736842h18v173.68421052631578h-18Z" fill="#ff7f0e"/><path aria-label="País: México; Proporción: 60%; Cumple: NO; cumple: NO; count: 15" role="graphics-symbol" aria-roledescription="bar" d="M81,0h18v180h-18Z" fill="#1f77b4"/><path aria-label="País: México; Proporción: 40%; Cumple: SI; cumple: SI; count: 10" role="graphics-symbol" aria-roledescription="bar" d="M81,180h18v120h-18Z" fill="#ff7f0e"/><path aria-label="País: Paraguay; Proporción: 21%; Cumple: NO; cumple: NO; count: 7" role="graphics-symbol" aria-roledescription="bar" d="M41,0h18v63.63636363636365h-18Z" fill="#1f77b4"/><path aria-label="País: Paraguay; Proporción: 79%; Cumple: SI; cumple: SI; count: 26" role="graphics-symbol" aria-roledescription="bar" d="M41,63.63636363636365h18v236.36363636363635h-18Z" fill="#ff7f0e"/><path aria-label="País: Perú; Proporción: 53%; Cumple: NO; cumple: NO; count: 19" role="graphics-symbol" aria-roledescription="bar" d="M21,0h18v158.33333333333334h-18Z" fill="#1f77b4"/><path aria-label="País: Perú; Proporción: 47%; Cumple: SI; cumple: SI; count: 17" role="graphics-symbol" aria-roledescription="bar" d="M21,158.33333333333334h18v141.66666666666666h-18Z" fill="#ff7f0e"/></g><g class="mark-group role-legend" role="graphics-symbol" aria-roledescription="legend" aria-label="Symbol legend titled 'Cumple' for fill color with 2 values: NO, SI"><g transform="translate(198,0)"><path class="background" aria-hidden="true" d="M0,0h43v41h-43Z" pointer-events="none"/><g><g class="mark-group role-legend-entry"><g transform="translate(0,17)"><path class="background" aria-hidden="true" d="M0,0h0v0h0Z" pointer-events="none"/><g><g class="mark-group role-scope" role="graphics-object" aria-roledescription="group mark container"><g transform="translate(0,0)"><path class="background" aria-hidden="true" d="M0,0h33.21500015258789v11h-33.21500015258789Z" pointer-events="none" opacity="1"/><g><g class="mark-symbol role-legend-symbol" pointer-events="none"><path transform="translate(6,6)" d="M-5,-5h10v10h-10Z" fill="#1f77b4" stroke-width="1.5" opacity="1"/></g><g class="mark-text role-legend-label" pointer-events="none"><text text-anchor="start" transform="translate(16,9)" font-family="Jost, Arial, sans-serif" font-size="11px" fill="#000" opacity="1">NO</text></g></g><path class="foreground" aria-hidden="true" d="" pointer-events="none" display="none"/></g><g transform="translate(0,13)"><path class="background" aria-hidden="true" d="M0,0h33.21500015258789v11h-33.21500015258789Z" pointer-events="none" opacity="1"/><g><g class="mark-symbol role-legend-symbol" pointer-events="none"><path transform="translate(6,6)" d="M-5,-5h10v10h-10Z" fill="#ff7f0e" stroke-width="1.5" opacity="1"/></g><g class="mark-text role-legend-label" pointer-events="none"><text text-anchor="start" transform="translate(16,9)" font-family="Jost, Arial, sans-serif" font-size="11px" fill="#000" opacity="1">SI</text></g></g><path class="foreground" aria-hidden="true" d="" pointer-events="none" display="none"/></g></g></g><path class="foreground" aria-hidden="true" d="" pointer-events="none" display="none"/></g></g><g class="mark-text role-legend-title" pointer-events="none"><text text-anchor="start" transform="translate(0,9)" font-family="Jost, Arial, sans-serif" font-size="12px" font-weight="bold" fill="#000" opacity="1">Cumple</text></g></g><path class="foreground" aria-hidden="true" d="" pointer-events="none" display="none"/></g></g><g class="mark-group role-title"><g transform="translate(-50.4109992980957,-26)"><path class="background" aria-hidden="true" d="M0,0h0v0h0Z" pointer-events="none"/><g><g class="mark-text role-title-text" role="graphics-symbol" aria-roledescription="title" aria-label="Title text 'Cumplimiento del test (leyes)'" pointer-events="none"><text text-anchor="start" transform="translate(0,13)" font-family="Jost, Arial, sans-serif" font-size="16px" font-weight="bold" fill="#111" opacity="1">Cumplimiento del test (leyes)</text></g></g><path class="foreground" aria-hidden="true" d="" pointer-events="none" display="none"/></g></g></g><path class="foreground" aria-hidden="true" d="" display="none"/></g></g></g></svg>