<?xml version="1.0" encoding="UTF-8"?>
<svg width="2191.8" height="1135.1" version="1.0" viewBox="0 -500 9512.6 6042.3" xmlns="http://www.w3.org/2000/svg">
 <style id="style_css_sheet" type="text/css">.circle,.land{fill:#b9b9b9;fill-opacity:1;stroke-opacity:1;stroke-miterlimit:3.97446823;stroke-dasharray:none}.circle{opacity:0;stroke:#000;stroke-width:.99986893}.land{stroke:#fff;stroke-width:.99986997}</style>
 <g fill="#999">
  <g stroke-miterlimit="3.9745">
   <g id="us" class="land us" transform="matrix(4.1721 0 0 4.033 -861.21 251.98)" stroke="#fff" stroke-width="1.1679">
    <path d="M334.883 322.503c-.352-.47-.563-.915-.633-1.334-.328.36-.34.974.051 1.69.194-.119.387-.238.582-.356"/>
    <path d="M333.781 319.209c-.253.155-.221.452.095.893l-.095-.893"/>
    <path d="M334.481 313.752c-1.454-.683-.983.739.195 1.435-.835-.753-.757-1.265-.195-1.435"/>
    <path d="M332.8 312.046c1.314.922.147.69-.097 1.063-.404.616.81 1.565.754 2.347 1.17-.07 1.883 1.348.991 1.522-2.503-1.963-2.658-3.901-1.647-4.932"/>
    <path d="m352.933 456.367-.339-.953a7.051 7.051 0 0 0-1.35.397c.553.673 1.271 1.043 1.689.556"/>
    <path d="M353.902 455.096c-.282 1.535 2.172.738 2.43.16-.535.564-1.594-.042-2.43-.16"/>
    <path d="M364.311 465.47h-.379a3.797 3.797 0 0 0 1.358 1.576c-.15-.576-.476-1.102-.979-1.577"/>
    <path d="M363.836 460.648c.79.514 1.457 1.966 2.296 1.424-.488-1-1.437-1.118-2.296-1.424"/>
    <path d="M526.88 516.295a8.094 8.094 0 0 0 1.053-2.3c-.771 1.25-2.361 2.796-1.787 4.674.162-.833.445-1.607.734-2.374"/>
    <path d="M530.45 510.386c.044.18.09.359.135.538.81-.766 1.873-1.275 2.498-2.23-.913.52-1.71 1.19-2.634 1.692"/>
    <path d="M329.044 309.797c-.766.151-.537.911.558 1.62.488-.295.37-.93-.558-1.62"/>
    <path d="M330.647 308.715c-.461.24-.73.63-.805 1.173.834.198 2.16.049.805-1.173"/>
    <path d="M330.874 310.337c-.155.241-.133.571.066.99l-.066-.99"/>
    <path d="M332.12 308.444c.14.306.362.607.663.902l-.664-.902"/>
    <path d="M617.978 496.5c-.691-.328-.605-1.188-.443-1.629-.054.554.094 1.096.443 1.628"/>
    <path d="M648.206 484.765a7.108 7.108 0 0 1-.476 1.637c-.084-.662.075-1.208.476-1.637"/>
    <path d="M544.977 500.136c-.494.63-1.21 1.035-1.67 1.7.87-.639 1.835-1.198 2.472-2.087-.267.13-.535.258-.802.387"/>
    <path d="M569.085 497.66c-.702-.957-1.823-.565-2.34-.077.84.52 1.978 1.116 2.34.078"/>
    <path d="M573.409 500.677c.454-2.182-2.259.257 0 0"/>
    <path d="m588.171 492.468-.64.465c.868.582 1.081.426.64-.465"/>
    <path d="M619.825 497.042c1.065.446 2.157-.553 2.846-1.008-.513.572-1.832 1.636-2.846 1.008"/>
    <path d="m653.63 509.156.09.769c-.452-1.023-.881-2.19-.367-3.078.7.768.311 1.563.277 2.31"/>
    <path d="m655.41 513.61c0.83 1.776 1.555 3.68 1.856 5.518-0.707-1.817-1.569-3.655-1.856-5.518"/>
    <path d="M656.968 536.647a19.7 19.7 0 0 1-2.282 3.107c.786-.83.952-2.898 2.282-3.107"/>
    <path d="m641.56 523.178.018.763a4.382 4.382 0 0 1-.019-.763"/>
    <path d="m642.28 525.772.877.61c-.306.048-1.27-.598-.877-.61"/>
    <path d="M642.91 525.926a11.11 11.11 0 0 0-.578-1.603c.475.5.667 1.033.577 1.603"/>
    <path d="M644.07 525.467a1.816 1.816 0 0 1 1.242-1.45c-.502.407-.75 1.037-1.242 1.45"/>
    <path d="M692.863 444.01a4.523 4.523 0 0 1-1.204.08c1.863-.647 1.721-3.116 1.483-5.052.324 1.741.43 3.603-.279 4.973"/>
    <path d="M704.281 391.191c-.098.613-.476 1.096-1.07 1.25.023-.656.356-1.259 1.07-1.25"/>
    <path d="M709.286 390.941c-.246.057-3.699.34-1.362.584-.757.217-1.666.093-2.37.415 1.61-.6-.305-.329-.973-.583.434-1.391.852-1.544 2.188-1.97.744-.238.763-1.054 1.694-1.079.718-.02 1.514.252 2.225.213 1.09-.063 2.093-.527 3.252-.606 1.765-.121 2.489-1.46 4.023-1.903-.924.653-1.707 1.462-2.491 2.26 1.2.601 1.235-.473 1.85-.877.786-.517 2.423-.139 3.371-.548-2.318 3.168-7.558 3.087-11.407 4.094"/>
    <path d="M725.834 381.313c.12.738-.11 1.373-.566 1.764-.158-.692-.144-1.63.566-1.764"/>
    <path d="M730.904 382.994c.959 1.416-1.226 1.197-1.943 1.174.68-.347.971-1.25 1.943-1.174"/>
    <path d="M735.2 385.173c-.56.058-1.148-.054-1.765-.334.668-.135 1.836-.051 1.41-1.174.382.537.5 1.04.355 1.508"/>
    <path d="M743.97 353.655c-.094.287-.188.573-.28.862-.13-.435-.037-.72.28-.862"/>
    <path d="M745.718 354.601c.261.686.037 1.066-.612 1.033-.067-.561.137-.906.612-1.033"/>
    <path d="m747.525 355.463-.763.345c.22-.169.473-.285.763-.345"/>
    <path d="M748.777 352.965c1.02 1.111-.385 1.53-.761 2.068-1.048-.95-.343-2.408.761-2.068"/>
    <path d="m597.884 323.127-.385-.624c.691-.13 2.108.372 1.607-.889-1.803-.24-3.914.284-4.863 1.294-.32.34-1.094 1.046-.937 1.716.208.88 1.169.753 1.38.454-.51.258-.658.833-.07 1.595.714-1.503 1.702-2.864 3.268-3.546"/>
    <path d="M593.929 314.47c-1.173-.586-6.135 2.053-5.02 3.49 1.978-.79 3.092-2.66 5.02-3.49"/>
    <path d="M631.16 335.834a4.336 4.336 0 0 0-1.018 1.578c1.044-.09 2.87.192 1.018-1.578"/>
    <path d="m616.841 339.685-.396-.35c-.316.481-.34 1.093-.076 1.836.515-.223.734-.771.472-1.486"/>
    <path d="M602.768 347.257c-.71.564.263 2.303 1.067.918.68-1.209 1.055-2.604 1.493-3.957-1.6.26-1.51 2.218-2.56 3.04"/>
    <path d="M45.569 568.724c.136-.807 1.214-1.105.936-2.095-.482.484-1.535 1.09-.936 2.095"/>
    <path d="M51.317 567.9c.698-.501 1.938-3.36-.21-3.256-2.526.123-3.146 2.792.21 3.257"/>
    <path d="M63.825 573.43c2.126.352-1.042-3.732-1.41-3.715-.501.023-2.09.856-1.93 1.468.38 1.456 2.415 1.409 3.34 2.248"/>
    <path d="M70.984 575.296c.669.022 1.065-.413.82-1.12-1.108.288-4.013-1.165-3.926.748 1.024-.094 2.03.097 3.106.372"/>
    <path d="M70.724 578.054c1.353-.431-.155-2-1.183-1.49.365.515.76 1.012 1.183 1.49"/>
    <path d="M74.752 579.47c.725-.323 3.494-.292 2.594-1.876-.807-1.422-1.864-.95-2.912-1.139-.59-.108-1.723-1.445-1.968-.56-.21.761.061 1.18.862 1.642 1.096.633.612 1.133 1.424 1.933"/>
    <path d="M80.315 593.805c.96.306 1.852-1.16 2.283-1.66 1.044-1.21 2.786-1.202 3.959-2.21 1.296-1.112-.612-1.901-1.315-3.104-.393-.671.01-1.156-.766-1.733-.879-.654-1.732-.99-2.663-1.486-.77-.41-2.63-1.796-2.848-.496-.093.562.425.919.479 1.451.067.684-1.025 1.224-1.362 1.643-.894 1.114.808 2.915.96 4.26.172 1.522-.607 2.267 1.273 3.335"/>
    <path d="M2592.44 265.464c1.792-1.725 2.563-.59 3.783-.854-1.918-.311-2.634-3.997-6.99-1.045.86-.11 1.79.049 2.217.38.075.21-.015.488-.269.835-.11.394 1.108.406 1.259.684"/>
    <path d="M2598.053 269.813c1.017-1.723 0-1.788-2.122-.566.773.129 1.9-.07 2.122.566"/>
    <path d="M2705.003 180.206c.452-1.27-1.85-.813-2.612-1.259-.83-.485-1.071-1.797-3.103-1.31.54 1.85 5.05.941 5.715 2.569"/>
    <path d="M2626.036 275.546c.646-.822 1.534-1.385 2.245-1.312-.886-.581 1.494-1.765-.424-1.408-.134.31-.276.625-.425.94-1.395.062-1.96 1.49-1.396 1.78"/>
    <path d="M2634.289 276.108c-.179-.377-.574-.564-1.186-.563.395.189.79.376 1.186.563"/>
    <path d="M2635.35 274.703c.915-.823.752-.95-.5-.375l.5.375"/>
    <path d="M2638.088 277.698h-1.586c.628.747 1.932.941 2.798 1.49.842.535 1.126 1.753 3.092 1.215-1.153-1.122-2.797-1.865-4.304-2.705"/>
    <path d="M2643.948 274.984c1.593-1.202.198-1.391-.256-1.595-1.713 1.26-.432 1.522.256 1.595"/>
    <path d="M2662.605 277.978c.769-1.123.36-2.246 2.198-2.619-1.24.043-1.998-1.678-4.296-.094.674.212 1.523.38 1.774.937-.087.248-.286.516-.6.804-.303.417.865.694.924.972"/>
    <path d="M2721.01 217.055c1.822-1.362.229-1.296-.998-.707.402.185.734.421.997.707"/>
    <path d="M2664.712 277.324c2.106-1.432 1.966.143 3.868-.935-.149-.57.971-2.195-.494-1.78-.04.336-.097.678-.171 1.031-1.25.44-2.671 1.165-3.702 1.217l.5.467"/>
    <path d="M2676.146 276.015c.393-.726.758-.851 1.099-.375-.084-.523-.646-.523-1.68 0l.581.375"/>
    <path d="M2688.21 272.168c-.983.902-4.463.885-5.54 1.315 2.73 0 6.44-1.221 9.07-1.221-.351-.311-.555-.72-.618-1.225 2.552-.251.56-3.329-1.918-.565 1.524-.325.979 1.11-.994 1.696"/>
    <path d="M2696.327 273.39c1.504-.491 2.68-.432 4.069-.752-2.569-.328-5.261-.547-8.317-.376.61.183.797.709 1.516.799.907.113 2.32-.246 2.732.328"/>
    <path d="M2703.7 270.944a6.72 6.72 0 0 0 1.573-1.226c-.372-.26-1.022-.197-1.951.19-.475.701-.415 1.155.378 1.036"/>
    <path d="M2716.873 267.83a9.127 9.127 0 0 1 1.759-1.23c-.12-.45-.621-.545-1.505-.285-.681.77-.733 1.333-.254 1.516"/>
    <path d="M2716.047 143.02c-1.285-.566-4.72 1.38-5.976.593-1.43-.91.273-3.08-.031-4.58 1.243.69 2.178 1.559 4.074 1.76 1.796.19 4.48-1.043 6.421-1.076 4.074-.07 2.531 4.107 2.59 6.7-.69-1.649-3.627-4.88-8.03-3.623l.953.225"/>
    <path d="M2669.994 278.071c-.652-.438.947-1.959.183-2.337.431.167.967.23 1.606.187-.838-.247-.105-2.521.957-1.976.518.262 1.502 1.6 1.225 2.35-1.219.373-3.123 2.066-3.126.937l-.845.84"/>
    <path d="M2673.974 275.359c1.324-.541 1.683.154.657 1.218-.426-.265-.646-.669-.657-1.218"/>
    <path d="M274.848 240.52c-.992.384-1.88 1.186-1.515 2.54.91-.488 1.626-1.304 1.515-2.54"/>
    <path d="M272.575 242.867c-.335.165-.337.523-.006 1.071.02-.346.021-.704.006-1.071"/>
    <path d="M255.056 220.684c-1.65-.749-1.67 2.146-.23 3.31.148-.554 1.209-.148 1.44-.6.401-.777-.397-1.47-1.21-2.71"/>
    <path d="M249.768 236.202c-1.501-.368-1.616.734-1.152 1.868.188-.773.805-1.223 1.152-1.868"/>
    <path d="M249.484 234.921c-.225.205-.24.534-.05.985.017-.328.036-.655.05-.985"/>
    <path d="M250.277 229.875c-.294.018-.503.117-.624.3l.624-.3"/>
    <path d="M241.615 212.493c.504-.124.998-.26 1.481-.405-.478.251-2.18 1.56.433 1.828-1.562.675-1.786 2.138-2.04 3.846 1.725.392 2.592-.831 3.263-1.515.399-.408-.07-1.389.389-1.722.575-.416 1.885.088 1.9-.812a43.17 43.17 0 0 0-1.527-.711c1.454.132 1.149-.86.221-2.21-.621-.909-1.688-2.07-2.014-2.892-.29-.729.423-.792-.057-1.64 2.234 1.915 1.533 3.331 3.55 5.215-.775-1.73-2.754-5.047-2.701-6.344-1.181.039-2.716-.328-3.728-.103l-1.488-2.058c-1.132-.139-.117 3.153.773 1.854.105 2.357.096 4.67 1.545 7.67"/>
    <path d="M263.827 237.087c1.32.098.938-1.204.99-2.069.203.742.25 1.398.14 1.97.67-.766 1.276-1.508.708-3.055 1.306 1.942.37 3.068-.747 3.546 1.424.49 1.767-.35 1.726-1.179.29.734.202 1.325-.29 1.572 2.792 1.153 2.868-2.483 2.704-3.914-.09-.8-.623-2.426-2.15-3.387-2.556-1.61-2.004 1.075-3.593.792 2.497.121.306.891-.064.99 2.373.195.377.566.022.788-.37.232.668 1.06.298 1.291-.579.36-1.922 1.22.256 2.655"/>
    <path d="m-12.81 257.27c-3.947-2.527-4.275 1.576-4.759 2.279-1.35 1.835-3.33 3.316-4.821 5.062 3.187-2.464 7.637-4.02 9.58-7.341"/>
    <path d="M-11.681 259.946c3.02.34 4.07-1.626 6.128-2.183 1.144-.31 4.517-1.52 3.349-3.276-.35.227-.784.387-1.3.48.288-.74 3.61-1.18 1.361-3.177-.4.731-1.087 1.264-1.719 1.83-.098-.623-.304-1.297-.617-2.023-1.531.028-5.583 2.364-.15 3.273-.315.405-1.398.06-2.072.144-.758.096-.254 1.014-1.277.912 2.518 1.743-4.632 3.078-5.019 3.542l1.316.478"/>
    <path d="M-.857 254.968c.395-.362.73-.781.658-1.442-.51.308-1.636.25-.658 1.442"/>
    <path d="M1.487 251.404c.39-.505 1.566-.402 1.746-1.063-1.95.252-.454-1.095-2.29-.938-.904.078-1.393.75-.497 1.903.349.035.693.066 1.04.098"/>
    <path d="M4.03 250.535c.22-.598.065-1.417.26-2.031-1.052.023-1.058.913-.26 2.031"/>
    <path d="M6.097 251.308c-.624-.778-1.007-.875-1.151-.291l1.15.29"/>
    <path d="M8.558 250.439c-.718-.09-1.126.07-1.225.483.717.09 1.124-.073 1.225-.483"/>
    <path d="M9.118 245.01c-.835.816.807 2.305 2.618 2.266 1.923-.042 1.644-1.81 3.059-2.265 1.435-.463 4.414.378 5.203-.63.122-.157.306-.903.89-.68 1.12.43 2.95 1.2 1.747-.249-1.675.33-2.22-2.144-3.062-3.028-3.226-.677-3.403 1.509-6.292 1.066-3.045-.467-2.38 2.87-4.163 3.52"/>
    <path d="M25.513 246.37c-.501.104-.644.182.101.97.877.203 1.258.009 1.14-.583l-1.241-.387"/>
    <path d="M29.548 241.008c-.83-.084-2.372.007-.474 1.37.363-.324.523-.78.474-1.37"/>
    <path d="M118.661 191.003c-.815-.212-1.033.38-1.127.735.702.004 1.077-.24 1.127-.735"/>
    <path d="m108.78 178.17c-1.16-0.445-1.084 1.146-1.3 1.498a6.015 6.015 0 0 0 1.3-1.498"/>
    <path d="M140.722 183.719c.122 1.049-.912 1.35-.73 2.437 1.724-.35 3.16-1.084 3.272-2.65.12-1.626 3.184-1.216 2.773-3.195-1.108.34-1.02-.187-1.12-.96-.795 1.87-1.625 3.85-4.195 4.368"/>
    <path d="m141.224 178.816-.655-.853c-.978.208-1.82 2.136-.31 3.737-.164-1.106-.292-2.749.965-2.884"/>
    <path d="M137.253 174.845c-.2.319-.385.374.427 1.183-.141-.394-.286-.79-.427-1.183"/>
    <path d="M138.28 172.904c-.556.269-.66.892-.522 1.618.704-.173 1.785-.248.522-1.618"/>
    <path d="M152.95 179.139c-1.414-.93-2.667-.888-3.297-.723-.464.122-2.194 1.257.015 1.257-.589.156-.774.584-.559 1.28.888-.917 2.312-1.421 3.841-1.814"/>
    <path d="M166.886 183.719c-.805.595-1.966.966-1.995 2.118.543-.91 1.694-1.36 2.446-2.118h-.451"/>
    <path d="M92.167 222.692c-1.092-.08-1.943.114-1.69 1.102 1.293.3 1.755-.286 1.69-1.102"/>
    <path d="M101.639 216.752c-2.338-.98-4.776-.638-3.1 1.615 1.003-.564 1.876-1.237 3.1-1.615"/>
    <path d="M98.52 205.338c-.437.127-.532.47-.288 1.027.85.225 1.469.225 1.862 0l-1.574-1.027"/>
    <path d="M105.148 207.595c-.638-.186-.735-.378-.678.205.225-.07.45-.138.678-.205"/>
    <path d="M105.405 200.075c-1.65-.676-1.965.345-1.415 1.347.83-.168 1.415-.57 1.415-1.347"/>
    <path d="M103.773 199.868a.773.773 0 0 0-.465.516l.465-.516"/>
    <path d="M109.691 204.102c-.278.109-.362.349-.253.72l.253-.72"/>
    <path d="M33.43 239.05c-.77-.284-1.166-.218-1.191.198.389-.615.783-.386 1.183.686l.008-.883"/>
    <path d="M41.384 236.202c-1.434.038-1.468 1.311-.704 2.75.415-.137 1.428.223 1.697-.03.47-.445-.153-1.93-.029-2.62.066.573-.28.836-1.039.787a3.12 3.12 0 0 1 .075-.887"/>
    <path d="M46.63 239.933c1.14-.199.846-1.348.77-2.356.136.902-1.023.881-1.445 1.387-.557.664-.767 2.11-.791 3.12.146-.953 1.212-1.267 1.466-2.151"/>
    <path d="M44.217 236.792c-.806-.225-1.07.318-1.147.688 1.183.48 1.482.06 1.147-.688"/>
    <path d="M45.497 235.808c-.965-.442-1.342.027-1.246.492a4.316 4.316 0 0 0 1.246-.492"/>
    <path d="M50.464 238.07c-1.129.062-.315 1.53-.796 2.059 1.101-.067.816-1.224.796-2.06"/>
    <path d="M51.387 240.03a4.294 4.294 0 0 0-.506 1.274c.596-.115.742-.611.506-1.273"/>
    <path d="M-7.967 183.719c.193-.092 6.338 2.024 7.602 2.859-1.914-2.04 2.687-1.497 3.761-1.64 1.357-.183-.057-3.593-1.167-5.161-.308.148-.839.049-1.592-.297-1.57-.595-1.975.036-3.072-.077-1.536-.159-2.716.543-2.908 1.403-.196.885-8.03-.842-2.624 2.913"/>
    <path d="M38.322 199.35c.102.38.204.76.304 1.14 2.41.31 2.327-1.672 2.665-2.905-.803.731-2.445.83-2.969 1.765"/>
    <path d="m68.051 222.993-.307.601c.816.13 1.239-.07 1.27-.601h-.963"/>
    <path d="M80.694 230.47c-.801.025-.872.688-.235 1.585.196-.455.274-.984.235-1.584"/>
    <path d="M89.643 222.893c-1.95-.454-2.92.797-2.499 2.201.731-.808 2.16-1.097 2.499-2.201"/>
    <path d="M93.773 223.293c-.776-.097-1.203.103-1.279.603.654-.007 1.08-.207 1.279-.602"/>
    <path d="M93.58 219.275c-.588.372-1.145.77-1.516 1.309 2.734 1.212 4.022-1.112 4.463-2.115-.54-.245-1.077-.48-1.61-.707 2.056-.506 4.38-1.213 5.978-2.123a30.235 30.235 0 0 0-1.363-1.114c.953 0 4.878 1.035 4.35-.141-.578-1.192-2.669-1.364-2.984-1.18.963-.798 3.844.65 4.94.2.906-.371.91-1.44 1.365-2.132-.817-.225-1.406-.225-1.764 0-.708-.868.57-2.852-1.702-3.395-1.231-.295-2.36 1.064-1.963 1.967-.456-.73-.491-1.302-.059-1.534a108.266 108.266 0 0 0-3.318-1.435c3.573 3.186-2.842 1.285-.195 3.273-1.3-.648-1.812-.428-1.54.308-.105-.622-.426-1.337-.96-2.146-1.625-.297-2.114.41-2.174 1.33.612.314 1.221.62 1.827.918-.393.21-.835.381-1.33.508.527.38 1.059.753 1.596 1.12-2.383-1.056-1.123 1.522.107 2.743-1.919-1.154-2.02-3.015-3.387-3.711-2.645-1.347-3.683.89-4.174 1.524-.916 1.177.194 2.215.79 4.186.995 3.453 3.049 1.083 3.382.126-1.183-.241-1.702.206-2.075.707-.388-1.322 1.145-1.374 2.864-.805-.31.346-.587.715-.831 1.11 1.206-.16 1.568-1.033 2.394-1.516-.128.765-1.12.89-1.157 1.717 1.842-.534.365.942.045 1.008"/>
    <path d="M97.135 207.286c-3.073.171 4.94 2.735 0 0"/>
    <path d="M101.69 206.979c1.523-.235 1.545-1.59 2.205-2.465-.043.291-.059.6-.044.924 1.159-.257 2.008-.531 2.172-1.543 1.812 2.504 2.365.22 2.25-.412-.878-.145-1.257.097-1.14.724-.15-.643-.041-1.125.327-1.446-.723.282-2.606-.682-2.34.413-1.496-1.87-4.1-1.485-3.114-.164 1.15 1.538-4.006-.669-1.1 1.708-1.634-.168-2.832.62.785 2.26"/>
    <path d="M97.258 190.688c-.596.09-.931.37-1.005.84.87.112 1.205-.167 1.005-.84"/>
    <path d="M106.831 196.024c-1.008-.395-1.508-.116-1.464.416.602-.039 1.09-.178 1.464-.416"/>
    <path d="M26.06 240.618c-.067.476-.416.737-1.046.783-.536-1.226-3.677-2.514-2.431-1.123 1.45 1.617-.215 2.23-1.323 2.393-.454-2.382.838-3.624 2.393-4.7-1.478.79.69.723.907.43.361-.487.44-.977 1.167-1.221 1.713-.582 1.567-1.795 2.596-2.847 2.182-2.218 4.908-3.712 8.726-4.658-1.71.557 2.35.182 2.784 0-.393.925-.577 1.297.834 3.072 1.433.308-.194-4.158 3.662-.694.198-.13.295-.327.288-.594-5.752-2.8 4.853-8.149 5.463-8.473 1.417-.75 2.566-1.718 3.966-2.485.678-.37 1.674.046 2.754.125 1.355.099.645-1.29.6-2.149-.086-1.737 1.826-2.516 2.781-3.513 1.102-1.282 2.204-2.637 4.44-3.086.781 2.1 2.637.809 2.508.205-.105.48-.566.684-1.383.61.467-.54-.915-1.992-1.067-2.852-.173-.986.465-1.49.494-2.361.047-1.307-.086-4.276 3.68-2.456-1.203-.727-2.184-.97-2.395-.513-2.742-2.794.084-4.147 1.183-4.836 2.268-1.422 2.252-4.191 3.87-6.055-1.284.643-1.284 2.216-2.416 2.98-.93.625-2.248.947-3.213 1.546-.997.622-2.93 2.839-6.186 1.2.17-.466-.282-1.05-1.334-1.884-.748-.594.07-1.39.193-1.615.252-.462 1.545-1.688 3.133.486.442-.044.419-.357-.063-.936-.966-.199-2.544-.953-3.492-1.985.714 1.073.421 1.749.051 2.235-.285.375-1.848 2.33-1.94.167-.013 1.25-1.248 2.355-.282 4.034.676 1.171 1.078 2.962-.932 2.325-1.893-.598-3.115-4.776-5.302-4.798.072-.245.149-.488.23-.728-2.01-.66-1.598 1.032-2.33 1.456-.22-.414-.443-.83-.667-1.246-.395.315-1.432-.152-2.488-.937a2.6 2.6 0 0 1 .446-.52c-3.637-1.516-5.25 2.065-7.253 2.336-1.417.194-1.264 1.553-2.375 2.004a5.343 5.343 0 0 0-1.17.54c-.429.324-2.223-.814-2.755-.514-.071-1.38 3.558-.435 2.618-2.327-1.299-2.636-.215-2.142.964-3.292-1.078-.145-2.07-.181-2.555.209-2.793-3.323.94-3.096 1.216-4.713.108-.632-2.377-3.384-2.889-4.423-.752-1.535-1.023-2.87-.697-3.838-.658-.001-1.031.211-1.118.639-1.365-3.706 1.678-4.648 3.256-6.527-.718.196-.66 1.332-2.068-.323.61 1.16-3.978 5.34-3.26 5.847 5.634 3.965-9.347 5.151-11.563 4.716-1.239-1.31-.3-1.427-.135-2.012-1.852-.462-4.55-3.256-4.094-3.834-.463 1.482-4.296-.905-2.725-1.924-.894-.238-1.528-.238-1.904 0-.956-1.962 1.612-1.853 2.206-2.857.192-.32.515-.673.35-1.213-.322-1.05 1.231-.34 1.754-.774.427 1.816 1.118.676 3.051 1.769 1.274.718-.859 2.025-1.131 2.213 1.877-.384 2-2.086 3.881-2.47.73.883 1.057 1.652.945 2.15 1.422.274 2.94-.334 2.695-1.339-.24-.99-2.09-1.728-2.719-1.566.487-.4 1.529-.354 2.013-.757-1.257-.036-1.563-.324-.926-.862-2.145.022-2.155 1.764-4.853 1.31-1.848-.311-5.39-1.6-5.595-.446-1.49-1.655.76-2.172 1.79-2.272-1.089-.337-1.566-.19-1.436.434-.875-.861-1.135-1.538-.638-1.734-.221.326-.59.543-1.106.652-1.2-1.396.057-1.735.076-2.5-1.813.323.75 3.875-2.125 3.367-1.597-1.318-.413-1.603-2.465-2.73-1.725-.949.266-1.888.35-2.165-1.206-.613-1.977-.759-2.311-.437-2.216-2.485 1.086-1.54 2.269-1.86-1.945.127-1.687-1.839-.319-1.74 2.018.148.902-3.096 1.684-4.023 1.078-1.28 2.185-2.552 3.509-3.667.395-.331.813-.854 1.857-.645 1.58.317 1.985 1.542 1.556 1.799.507-.19.87-.487 1.087-.89-3.136-.535.502-3.205.95-3.572-.905.459-1.408 1.217-2.307 1.677-1.276-2.676-.581-5.954 3.493-4.82-3.956-2.08.432-2.849 1.187-2.916.724-.066 1.972.215 3.253.738 2.442.995-.407 2.14-.427 2.514 1.29-1.657 6.088-.638 7.253-2.401 1.136-1.71 2.562-3.28 4.746-4.274.063.366.15.745.26 1.137 5.124.21 8.887-.56 9.869-3.53.396-1.181-.202-2.832-.5-4.416-.185-.987-3.093-5.609-4.381-3.989.318-.483 9.433-2.788 2.817-6.066.308-.17.634-.326.977-.47-1.57.164-1.945 1.172-2.767 1.874-.823.707-3.825-.338-4.198.703 1.907-.657-.312.6-.461.672-.768.358-1.719.59-2.59.886-1.817.618-1.765 2.517-3.436 3.214-.647-1.713-3.159-4.317-4.4-3.136.727.344 1.457.693 2.188 1.046-.495.54.348 1.723-1.709.56a11.965 11.965 0 0 0-3.175-1.26c-2.045-.477-3.478-.296-4.785-.087-3.052.49-4.366 1.671-8.885.858-.706-.128-6.99-1.122-7.53-2.636-.288-.75 1.406-.987-.55-2.336-3.312-2.29-3.984-4.251-2.696-4.601-.29.35-.445.785-.466 1.302 2.67 1.313 3.13.406 3.264-.409.148-.883 1.933-.474 3.41-.302-4.588-2.569-7.556-1.96-10.132-2.22-.872-.088-3.728-1.634-4.96-2.418-2.207-1.408.71-1.912 1.227-2.025-.43.487-1.03.858-1.666 1.198 3.247.688 3.143-1.287 4.505-2.063 1.216-.69 4.146-.093 4.13-1.676-.026-3.478 7.88-1.153 10.906-2.267a67.207 67.207 0 0 1-2.013-.847c-1.195-2.799 2.867-2.513 5.229-2.794 3.775-.448 4.96-2.945 10.35-2.069-1.305-.19-.922 1.592-.967 2.296-.115 1.391-1.056 2.02-2.044 2.808.584-.311.985.134 2.154.91 1.277.844 2.296.543 2.777.486 1.025-.12 2.224-.098 3.383-.1.751-.001 3.37-.623 2.833 1.119.648-1.71 6.06.476 7.213-.844 1.148 0-.217-4.092 4.493-1.93.152.436.244.839.274 1.208.554-.473 1.333-.853.26-2.3-3.724-1.826-5.449-1.175-6.328-.244-.094-.956 1.404-1.612-.912-3.53-1.944-1.614-3.143-1.288-4.032-2.866-1.62-2.894 4.676.219 4.208 1.73-.943 3.088 6.547 2.604 6.443 2.55 4.803 2.537 9.494 2.04 6.559-1.66a7.051 7.051 0 0 0-1.574.49c-1.084-.077-2.942-1.035-3.71-.799-1.19.369-.918 2.169-3.535 1.346-4.34-1.366-2.315-5.388-.785-5.212-3.57-2.721-3.515.234-5.434-1.482.184.706-.159 1.035-1.027.989-.141-.928.39-1.432.658-2.102-1.357-.162-1.011 1.083-1.45 1.603-.6.713-4.176.017-6.04-.386-4.224-.913-2.925-2.168-4.052-4.148C15.724 90.8 9.696 86.32 5.602 84.9c-1.334-.464-2.504-.208-4.334-1.646-2.762-2.178-3.64-2.109-5.29-2.256 2.976-.444 3.328-2.643 3.724-4.827.465-2.49 4.114-1.823 7.56-2.191 7.54-.807 11.814-3.396 15.336-7.265-.14.47-.326.91-.559 1.317 2.796-1 1.379-5.283 3.524-6.887 2.606-1.944 2.813-5.662 6.874-6.458-.117.593 1.157 1.63.47 1.895 2.487-.842 5.858-1.058 7.612-2.437 1.619-1.27 2.451-3.265 6.02-3.129.35 1.014 0 1.669-1.218 1.637 2.562-.693.932 1.257.7 1.628.487-.524 1.18-.072 2.085 1.356-.172-1.044-.295-2.063-.089-2.89.257-1.018 3.045-.206 3.93-.776-1.045 0-2.19-.071-2.793.273-1.548-1.598-3.07-2.024-3.355-1.501 1.049-1.84 4.035-2.329 6.152-3.431-.088.51-.389.877-.899 1.1 6.503 1.548 10.667-.444 13.491-1.903 3.465-1.783 5.401-4.705 8.644-6.705-.453.318-.604.831-.457 1.54.92.293 6.273.921 7.116 2.564 1.215 2.34-2.115 2.593-4.247 2.576 1.671 1.116 1.974 1.915 1.593 2.201 1.183-.8 2.525-1.49 3.456-2.48.57-.6 1.03-1.281 1.65-1.851.301-.276 1.593-2.342 1.95.33-.043-.457.803-1.183 2.464-.006 2.63 1.856.103 2.233-.53 2.356 5.138 2.63 5.977.517 7.706-.004 2.44-.73 6.353-.813 10.858.28.854 1.667-.446 2.073-.74 3.02 1.15.441 2.092.671 2.82.684-1.181.226-2.967-.045-3.862.41 2.585.373 4.308 0 6.46 0l-.944 1.09c3.317 1.256 5.168 1.1 6.607.643.873-.276 1.646-.633 2.667-.796.558-.089 2.488-.965 2.45.696 3.19 0 5.009-1.27 8.84-.734 1.19.167 3.163.575 4.984 1.46 2.831 1.373 3.307.27 5.74 1.279 5.927 2.484 7.683 1.06 11.81 1.647 1.252.178 2.706-.674 4.902 1.001.923.745 3.343.127 2.791 1.29 1.835-.06 3.867.074 5.664-.023.907-.039 1.72-.164 2.448-.369.654-.851 1.092-.72 1.311.392-1.154-2.984 5.62-1.746 8.991-.82 2.285.628 4.992 2.885 7.16 3.378 1.655.376 1.808.583 3.707 1.786 2.257 1.426 1.638-.467 3.58.46-1.207 9.223.796 20.348.053 29.985-.607 9.883-.22 20.2-.054 30.198-.062 10.034.348 20.206.13 30.005-.355 4.71-.4 9.539-.335 14.382.042 2.239.288 4.623-.05 6.65-.225 1.382-.926 3.027.853 5.395 1.37.328 2.697.758 3.233.182.551-.591 2.437.557 3.611.698 1.423.172 1.906-.984 2.815-1.32 1.077-.4 2.486-.496 4.32-.092-.167.919-1.139 1.447-.588 2.791.566 1.378 2.668 1.69 3.955 3.205 1.715 2.013 4.441 3.824 6.75 5.663 2.215 1.759 2.22 3.454 2.724 4.792 1.962-1.258 4.68-1.883 6.207-3.468.66-.695 1.064-1.588 1.06-2.735.3-.155.682-.235 1.144-.24.318-.346-.414-1.148-.192-1.52.381-.64 1.732-.463 2.585-.689.936-.247 2.24-1.878 3.848-1.292 5.485 1.997 1.593 4.005 5.087 5.963.946.53 2.55 1.047 3.019 2.027.396.888 1.322 2.583 2.724 3.328 4.186 2.224 3.937 3.504 5.813 6.071 1.718 2.34 3.127 4.626 5.032 6.979 1.215 1.498 3.34 3.696 3.515 4.922.055.792-.339 1.893 1.634 2.482-.912.76.906 3.064 1.836 4.626 1.34-.27 5.586 1.814 7.61 2.888 2.11 1.12 3.408 3.075 5.221 2.804.796 1.74-.149 2.315-.67 3.243-.681 1.214.623 3.24 1.059 5.01.766 3.399-3.293 5.204-5.274 6.618a18.025 18.025 0 0 1-.258-2.05c-.078.848-.3 1.649-1.112 1.95-2.011-3.253 1.807-4.764 3.117-6.07-.46.24-3.567 3.266-4.627 1.474-.726-1.228 2.805-1.333 3.57-1.278-.669-.084-1.3-.116-1.893-.097-.218-1.549.58-3.483-.98-5.579-1.79-2.41-.593-2.09-.141-3.418-1.396.748-2.221 2.118-4.41 2.086a9.39 9.39 0 0 1 1.09-.695c-.387.226-4.03.915-3.295 1.671 1.133 1.165.282.902.195 1.59-.131 1.075-1.032-.053-.828 1.227.13.798-1.529.773-1.812-.314-.342-1.313.349-2.024.867-2.785.558-.814.934-1.713.91-2.92-.023-1.176 2.162-.532 3.165-.756-1.25-.319-2.24-.072-3.638-1.596.699.96.567 2.747-.892 2.044-2.1-1.012-1.602-3.15-1.434-3.743.451.711 1.112 1.257 1.83 1.3-1.075-.839-1.66-1.64-1.753-2.402a22.19 22.19 0 0 0-1.283-.4c.692-.444.109-1.772.94-2.11-.545.351-1.098.664-2.475-.417-1.835-1.443.04-1.26-.56-2.403-.298.745-2.118-.049-2.978-1.316.02 1.428-2.605-.132-1.79-1.159.498-.73 2.36-.293 3.162-.766-.846.073-1.425.431-2.635.102.95-.581-1.95-2.613-.107-2.744-.777.277-2.256-.974-1.689-1.423.433-.341 2.694 1.103 3.55 1.628-.699-1.184-2.602-1.667-3.2-2.683-1.126-1.916 1.61-1.236 3.173-.786-2.724-1.22-3.6-.485-3.954.715-1.79-1.263-1.119-3.325-.564-3.791-.47.19-.788 2.13-1.859 1.23-1.088-.915-1.081-1.828-1.033-2.357.128-1.448.877-2.857 2.24-3.41-1.947-.185-2.454 1.33-2.53 2.643-.101 1.81-2.956-.746-4.892-.988.088-.749-.886-1.821-1.526-2.835-.576-.913.135-1.312-.039-2.032-.266 1.947-2.322-2.859-2.458-3.43-.429-1.5-.783-3.078-.526-4.201-.312.461-.21 1.206-.63 1.591-.698.638.598 1.028.839 2.286-2.409-2.18-.826.904-.487 1.905.442 1.3.45 2.962 1.358 4.399 1.094 1.725 1.645 3.603.367 3.975-1.157.336-2.1-1.672-2.25-2.279.161 1.101-2.264.449-3.269.516-.484-2.498-1.58-5.106.696-5.7-1.14-.533-1.768-.374-1.686.312-1.029-2.783-1.139 1.02-1.47 1.168-1.077.477-2.553-2.197-3.676-2.937 1.124 1.573-.764.906-2.064-.21.81 1.488-.854 1.651-1.345 2.291.768-.585 2.266-.176 3.561-.208.42.816 1.978 3.1 2.015 1.455.035.622-.217 1.037-.756 1.244.797-.05 1.249-.92 2.872.622-.81.1-.258.494.34 1.248.925 1.165-.697 1.492-1.291 1.644-.328-1.83-1.855-1.15-2.074-.722 1.946-.245.154.355-.34.328-.891-.052.315 1.416-.734 1.425-.394-1.613-7.823-3.327-6.444-4.856-.925.461-2.534-1.231-3.258-2.29-1.138-1.666-2.789-2.818-4.65-3.12.081-.402.322-.68.73-.836-1.636-.193-3.746.3-6.143-2.306-.15.956-2.475-.884-3.728-1.367-.194-1.175 1.176-1.295 1.108-2.395-.06-.98-.786-2.235-.137-2.803 1.62-1.408 2.338 3.61 2.487 3.828-.409-1.526-.514-3.635 2.582-2.217-1.436-.615-4.234-2.699-5.049-2.3-1.062.522-1.361 1.71-2.465 2.244-2.55 1.24-5.545 1.55-11.205-.685.178-.776 1.4-1.045-.001-2.655-1.56-.142-.737 1.63-2.69 1.28-2.576-.464-5.196-.982-7.77-1.438-4.574-.81-5.144 2.686-10.586.9 2.1-.27-5.2-3.264-5.968-3.087-.815-2.61 1.92-2.915 2.07-4.93-2.21.492-2.561 2.292-3.872 3.459-.343.307-.822 1.029-1.84.726-1.198-.356-2.907-1.585-3.562-1.18.037-1.1.854-1.706 1.535-2.36-.394.104-3.614.966-2.308-.322-.776.204-1.508.444-2.284.645.115-.737.952-.936 1.574-1.288-1.708-.126-2.326.842-4.31.43.364-1.044 1.89-1.822 3.82-1.51-1.83-.822-1.908.761-3.777-.173-2.28-1.14 1.21-2.945 2.488-2.742-2.68-1.427-3.698-.133-4.22.62-.685.974-3.02.783-4.132 1.54-.078-.36-.151-.72-.234-1.08-.418.248-.74.572-.964.971-.468-1.233.162-1.827-.065-2.92-.622.959.371 3.315-1.218 3.57-.042-.359-.088-.719-.134-1.08-.693.093-.863.636-.553 1.403-3.541-1.914.268-4.537.323-5.303-1.038.57-1.638 1.485-2.152 2.434-.467.86-3.551-.706-3.267.817.83-.168 1.183-.726 2.05-.864.016 2.13-2.594 1.904-3.652 3.133 2.252-.241-.382.92-.45 1.399.946-.088 1.016-.88 1.961-.968.084.361.162.72.234 1.077.472-.197.828-.484 1.068-.86 1.505 2.744-2.092 2.245-3.197 3.22 1.63-.394 3.003-.702 4.36-1.286 3.391 2.616-2.619 3.015-2.206 4.385.627-.012 1.053-.19 1.282-.533.033.432.049 1.986.633.64-.064 1.039-.882 1.827-1.807 2.248-.526.239-1.04.361-1.385.75-.627.713-2.684-.26-4.095-.339.106-.295.28-.542.52-.743-1.357.04-1.539.986-1.694 1.91-.156-.801-.454-1.676-.75-2.55-1.067.123-2.622 2.695-1.146 4.242-1.086-.878-1.444-1.615-1.022-1.906-.336.281-1.392.013-1.556.424-.194.492.958 1.687.807 2.221-1.947-2.079-1.954-.67-2.104-.094-.28 1.062-1.57 1.843-2.543 2.412-.08-1.13.592-1.81.996-2.636-1.146.57-1.043 2.015-1.966 2.74-.104-.375-.229-.76-.377-1.158-1.715-.2-.866 1.75-1.786 2.185-1.408.668-.96 1.268-3.732.652 2.68 1.78.52.94-.438.737-1.28-.272-1.595.561-2.22.86-.488.23-2.163-.575-2.788-1.49-.34-.5.473-.695.694-.822 2.256-1.304 3.982-3.134 6.392-4.336-2.455-.57-1.677 2.493-5.091.802-2.94-1.457 1.012-5.351 1.565-6.005.711-.84 1.335-1.76 1.48-2.987.096-.78-1.489-2.805-.777-3.195 2.38-1.308 5.033-2.484 7.549-3.694 1.875 1.926 2.89 1.41 3.593 1.072 1.199-.584 4.611.28 7.003.98-3.116-1.821-8.803-2.409-7.207-4.833.926-1.4 3.037-1.986 5.155-2.435-3.722-1.29-3.893 1.053-5.119 2.003-.436.338-2.947 1.899-4.639-.696.233 1.342-1.312 1.659-2.648 1.822-1.592.193-1.319 1.774-2.555 2.23-1.323.486-3.022.423-3.35 1.712-.24.92-.552 1.592-1.515 1.982-1.94.788-3.054 1.367-3.061 3.448 0 1.122-1.235 1.524-2.094 2.033-.899.532-3.523-1.261-4.077-.615 1.481-.375 4.094 2.538 3.616 3.256-.898 1.351-3.461 1.135-4.852 2.06 1.795-.157 2.047 1.48 1.532 1.726-.66.316-2.207-.038-2.457.6.678-1.874-.834-.253-1.033.006-.417.54-1.94.573-2.119 1.199-.084.298.51.903.35 1.167-.283.473-1.767.664-2.522.784 2.382.02.072.734-.215.992-.609.542-1.232 1.293-.448 2.671 1.205-.135 2.536-.658 4.651.247 3.724 1.59 1.31 3.388.847 3.694-1.096.726-3.134.746-3.514 1.969-.198.64-1.22.487-1.165 1.312.083 1.208-1.825.813-1.886 1.902.252-.333.663-.54 1.237-.618-.33.62.075 3.835-2.068 1.545.568 1.42-2.033 1.452-3.193 1.695-1.239.259-1.418 1.015-2.016 1.768-.664.843-2.422.748-3.211 1.419-.966.818-.974 2.379-2.908 2.371-1.077-.004-.1 1.325-1.37.93-1.704-.53-2.238 1.47-2.974 1.823 1.598-.31 1.243 1.218 1.092 1.748-.225.805-1.66.787-1.925 1.607-.218.68-1.309.726-2.18.853-1.326.198-1.11 1.137-1.929 1.642-.388.24-1.537-.958-1.86-.696-.367.296-1.595.798-.97 1.69.775 1.1-.235 1.171-1.26.925-1.898-.457-2.24-.013-3.193.494 2.633.277-.136 1.079-.803 1.089-1.986.028-2.969 1.148-3.56 2.31.801-.12.833-.955 2.23-.498-.135.676-.226.955 1.134 1.097-.289.574-1.339.52-1.748.996-.346.402.235 1.512-.562 1.59-.792-1.134-.448-1.763.172-2.088-1.87-.76-1.337 1.128-1.482 1.787-.192.877-1.59 1.19-2.732 1.302-1.518.15-3.07.007-3.662.989-.546.908.17 2.862-1.753 2.762.474-.569.625-1.363.557-2.273-2.211-1.224-3.309.114-3.73.719-.302.435-.758.488-1.528.538-.93.059-.96 1.357-1.273 1.903-.904-2.032-1.012-.468-1.084-.106-.112.555-.863.502-1.93.137-.523-.18-1.303.675-1.48.764-.748.373-2.281.152-2.888.584-.138-1.51.652-1.987 2.65-1.87-4.88-2.925-4.599.965-5.153 2.232-.254.547-1.139.57-1.517 1.015-.337.397.142 1.275-.198 1.667-.346.392-1.731-1.287-1.266.028.27.756-.703.858-1.702.56.72-.41-.62-1.624-1.277-2.646-2.202-.388 1.539 3.476-.858 2.937"/>
    <path d="M28.864 140.973c-1.91-1.567-2.627-.068-2.476.454 1.232.201 2.23.14 2.476-.454"/>
    <path d="M-29.495 146.19c-.028-1.717-1.16-4.012 2.107-3.396 1.077.201 2.855 1.204 4.058 1.547 1.437.41 1.375-.504 3.133.039 1.16 2.286-2.067 1.364-3.76 1.696 2.049-.434-1.16.159-1.384.526-.422.7-.398 1.688-1.141 2.18-.196-.637-.863-1.426-2-2.367.243.412.489.826.742 1.242a13.057 13.057 0 0 0-1.755-1.466"/>
    <path d="m-29.958 110.64c-0.067-3.982 4.171 1.77 0 0"/>
    <path d="M137.294 183.719c.298-.629.691-1.194 1.307-1.595.199.953-.598 1.282-1.307 1.595"/>
    <path d="M137.638 182.975c-.232.365-.688.542-1.369.53.926-.156.416-1.365 1.517-1.382-.048.286-.098.569-.148.852"/>
    <path d="m241.7 203.07a5.152 5.152 0 0 1 1.541 1.03c-1.134 0.9-3.623-1.487-1.541-1.03"/>
    <path d="M237.501 222.893c.516-.42.334-1.635 1.813-1.104-1.118 1.324-1.511 2.645 1.081 5.7 1.395-.908.863-3.472.743-5.385a19.045 19.045 0 0 0-.457-3.123c-.353-1.548-1.8-3.686-1.993-5.065-1.358-.625-3.01-1.344-3.289-.61 1.542-.667-1.136-.626-1.434.007-.185.398-.286 2.108 1.43 2.225-.119.45-.538 1.574.658.708-1.316.485 1.058 3.418-.575 3.734 2.743.384.58 2.22 2.203 1.308-.304.387-.365.92-.18 1.605"/>
    <path d="M244.559 229.48c.37-.293.288-.82-.11-1.533-.37-.667.786-.794.702-1.355.429 2.228.754.083.882-.204.221-.495.744-.687.855-1.312.112-.619-.566-1.604-.478-2.23.225-.165.613-.127 1.162.115.682-.071.378-1.034.175-1.674-1.089-.063-1.219.759-1.989 1.004.67-.604 1.429-2.047-1.452-3.318 2.143 2.364-1.51-.641-.448 1.51-1.432-1.307-1.055.619-.869 1.306 1.829-.45.967 1.286.441 1.406 4.144 1.182-1.09 3.28.976 2.698-.798.602-1.152 1.874.153 3.588"/>
    <path d="M227.549 208.208c.501 1.159 2.2 2.19 3.517 3.164-1.58 0 .153.666 1.43 2.035-2.583-1.933-.416.75 1.033.248.775-.268.443-3.115-1.426-2.692.719-.007.738-.469-.066-1.326 1.965.679 5.29 3.373 6.886 3.509 1.394.118.587-1.908.113-3-1.313-.597-1.53-.058-2.434-.152-.877-.09-2.542-1.657-3.588-2.097 1.587-.172 4.555 2.105 5.625 1.227a81.476 81.476 0 0 0-1.547-1.022c.931.207 3.007-.64.412-1.91-3.385-1.658-3.088.719-4.331 1.295-.779-1.604 1.674-1.09.769-2.772-2.054-.754-5.28-.776-4.661.924-1.395-1.899-1.152-.452-1.304.213-.149.658 1.2 1.796 2.235 2.657-.932-.81-1.94-1.271-2.532-1.126.004-.418-.227-.931-.694-1.538-.59.383-1.12 1.375.313 2.767.087-.13.168-.267.25-.404"/>
    <path d="M239.822 213.713c-.636-.29-1.018-.29-1.144 0 .43.37.886.709 1.369 1.014a3.501 3.501 0 0 0-.225-1.014"/>
    <path d="M249.017 224.695c.794-.095 1.592-.356 2.302-.5.587-.121 2.834-1.45.374-1.703.385-.345.298-1.036-.572-1.91 4.628 4.224 3.107-1.458 1.04-2.315-1.513-.615-8.807-1.487-4.388 1.31-1.647-.169.134 1.456.411.403.048 1.117-1.117 2.906.833 4.715"/>
    <path d="M255.673 224.395c-.707.27-4.516-.085-1.98 2.112 1.777 1.539 2.328-1.325 1.98-2.112"/>
    <path d="M258.021 225.792c-1.173-.385-2.591 1.05-2.071 2.056.421.813 2.187 1.608 2.812 2.621 1.138-.278.071-2.123 1.197-2.386-.994-.764-2.031-1.187-2.554-.894.604-.153.813-.679.616-1.397"/>
    <path d="M233.093 214.626c-1.115.006-1.367 2.721-.949 3.841 1.206-.057 3.614-1.746.95-3.841"/>
    <path d="M244.755 230.67c-1.188-1.062-1.949 0-1.175.891a4.792 4.792 0 0 1 1.175-.892"/>
    <path d="M248.314 235.808c.1-.332.09-.727-.029-1.183a9.124 9.124 0 0 0-1 .987l1.029.196"/>
    <path d="M252.427 237.972c-1.5.175-.19 5.853 2.864 6.348 1.09.177-.628-2.005-1.24-2.626-.762-.773-1.595-3.016-1.624-3.722"/>
    <path d="M250.941 236.989c-.828.068-1.296.549-.97 1.473 1.068.154 1.899-.2.97-1.473"/>
    <path d="M256.104 241.89c-1.8-1.091-1.04.615-.107 1.463-.526-.777-.456-1.327.107-1.464"/>
    <path d="m257.006 240.227-.39.587c2.494-.126.153 2.417 2.188 1.857a2.668 2.668 0 0 0-.316.78c3.169 1.99 2.695-1.651 2.465-2.93a6.09 6.09 0 0 1-1.576.293c.779-.643 1.29-1.498 1.663-2.45-.506.132-1.138.1-1.894-.098.62-.095.817-.597.62-1.277-.972-.56-1.767-.79-2.386-.689.441-.221.94-.385 1.5-.492-1.68-1.03-2.279-.424-2.859 0 .615-.724 1.055-1.948 3.557-.099-.361-.985-2.02-3.645-2.87-4.765-.933-1.237-2.675-1.709-3.684-1.963 0-.806.39-1.783-1.03-3.088-1.398.314-3.278-.235-3.474 1.197.963.523 1.708.69 2.237.498.512 1.355-4.63.323-2.963 3.08.77-.927 3.42-.545 3.256-2.185.628 1.562-.537 2.3.324 3.474.093-.285.168-.582.224-.891.67 1.51-2.337 1.154-.434 3.165.931-.01 1.326-.542 2.118-.692-.496.772-1.164 1.537 1.127 3.253-1.157.145-3.476-.892-2.907.787.756.193 1.386.226 1.895.098-1.46.883.885.518.952 0 .32 1.279 2.331 1.732 1.447.295.613.802.71 1.47.295 1.765.595-.593.9-.43.915.49"/>
    <path d="M246.13 230.967c.66.185.873-.013.64-.596-.426.025-.64.224-.64.596"/>
    <path d="M254.544 238.56c.165.727.232 1.461-.141 1.863 1.346.388 1.457-.68.14-1.863"/>
    <path d="M251.137 234.822c-.349.037-.503.235-.464.592l.464-.592"/>
    <path d="M250.687 231.858c-.63.118-4.242-.864-1.534 1.088-.194-1.003 1.006-.673 1.534-1.088"/>
    <path d="M266.626 240.814c-.655.187-1.457.26-1.625.88 1.414.654 2.117.217 1.625-.88"/>
    <path d="M262.24 236.103c-.387.502-.695 1.45.757 2.654.334-.517 1.05-1.42-.758-2.654"/>
    <path d="M264.956 238.07c-1.608-.856-.967 1.636-.628 2.353 1.72.603 2.068-.875.628-2.353"/>
    <path d="M251.6 231.066c-.03.326-.105.623-.223.891-1.045-1.024-.97-1.322.223-.891"/>
    <path d="M330.232 414.231c-.454-2.225-4.385-4.138-5.163-6.645-.88-2.848.09-5.42-1.292-8.333-.537-1.133-3.639-3.636-3.676-4.45-.1-2.283-.002-4.332 1.709-5.364-.735.561-.883.452-.448-.329.23-.65.523-1.398.151-2.345-.614-1.571.587-2.62.396-4.076-.149-1.13-1.585-2.77-1.413-3.625.288-1.426-.622-1.835-1.286-3.448-.47-1.144-.158-2.041-.056-2.945.126-1.114-.65-2.135-.832-3.288-.22-1.303.114-2.438.453-3.443.14-.417.887-2.805 1.137-1.394-.118-.669.323-.624.776-.784.303-.107.199-1.722-.54-.326.16-1.178.074-3.1 1.613-3.165-1.481.464-.719-1.103-.651-1.738.1-.933.285-1.818.458-2.711.261-1.35-.038-3.033.526-4.211.826-1.72.867-4.643.778-6.883-.031-.823-.372-2.903.927-2.687-1.267-1.359-.924-3.165-.73-4.071.249-1.167-.577-3.02.991-3.113 1.176-.07 4.294 1.083 4.71.188-.458.303-1.8-.5-2.496-.788-1.339-.554-1.678-.232-2.586-.06-1.368.26-1.454-2.804-1.5-3.287.164.628.3 1.245.404 1.85 1.18-.32-.337-3.723 1.791-2.907-.812-.481-1.515-.658-2.11-.53-.973-2.03.635-2.004 1.827-2.475-.646.05-1.491-.33-2.246-.885a3.297 3.297 0 0 0-.113.885c-1.041-2.89-1.037-5.843-3.298-8.962-1.077-1.49-2.55-6.213-.91-5.819 2.614.63 5.072 1.992 7.68 2.428 1.572.262 4.901-.125 5.912 1.405-.294-.699-.115-1.203.435-1.343.079.692.923 1.58 1.204 2.316.34.886-.898 1.89-1.217 2.422.487-2.058-.807-.12-.991.148-.586.844-.944 1.855-1.398 2.791 1.31.768 1.766.078 2.212-.356a5.41 5.41 0 0 0-1.22.623c-.888-1.346.064-2.137.76-2.55 1.197-.704 1.524-1.889 2.366-2.888 1.39 1.4-1.203 2.343-.674 3.836.976-.953 1.583 2.414.313 2.58.05-.297.1-.592.147-.89-.969.141-.803 1.266-.933 2.043-.556-.747-.587-1.392-.278-1.776-.924.453-.831 1.818-1.989 2.042.915-.282 1.05-.076.412.62.348-.754.663-.607.936.443-.32-.972.126-1.459 1.355-.935.777.331 1.117-.886 1.321-1.174.755-1.068 2.37-1.713 1.02-4.11-.988-1.756 1.698-2.8.465-4.136-1.036-1.124-.49-2.043-1.659-3.294-.878-.941-1.196.253-1.611-1.347 2.623 1.082 1.237-1.525 1.52-2.615-1.125.202-2.044-1.602-1.927-2.252.212-1.178 3.977-.459 5.289-.459h205.034c1.255 0 .764-1.526.687-2.65-.064-.947 1.214-1.947 2.326-.306 1.289 1.901.089 5.485 2.877 6.104.829.185 4.443.163 5.069 1.411.683 1.362 3.53-.374 4.062-.672 1.165-.656 3.525.73 5.11 1.077-.054.73.537 1.21 1.287 1.26-.129.383.68 2.003 1.242 1.666.24-.143-.198-.939.186-.945.931-.016 1.802.643 2.777 1.197.787.446 1.23.142 1.54.905.2.498.678.69 1.087.73 2.377.234 3.435-1.643 5.596-1.668-.014 1.733 2.628 1.38 3.367 1.314.698-.062 1.514-.216 2.394.305 1.735 1.027 2.313.41 3.872.802-3.944 1.61-8.144 3.181-11.251 5.734-1.288 1.06-2.236 2.437-3.485 3.526-1.43 1.215-3.395 1.934-4.446 3.538 2.803 2.621 8.064-1.684 10.036-1.856.317 1.22-.247 2.663-.938 3.268.621.172 1.258-.6 1.748-.288.864.552.772.697 1.74.697 1.685 0 2.847-1.153 4.02-1.862 1.39-.84 3.513-.32 4.798-1.21 1.697-1.178 3.486-2.09 4.898-3.529.088.886.991 1.49 1.51 2.304.539.856-.044 1.532.134 2.3.239-.371 2.6-2.808 1.471-.707 1.338-1.792 3.705-.23 5.745 1.92 1.914 2.016 2.707 1.23 4.727 1.92 2.796.954 3.991-1.431 5.937-2.033 1.166-.359 2.639-.046 3.932-.157 1.626-.138 3.067-.601 4.63-.855-.115.953-.26 1.894 0 2.998 1.762.4 3.135.23 4.526.007 1.254-.201 2.08 2.637 1.107 2.895 1.079.076 1.754 1.358 2.652 2.014-.857 1.577-4.493-.907-5.783.21-.05.043-.569 1.357-.532 1.355-1.02.07-1.754-1.559-2.873-1.958-3.305-1.18-4.034 1.02-6.827.866-2.958-.163-2.89 2.722-5.105 3.463-.045-1.057.678-1.627 1.005-2.446-1.591.305-1.807 1.466-3.176 1.922-.196-.674-.229-1.287-.097-1.836-2.295 1.123-2.952 4.91-4.35 6.894-.355.504-.203 1.323-.57 1.816-.416.548-1.36.5-1.814 1.055-.692.844-1.573 2.238-1.191 3.704 1.804-.424 2.284-4.03 4.873-3.081.942.345-.66 2.972-.797 3.328-.455 1.173-.283 2.756-.882 3.818-1.211 2.155-1.005 4.757-2.043 7.027-.525 1.15-.778 2.642-.53 4.169.23 1.419 1.102 2.888.691 4.112-.667 1.998.392 6.5 2.15 8.971 1.462 2.052 3.738.804 4.699.24 2.218-1.299 3.412-3.525 4.351-5.952.51-1.313.902-2.688.952-4.26.04-1.34-1.275-4.523-.298-5.242-2.609-1.326-1.873-3.79-1.512-5.226.235-.926-.308-1.896-.273-2.868.036-1.015 1.199-1.79 1.555-2.65.404-.979.3-1.936.312-3.102.013-1.046.886-1.13 1.37-1.776.61-.81.475-1.318 1.6-1.61 1.326-.343 1.297-1.998 2.403-2.568-.335 1.177.09 2.783-.535 3.816.491-.32.815-.78.97-1.386.184.727.04 1.375-.315 1.82 1.38-.762 1.341-2.563 1.369-4.214.036-2.051 2.462-1.247 3.585-2.21-2.8-.46-.407-3.665.638-3.892.634-.137 2.64.894 3.452 1.277 1.916.906 3.665 2.04 5.604 2.78 1.608.614 3.077 2.605 2.117 3.256-.922.625.273 2.57.491 3.697.266 1.376.152 3.697-.986 4.153-1.248.501-1.005 2.108-2.088 2.766-1.024.622-2.39 1.34-1.971 3.053.54 2.21 2.601.47 3.097.287 1.024-.379 3.382-5.363 5.563-3.264 1.693 1.63 1.758 5.652 2.263 7.344.658 2.2 1.48 7.35-1.167 7.573.533-1.026-1.003-1.594-1.316-.713-.265.75-.112 1.77-.552 2.408-.468.678-1.22 1.068-1.7 1.727-.515.704-.577 1.674-1.121 2.368-.4.512-2.527 2.42-.64 3.047.675.224 1.36.352 2.037.616a3.8 3.8 0 0 1 .893.692c.518.324 1.243.005 1.873.316-.743.185-1.612.17-2.207.587 1.006.498 1.522-.215 2.409-.082.588.088 1.245.385 1.813.404 1.847.06 3.2-.817 5.1-.758 1.837.056 2.814-1.66 4.05-2.457 1.436-.929 3.285-1.436 4.945-2.067 3.459-1.315 6.895-2.858 9.56-5.202 1.13-.993 2.448-1.918 3.467-3.019.593-.64.428-3.251-1.193-3.302.702-2.05 1.583-2.525 4.042-2.9a14.137 14.137 0 0 1 4.384.058c1.19.206 2.55 1.552 3.565 1.246 1.286-.387 2.66-.15 4.04-.33 1.516-.198 2.44-1.297 3.662-1.92.931-.474 2.264-.443 2.122-1.912-.146-1.508.383-2.545 1.178-3.48-.535.309-1.497.583-1.128-.688-.671.687-1.027.158-.814-.464.22-.64.912-.99 1.46-1.303 1.635-.93 2.692-2.23 3.935-3.608 1.346-1.488 3.014-3.453 5.2-3.907 2.805-.588 6.233-.093 9.28-.155 4.515-.093 8.949-.213 13.584.032.89.047 3.552.468 3.814-.491.208-.79.339-1.788.956-2.278.691-.546 1.924-.249 2.683-.885.245.289.489.579.73.87.823-.46.044-1.526 1.243-1.383-.273-.032 1.78-3.373 2.028-3.615 1.002-.982 1.636-1.259 1.361-2.993-.215-1.358.64-2.65 1.367-3.37.882-.874.399-2.392.853-3.531.632-1.584 1.995-2.712 2.976-4.01.802-1.103 2.961-6.468 4.25-2.13.69 2.312 4.617-.116 5.174-.301 3.325-1.106 4.592 3.977 4.561 6.17-.027 1.959.119 3.968.173 5.945.03 1.028-.655 3.962.376 5.04 1.093 1.142 2.136.026 2.064 1.73-.05 1.203-.389 2.438.896 3.665.406-.732 1.203-.424 1.757.52.653 1.112-.291 1.43-.102 2.428.842-.803 1.103.115.828.713-.295.643-1.153.846-1.824 1-.817.186-1.51.326-2.104.87-.427.392-1.915 1.988-1.828.013-.65.261-.86 1.209-1.685 1.209-.62 0-.067 1.26-.718 1.467-.176-.535-.625-1.94-1.423-1.721-.9.249-.952 1.848-1.66.169.234.775-.034.682-.563.649-.625-.04-.031 1.605.063 1.936-1.574-.888-1.796-2.012-2.023-3.45.026 1-1.011 1.133-1.4 1.812-.445.775-.41 1.857-.798 2.67-.904 1.9-2.638.93-3.37 3.007-.368-.557-.543-.678-.524-1.288a25.45 25.45 0 0 1-.538.772c-.227-2.201-.927.205-.847.772-.263-.947-.474-1.901.004-2.576-.404.241-.652.614-.742 1.117.754-.216.465 2.218.153 2.573a23.995 23.995 0 0 0-.534-1.114c-.276.351-1.158 1.579-.302-.173-.676 1.965-.495.21-.439-.343-.664.606-2.267 1.204-1.902 2.516.107.378-1.089 2.042-1.388 2.29-1.176.978-4.896 5.947-1.803 7.901-.6.482-3.225 1.707-2.663 2.962.266.593 1.619.805 2.104 1.335 1.224 1.334.627 2.963 2.46 4.29 1.544 1.119 3.462.028 3.176-1.57-.965 0-.508-1.02-1.674-1.686 1.65-.078 2.286 2.542 2.083 3.54-.236 1.177-4.138 1.924-5.398 1.765.035-.601.098-1.19.189-1.767-1.335.912-2.63 2.22-4.394 2.355.037-.881-.107-1.873.392-2.522-.636.417-1.12 1.535-1.819 0-.776 1.91-.246 3.656-2.691 4.094-.482.086-4.48.808-4.772-.23.348 1.1-1.21 1.105-1.92 1.096-1.55-.02-2.345.002-3.595.63-2.493 1.253-4.984 2.293-6.78 4.298.639-1.633 1.22-3.208.142-5.438-.353 1.843 1.603 5.326-.732 6.17-1.823.659-1.434 2.355.85 2.6.303 2.166-.44 4.063-.909 5.894l.244-1.657c-1.742-.042-.543 5.016-2.556 4.837-.643-.056-1.324 2.659-1.577 3.127-.57 1.049-1.367 2.438-2.788 2.523.017-.521.844-1.822-.06-2.35-1.507-.878-2.348-.931-3.7-2.42-2.434-2.679 1.31-3.552 2.185-4.722-1.633.857-4.538 2.156-2.626 5.031 1.105 1.66 1.075 3.318 2.32 5.06.997 1.395 1.05 2.422.339 2.931 1.246.252 1.083 1.41.835 2.049.183-1.871-.241-.172-.254.234-.048.65-.841 1.109-1.184 1.555-.924 1.207-1.412 2.524-2.056 3.929-.574 1.257-1.606 2.19-2.154 3.425-.324.73-.356 2.705-1.455 2.675-.894-1.821.15-3.732.84-4.973.348-.624 1.128-2.698 1.753-2.839-.708-.265-1.28-.184-1.715.245-.015-.79 1.536-2.371-.439-2.369a4.38 4.38 0 0 0 .368-1.719c-.392 1.36-1.48-.655-1.119 1.228-.266-.442-1.661-1.233-1.69-1.685-.05-.805.95-1.22-.015-2.164.55.01 1.114.146 1.69.41-.383-.683-1.629-2.106-2.317-1.558-.015-1.157.845-.385 1.4-.846.933-.777-1.124-1.3-1.614-.715-.07-1.352 1.843-.856 1.605-2.386a6.271 6.271 0 0 1-.556.658c-1.414-2.243 1.496-2.86 2.87-3.049-.337-.21-.67-.43-.998-.66a2.4 2.4 0 0 0 1.043-1.322c-.417.353-.852.683-1.305.992.152-.29.286-.595.4-.909-.846-.104-1.071.39-1.246 1.044-.12.453-1.192 1.82-.792.112-.324.34-.487.78-.489 1.32-.833-1.57-1.654.252-1.3.99-.332-.13-.662-.268-.993-.412a5.326 5.326 0 0 0 1.322 1.647c-.945.103-.77.27.078.906-2.709-1.453.37 5.851.045 6.564-1.43-.816-2.049-2.026-2.068-3.36.007 1.091.064 2.058 1.167 3.045.833.768 1.95 1.916 1.208 2.77-.661-1.27-3.476-1.29-3.442-2.781-.43-.079-.438.193-.048.818a4.343 4.343 0 0 1-1.644-1.473c-.866 1.193-1.98-.343-1.26-1.425.55-.827 2.192-1.645 1.01-3.17.586 1.566-2.774 4.443-1.542 5.317.732.53 1.436-.158 2.148.662 1.152 1.377 1.277.992 2.773 1.377.61.158 1.363 1.454 1.98 1.887 1.032.72 1.016 1.117.516 1.988-1.32 2.296-3.54-1.212-4.73-2.873.357 1.525 2.163 3.817 3.618 4.562 1.788.916 1.843 2.285-.146 1.956.196.294.385.592.565.893-.978.729-2.065-1.01-2.878-1.706 1.257 1.543 5.001 3.847 2.47 4.869-1.788-2.91-3.525-2.68-6.29-3.65.42.55 2.133.678 2.91 1.158 1.071.663 3.37 2.295 2.68 3.545.328-.546.964-.493 1.563.08-.497-1.305.914-.872 1.689-.657.977.272.985 1.024 1.242 1.933.341 1.204.565 2.373.806 3.569.31 1.534 1.632 3.184 1.6 4.675-.445-1.296-.88-2.641-1.589-3.898-.688-1.22-.126-2.484-1.321-3.6.066.434.134 1.306-.556.486.428 1.581 1.905 3.22 1.598 4.76-.106-.632-.42-1.196-.944-1.693-.06.869-.64.97-1.396.242.232.284.445.58.639.886-.486.4-1.046.32-1.682-.241 1.237 1.637-.675.377-1.284.08.296.255.578.523.847.806-.696.202-1.08 1.09-2.063.563-1.044-.559-1.005-1.822-.722-2.497-.303.37-.603 2.978.19 3.411.706.386 1.27-.496 1.935-.267.542.187 2.683-.672 2.906.47.148.782.05 1.91-.286 2.5.62-.237.719-.836.704-1.513-.02-.891.99-.637 1.358-1.219.928 1.249.074 2.128.238 3.295-1.302-.813-1.504 1.052-1.89 1.675-.714 1.154-2.842.496-4.13-.232.08-.281.182-.549.308-.803-.56.15-.84.603-.477 1.283-1.152-.518-2.331-.383-3.46-1.122.733.614 4.944 2.157 3.54 2.803-.535.247.08 1.05-.36 1.457-.97.901-1.661.808-3.153-.175.417 1.11 1.253 1.508 2.203 1.38.643-.086 2.498-1.045 2.468-.02.284-.2.595-.359.932-.481-.211.707-.663 1.603-1.26 1.997-.34.223-2.702.035-1.955.638-1.267-.206-2.983-.399-3.641.439-.448.574-1.444 1.554-1.533-.12-.285.361-.07 1.018-.063 1.493.005.509-.98.715-1.311.943-1.443.99-1.919 2.71-2.415 4.41a5.387 5.387 0 0 0-.315-1.59c.229 3.08-2.807 2.091-4.989 2.842-2.473.853-3.447 3.402-4.502 5.64-.56-.571-.546-1.195-.112-1.582-.761.526.392 2.238-.569 2.45-.519.115-.187.505-.45.838-.467.59-.81-.017-1.284.347-.504.387-2.316 3.888-3.251 1.736.809 1.776-.552 2.02-1.544 2.66-.621.4-1.104.791-2.013.624-.387-.071-2.65 0-.621.339-2.169.477 1.692.182-.439 1.18 1.78-.186-.836 1.385-1.034-.473.372 2.123-.919-.316-1.12-.786.211.701.633 1.367.837 2.067.252.87-1.187 2.202-.568.606-.685 1.867-.638 2.55-2.6 3.216.173.26.344.522.515.785-.394.308-.883.36-1.466.157.052.292.155.578.311.861.256-.092.504-.197.744-.313.078.967-.719 1.374-1.596 1.333 1.082.533 1.019 1.976.116 1.25.598 1.282-.202.775-1.206.546a3.675 3.675 0 0 1 1.657 1.094c-.51.712-1.4.625-1.48 1.715-.064.775-.856 2.732-.076 3.505.327.272.361.516.1.73-.626.516-.068.69.246 1.54.61 1.658.633 3.595.987 5.272.762 3.608 2.434 7.241 4.348 10.601.942 1.651.912 2.011.796 3.576-.118 1.542.69 2.955 1.17 4.487-.954-1.582-1.587-3.273-1.281-4.893.347-1.858-1.35-1.425-1.756-2.95.614 2.819 1.55 5.504 2.86 8.21.71 1.467 2.357 4.474 1.586 5.838 2.362-.35 1.597 10.258 1.346 11.41-.447 1.884-1.032 5.83-2.67 6.863-.547.346-.524-1.123-1.115-.043-.42.77-1.348.006-2.025.273-1.132.445-3.024-.14-1.95-1.595.321.542.843.965 1.427 1.138.189-.828-1.317-1.67-1.735-2.291-.92-1.368-.615-2.861-2.37-3.818-1.045-.565-2.009-.645-2.402-1.943-.388-1.28.006-3.079-1.657-3.81.818-.307 1.058-1.24 1.695-1.754-.717.24-.983 1.178-1.683 1.47-.588.247-.71-3.368-.4-3.836-.435.359-.937.333-1.503-.076 1.347 1.253-.292 1.521-1.19 0-.826-1.4-.745-3.817-2.387-4.743 1.145-.08 2.805-2.859 1.863-4.064-.214.174-.423.353-.627.537-.079-.663-.601-1.189-1.216-1.459-.24.548-.157.998.486 1.397.569.354-.244 1.504-.39 1.75-.475-.576-.944-1.33-.523 0-1.636-3.135.716-6.114.775-9.019.021-1.036-.19-1.966-.625-3.016-.739-1.787-1.297-1.219-2.609-2.274-1.908-1.535-2.926-3.768-4.245-5.693-.64-.934-1.847-1.959-2.889-2.289-1.52-.482-2.108 1.002-3.486.854.497 1.187-.614.906-1.424 1.512-.316.236-1.726 1.365-1.759.347-.874.826-2.206 1.086-3.503 1.086.544-1.047-.409-2.42-1.567-2.945.514.068.375-.217-.418-.854 1.202.81 1.298-.203.27-.308-1.55-.16-.721-1.256.076-1.478-.719.03-1.437.064-2.16.078.262.257.52.515.777.776-1.381.387-4.225-1.374-5.64-2.02.176.028 2.853.4 2.555-.1-.288-.482-1.209-.796-1.66-.89-.808-.169-1.374.536-1.987.801-1.044.453-2.668.456-3.886.422a4.186 4.186 0 0 0 1.81-.62c-.685-.215-1.053-.738-.753-1.324a9.065 9.065 0 0 0-.731 1.4c-.036-2.152-.858-.112-1.17.343-.466.68-1.126 1.03-2.057.98.532-.15 1.774-.853.751-1.633-.224 1.768-2.293 2.713-4.115 2.02 1.817.647.057-3.594-.424-4.434-.2.909-.463 1.942-.781 2.788-.243.645-1.413.269-1.944.62-.286.189-1.935.244-1.826-.023-.402.983-1.56-.648-2.184-.35.342.111-1.885.637-2.365.695-1.215.148-1.205.886-2.306 1.313-1.982.765-3.277-1.807-5.198-1.766-.679.014-2.499 2.03-1.194 2.685.857.43 2.154.371 2.859.054.576-.26 1.992-.114 2.33-.494-.18.358-1.637 1.075-1.304 1.631.842 1.404 1.23.612 1.694-.096.61-.929 2.093.273 1.737 1.304-.302.878-2.18.16-1.516 1.66-1.106-.385-1.044.362-.603 1.17.712 1.305 1.666 1.425 2.908 1.78.606.172 1.03.998 1.555 1.455.525.459-.756 1.252-.58 1.856-1.076-1.221-1.634-.031-2.192.54.284-.584.563-1.179.683-1.853-.728-.09-.625-.482-1.018-.93-.241-.277-2.166-.92-2.491-.924.357-.994-2.864-2.45-3.137-2.132-.153.18.864 1.332.893 1.744.088 1.198-.03 2.254-1.209 2.552-.301-1.118-.21-1.454-1.454-1.7-1.995-.394-.807 1.088-2.087 1.383-2.009.462-4.901-2.072-4.2-4.166-.258.937-1.536.507-2.244-.07-.462-.376-.865-.93-.826-1.478-.793-.124-2.05.551-1.388-.776-.937.011-2.972.926-1.705 2.246-1.481-.246-2.541.495-4.163.088-1.908-.48-3.738-1.613-5.642-2.178.638-.746.827-1.447.124-2.559-.105.815.218 2.805-.718 3.044-.875.222-2.564.44-3.564-.02.285-.694 1.06-1.206.74-2.172-.908.54-1.625 1.661-.493 2.868-2.67.376-5.278 1.309-7.119 3.018.443-.894 1.397-1.479 2.31-1.856-.832-.16-1.554.077-2.246.31.346-.67.715-1.483.227-2.401-.635.15-.572.812-1.08 1.084-.482.26-.79-.797-1.162-.155-.32.555.751 2.643 1.538 2.864-.965 1.319-2.19 2.19-3.08 3.587-1.215 1.91-4.486 1.558-5.495 3.358l1.377-.462c-1.04.695-2.155 1.32-3.361 1.771.453-.567 1.183-.83 1.57-1.463-.475.141-.928.321-1.357.54.966-.737-1.515-.539-1.998-1.388.259.532.252.995-.02 1.387-.33-2.291-2.398 1.342.314 1.23-.696.908-2.009 1.303-3.027-.153.413 1.27-1.01 4.051-1.11 2.383-.242 1.206-1.951-.04-2.037 1.383.658.179 1.141.025 1.45-.46.302 2.376-2.075 1.954-3.627 2.457.307.04.612.065.914.076-.1.574.423.95.716 1.44.355.591-.425 1.88-.587 2.328-.435 1.197-2.025 1.273-2.988-.089.491.554.603 1.09.339 1.608.788.178 1.617.352 2.213-.076.006.834-.051 2.233-.762 2.653-.593.352.504 2.132.65 2.696.435 1.691.34 5.186 1.985 6.552a8.7 8.7 0 0 0 .566-.684c.402.807-1.317 1.564-1.832 1.64-1.018.153-2.182-1.716-3.395-1.716-.992 0-2.261.27-3.303-.302-1.217-.668-2.836-2.195-4.25-2.4-2.452-.352-2.815-1.988-3.71-4.253-.6-1.521-1.346-2.832-1.617-4.401-.117-.675.031-1.307-.142-1.991-.251-.99-1.617-1.335-2.255-2.14-.99-1.248-1.43-2.721-2.58-3.884-1.137-1.149-1.76-2.375-2.388-3.773-.596-1.327-.818-2.684-1.477-4.01-.328-.659-.862-1.155-1.207-1.79-.419-.772-1.537-1.263-1.79-1.963-.47-1.302-2.375-1.726-2.862-3.108-.054-.15-2.515-.476-2.746-.51-2.556-.375-5.107-.469-6.944.875-1.997 1.462-1.465 5.12-3.669 6.536-.98.63-2.824-.868-3.86-1.475-.934-.548-1.901-1.004-2.832-1.567-.712-.43-1.579-1.622-2.295-1.873-1.519-.532-2.409-2.728-2.708-4.046-.202-.89.03-1.586-.354-2.501-.341-.817-.814-1.584-.967-2.426-.288-1.576-1.738-2.166-3-2.932-1.766-1.07-3.521-3.396-4.973-4.963-1.206-1.302-2.159-1.048-3.165-2.814-1.136-1.994-3.785-1.38-5.186-1.38-2.257 0-4.505.1-6.808-.04-2.557-.156-2.254 1.156-2.413 3.108-.2 2.472-5.66 1.158-7.703 1.158-4.154 0-8.284.408-12.492.203-1.969-.095-4.166-1.363-6.187-2.14-2.783-1.067-5.586-1.92-8.377-2.947-5.257-1.934-10.516-4.041-15.777-6.171-.01-.804.477-1.304.708-1.97-6.283.21-12.272 1.083-18.351 1.734-.769-1.852-.837-3.585-1.503-5.419-.814-2.24-2.645-3.096-4.515-4.692-1.945-1.639-1.543-.69-3.29-1.269-1.193-.393-.189-3.2-3.104-3.09-1.787.068-2.724-.48-4.339-2.04-1.706-1.648-3.644-1.369-5.395-1.728-1.149-.236-4.169.434-4.717-1.771-.344-1.389.527-2.679-.033-4.105-.536-1.369-2.128-1.134-1.912-2.67.136-.96-1.55-2.127-2.537-2.877-.972-.74-1.316-1.7-1.79-2.689-.706-1.444-3.185-2.877-3.386-4.178-.314-2.042-.064-2.03.674-3.427.865-1.637-.697-2.015-2.365-2.945-2.479-1.382-1.446-2.689-2.534-4.408-.643-1.016-.544-3.307.535-3.365.24.548-.085 1.092.243 1.628.413.675 1.448 1.212 2.056 1.71-.31-2.208-2.638-4.697-.609-5.869-3.421-2.584-.986 2.343-2.558 2.022-1.006-.207-3.232-2.861-3.583-1.368.23-.664.072-2.69 1.39-.899-.373-.758-.766-1.54-1.537-2.129"/>
    <path d="M71.13 206.364c-1.356 1.32 3.966 2.584 5.758 3.582.052.339.048.645-.013.918.24-.312 1.308-.487.41-1.429-.881-.923.947-.879.449-1.739-2.76-.952-5.305-2.033-6.605-1.332"/>
    <path d="M78.325 191.528c3.1.795 3.271-.983 5.376-1.082 1.63-.077 4.828.703 4.959-.598-.826.401-.939.254-.34-.448.396-.566 1.019-.97 1.725-1.308 1.192-.568 2.564-.996 3.414-1.832-2.176-.085-4.644-.19-6.286.215-1.364.336-2.043 1.192-3.53 1.433-2.815.457-6.579.278-5.318 3.62"/>
   </g>
   <g id="pf" transform="matrix(4.1721 0 0 4.033 -861.21 251.98)" stroke="#b9b9b9" stroke-width="1.1679">
    <g id="pf-" class="land pf" fill="#999" stroke="#b9b9b9" stroke-miterlimit="3.9745" stroke-width="1.1679">
     <path d="M112.583 904.933c.486-.735.324-.979-.486-.736.137.264.3.51.486.736"/>
     <path d="M112.708 906.917c.713-.72.623-.965-.268-.738l.268.738"/>
     <path d="M124.786 912.812c.383-.663.458-1.267-.614-.512l.614.512"/>
     <path d="M128.71 914.514c.214.497.615.953 1.245.953.364-.83-.201-.895-.72-1.157-.757-.385-.327-1.55-1.079-1.993-.714-.42-1.848.429-1.54 1.267.303.83 1.278.838 2.094.93"/>
     <path d="M198.847 837.227a1.88 1.88 0 0 1 1.21-.652c-.04-.985-1.072-.703-1.736-.866-.09.616.084 1.122.526 1.518"/>
     <path d="M199.581 841.505c.727-.64.33-.873-.447-.725l.447.725"/>
     <path d="m203.189 837.157.764-.503c-.673-.472-.928-.304-.764.503"/>
     <path d="M207.607 845.06c.257-.673 1.226-.49 1.674-1.017-.722.092-1.243-.446-1.974-.093-.804.387-.287 1.072.3 1.11"/>
    </g>
   </g>
   <g id="ki" transform="matrix(4.1721 0 0 4.033 -861.21 251.98)" stroke="#fff" stroke-width=".12977">
    <g id="ki-" class="land ki" fill="#999" stroke="#fff" stroke-miterlimit="3.9745" stroke-width=".12977">
     <path d="m68.563 744.836.423-.145c-.586-.608-1.283-2.463-2.245-2.52.419.886.637 1.59-.492 1.368.65.668 1.622.697 2.314 1.297"/>
     <path d="M2600.32 742.382c.267-.648.24-1.238-.69-.5l.69.5"/>
    </g>
   </g>
   <g id="pm" transform="matrix(4.1721 0 0 4.033 -861.21 251.98)" stroke="#b9b9b9" stroke-width="1.1679">
    <path id="pm-" class="land pm" d="M840.192 325.875c.078.953-.192 1.779-.078 2.742-.35-.953-.334-1.876-.684-2.832.254.031.508.06.763.09" fill="#999" stroke="#b9b9b9" stroke-miterlimit="3.9745" stroke-width="1.1679"/>
   </g>
   <g id="ck" transform="matrix(4.1721 0 0 4.033 -861.21 251.98)" stroke="#b9b9b9" stroke-width="1.1679">
    <g id="ck-" class="land ck" fill="#999" stroke="#b9b9b9" stroke-miterlimit="3.9745" stroke-width="1.1679">
     <path d="M-11.188 870.323c.44-.728.264-.97-.528-.73.153.262.329.505.528.73"/>
     <path d="M6.07 918.681c.398-.665.485-1.27-.603-.513l.603.513"/>
    </g>
   </g>
  </g>
  <ellipse id="pm-c" cx="2620.9" cy="1581.5" rx="29.591" ry="29.069" stroke="#fff" stroke-linejoin="round" stroke-miterlimit="3.9745" stroke-width="4.7907"/>
  <ellipse id="ck-c" cx="-880.27" cy="3854.2" rx="29.591" ry="29.069" stroke="#fff" stroke-linejoin="round" stroke-miterlimit="3.9745" stroke-width="4.7907"/>
 </g>
</svg>
